M48
;DRILL file {KiCad (5.0.2)-1} date 5/18/2019 11:58:51 PM
;FORMAT={-:-/ absolute / metric / decimal}
FMAT,2
METRIC,TZ
T1C0.400
T2C1.000
%
G90
G05
T1
X94.75Y-58.1
X94.75Y-68.1
X94.75Y-78.1
X94.75Y-88.1
X94.75Y-98.1
X94.75Y-108.1
X94.75Y-118.1
X94.75Y-128.1
X94.75Y-138.1
X95.85Y-52.3
X95.85Y-58.05
X95.85Y-62.3
X95.85Y-68.05
X95.85Y-72.3
X95.85Y-78.05
X95.85Y-82.3
X95.85Y-88.05
X95.85Y-92.3
X95.85Y-98.05
X95.85Y-102.3
X95.85Y-108.05
X95.85Y-112.3
X95.85Y-118.05
X95.85Y-122.3
X95.85Y-128.05
X95.85Y-132.3
X95.85Y-138.05
X96.95Y-52.3
X96.95Y-62.3
X96.95Y-72.3
X96.95Y-82.3
X96.95Y-92.3
X96.95Y-102.3
X96.95Y-112.3
X96.95Y-122.3
X96.95Y-132.3
X100.25Y-52.7
X100.25Y-62.7
X100.25Y-72.7
X100.25Y-82.7
X100.25Y-92.7
X100.25Y-102.7
X100.25Y-112.7
X100.25Y-122.7
X100.25Y-132.7
X102.35Y-53.5
X102.35Y-63.5
X102.35Y-73.5
X102.35Y-83.5
X102.35Y-93.5
X102.35Y-103.5
X102.35Y-113.5
X102.35Y-123.5
X102.35Y-133.5
X103.65Y-53.5
X103.65Y-63.5
X103.65Y-73.5
X103.65Y-83.5
X103.65Y-93.5
X103.65Y-103.5
X103.65Y-113.5
X103.65Y-123.5
X103.65Y-133.5
X106.95Y-58.7
X106.95Y-68.7
X106.95Y-78.7
X106.95Y-88.7
X106.95Y-98.7
X106.95Y-108.7
X106.95Y-118.7
X106.95Y-128.7
X106.95Y-138.7
X109.05Y-54.5
X109.05Y-64.5
X109.05Y-74.5
X109.05Y-84.5
X109.05Y-94.5
X109.05Y-104.5
X109.05Y-114.5
X109.05Y-124.5
X109.05Y-134.5
X110.15Y-54.5
X110.15Y-64.5
X110.15Y-74.5
X110.15Y-84.5
X110.15Y-94.5
X110.15Y-104.5
X110.15Y-114.5
X110.15Y-124.5
X110.15Y-134.5
X110.159Y-58.05
X110.159Y-68.05
X110.159Y-78.05
X110.159Y-88.05
X110.159Y-98.05
X110.159Y-108.05
X110.159Y-118.05
X110.159Y-128.05
X110.159Y-138.05
X111.25Y-57.5
X111.25Y-67.5
X111.25Y-77.5
X111.25Y-87.5
X111.25Y-97.5
X111.25Y-107.5
X111.25Y-117.5
X111.25Y-127.5
X111.25Y-137.5
X111.255Y-54.45
X111.255Y-64.45
X111.255Y-74.45
X111.255Y-84.45
X111.255Y-94.45
X111.255Y-104.45
X111.255Y-114.45
X111.255Y-124.45
X111.255Y-134.45
X113.25Y-53.
X113.25Y-63.
X113.25Y-73.
X113.25Y-83.
X113.25Y-93.
X113.25Y-103.
X113.25Y-113.
X113.25Y-123.
X113.25Y-133.
X115.95Y-52.7
X115.95Y-62.7
X115.95Y-72.7
X115.95Y-82.7
X115.95Y-92.7
X115.95Y-102.7
X115.95Y-112.7
X115.95Y-122.7
X115.95Y-132.7
X117.35Y-59.
X117.35Y-69.
X117.35Y-79.
X117.35Y-89.
X117.35Y-99.
X117.35Y-109.
X117.35Y-119.
X117.35Y-129.
X117.35Y-139.
X118.65Y-52.7
X118.65Y-62.7
X118.65Y-72.7
X118.65Y-82.7
X118.65Y-92.7
X118.65Y-102.7
X118.65Y-112.7
X118.65Y-122.7
X118.65Y-132.7
X123.35Y-54.45
X123.35Y-64.45
X123.35Y-74.45
X123.35Y-84.45
X123.35Y-94.45
X123.35Y-104.45
X123.35Y-114.45
X123.35Y-124.45
X123.35Y-134.45
X124.45Y-51.8
X124.45Y-54.5
X124.45Y-61.8
X124.45Y-64.5
X124.45Y-71.8
X124.45Y-74.5
X124.45Y-81.8
X124.45Y-84.5
X124.45Y-91.8
X124.45Y-94.5
X124.45Y-101.8
X124.45Y-104.5
X124.45Y-111.8
X124.45Y-114.5
X124.45Y-121.8
X124.45Y-124.5
X124.45Y-131.8
X124.45Y-134.5
X125.55Y-51.8
X125.55Y-54.5
X125.55Y-61.8
X125.55Y-64.5
X125.55Y-71.8
X125.55Y-74.5
X125.55Y-81.8
X125.55Y-84.5
X125.55Y-91.8
X125.55Y-94.5
X125.55Y-101.8
X125.55Y-104.5
X125.55Y-111.8
X125.55Y-114.5
X125.55Y-121.8
X125.55Y-124.5
X125.55Y-131.8
X125.55Y-134.5
X154.75Y-58.1
X154.75Y-68.1
X154.75Y-78.1
X154.75Y-88.1
X154.75Y-98.1
X154.75Y-108.1
X154.75Y-118.1
X154.75Y-128.1
X154.75Y-138.1
X155.85Y-52.3
X155.85Y-58.05
X155.85Y-62.3
X155.85Y-68.05
X155.85Y-72.3
X155.85Y-78.05
X155.85Y-82.3
X155.85Y-88.05
X155.85Y-92.3
X155.85Y-98.05
X155.85Y-102.3
X155.85Y-108.05
X155.85Y-112.3
X155.85Y-118.05
X155.85Y-122.3
X155.85Y-128.05
X155.85Y-132.3
X155.85Y-138.05
X156.95Y-52.3
X156.95Y-62.3
X156.95Y-72.3
X156.95Y-82.3
X156.95Y-92.3
X156.95Y-102.3
X156.95Y-112.3
X156.95Y-122.3
X156.95Y-132.3
X160.25Y-52.7
X160.25Y-62.7
X160.25Y-72.7
X160.25Y-82.7
X160.25Y-92.7
X160.25Y-102.7
X160.25Y-112.7
X160.25Y-122.7
X160.25Y-132.7
X162.35Y-53.5
X162.35Y-63.5
X162.35Y-73.5
X162.35Y-83.5
X162.35Y-93.5
X162.35Y-103.5
X162.35Y-113.5
X162.35Y-123.5
X162.35Y-133.5
X163.65Y-53.5
X163.65Y-63.5
X163.65Y-73.5
X163.65Y-83.5
X163.65Y-93.5
X163.65Y-103.5
X163.65Y-113.5
X163.65Y-123.5
X163.65Y-133.5
X166.95Y-58.7
X166.95Y-68.7
X166.95Y-78.7
X166.95Y-88.7
X166.95Y-98.7
X166.95Y-108.7
X166.95Y-118.7
X166.95Y-128.7
X166.95Y-138.7
X169.05Y-54.5
X169.05Y-64.5
X169.05Y-74.5
X169.05Y-84.5
X169.05Y-94.5
X169.05Y-104.5
X169.05Y-114.5
X169.05Y-124.5
X169.05Y-134.5
X170.15Y-54.5
X170.15Y-64.5
X170.15Y-74.5
X170.15Y-84.5
X170.15Y-94.5
X170.15Y-104.5
X170.15Y-114.5
X170.15Y-124.5
X170.15Y-134.5
X170.159Y-58.05
X170.159Y-68.05
X170.159Y-78.05
X170.159Y-88.05
X170.159Y-98.05
X170.159Y-108.05
X170.159Y-118.05
X170.159Y-128.05
X170.159Y-138.05
X171.25Y-57.5
X171.25Y-67.5
X171.25Y-77.5
X171.25Y-87.5
X171.25Y-97.5
X171.25Y-107.5
X171.25Y-117.5
X171.25Y-127.5
X171.25Y-137.5
X171.255Y-54.45
X171.255Y-64.45
X171.255Y-74.45
X171.255Y-84.45
X171.255Y-94.45
X171.255Y-104.45
X171.255Y-114.45
X171.255Y-124.45
X171.255Y-134.45
X173.25Y-53.
X173.25Y-63.
X173.25Y-73.
X173.25Y-83.
X173.25Y-93.
X173.25Y-103.
X173.25Y-113.
X173.25Y-123.
X173.25Y-133.
X175.95Y-52.7
X175.95Y-62.7
X175.95Y-72.7
X175.95Y-82.7
X175.95Y-92.7
X175.95Y-102.7
X175.95Y-112.7
X175.95Y-122.7
X175.95Y-132.7
X177.35Y-59.
X177.35Y-69.
X177.35Y-79.
X177.35Y-89.
X177.35Y-99.
X177.35Y-109.
X177.35Y-119.
X177.35Y-129.
X177.35Y-139.
X178.65Y-52.7
X178.65Y-62.7
X178.65Y-72.7
X178.65Y-82.7
X178.65Y-92.7
X178.65Y-102.7
X178.65Y-112.7
X178.65Y-122.7
X178.65Y-132.7
X183.35Y-54.45
X183.35Y-64.45
X183.35Y-74.45
X183.35Y-84.45
X183.35Y-94.45
X183.35Y-104.45
X183.35Y-114.45
X183.35Y-124.45
X183.35Y-134.45
X184.45Y-51.8
X184.45Y-54.5
X184.45Y-61.8
X184.45Y-64.5
X184.45Y-71.8
X184.45Y-74.5
X184.45Y-81.8
X184.45Y-84.5
X184.45Y-91.8
X184.45Y-94.5
X184.45Y-101.8
X184.45Y-104.5
X184.45Y-111.8
X184.45Y-114.5
X184.45Y-121.8
X184.45Y-124.5
X184.45Y-131.8
X184.45Y-134.5
X185.55Y-51.8
X185.55Y-54.5
X185.55Y-61.8
X185.55Y-64.5
X185.55Y-71.8
X185.55Y-74.5
X185.55Y-81.8
X185.55Y-84.5
X185.55Y-91.8
X185.55Y-94.5
X185.55Y-101.8
X185.55Y-104.5
X185.55Y-111.8
X185.55Y-114.5
X185.55Y-121.8
X185.55Y-124.5
X185.55Y-131.8
X185.55Y-134.5
T2
X92.05Y-132.36
X92.05Y-134.9
X92.05Y-137.44
X152.05Y-122.36
X152.05Y-124.9
X152.05Y-127.44
X92.05Y-72.36
X92.05Y-74.9
X92.05Y-77.44
X152.05Y-92.36
X152.05Y-94.9
X152.05Y-97.44
X188.25Y-112.36
X188.25Y-114.9
X188.25Y-117.44
X188.25Y-62.36
X188.25Y-64.9
X188.25Y-67.44
X92.05Y-52.36
X92.05Y-54.9
X92.05Y-57.44
X92.05Y-82.36
X92.05Y-84.9
X92.05Y-87.44
X152.05Y-132.36
X152.05Y-134.9
X152.05Y-137.44
X188.25Y-132.36
X188.25Y-134.9
X188.25Y-137.44
X188.25Y-92.36
X188.25Y-94.9
X188.25Y-97.44
X92.05Y-102.36
X92.05Y-104.9
X92.05Y-107.44
X92.05Y-112.36
X92.05Y-114.9
X92.05Y-117.44
X128.25Y-132.36
X128.25Y-134.9
X128.25Y-137.44
X188.25Y-102.36
X188.25Y-104.9
X188.25Y-107.44
X128.25Y-62.36
X128.25Y-64.9
X128.25Y-67.44
X152.05Y-102.36
X152.05Y-104.9
X152.05Y-107.44
X152.05Y-52.36
X152.05Y-54.9
X152.05Y-57.44
X92.05Y-62.36
X92.05Y-64.9
X92.05Y-67.44
X188.25Y-82.36
X188.25Y-84.9
X188.25Y-87.44
X128.25Y-102.36
X128.25Y-104.9
X128.25Y-107.44
X92.05Y-92.36
X92.05Y-94.9
X92.05Y-97.44
X188.25Y-122.36
X188.25Y-124.9
X188.25Y-127.44
X128.25Y-82.36
X128.25Y-84.9
X128.25Y-87.44
X128.25Y-52.36
X128.25Y-54.9
X128.25Y-57.44
X152.05Y-112.36
X152.05Y-114.9
X152.05Y-117.44
X152.05Y-62.36
X152.05Y-64.9
X152.05Y-67.44
X152.05Y-72.36
X152.05Y-74.9
X152.05Y-77.44
X128.25Y-92.36
X128.25Y-94.9
X128.25Y-97.44
X128.25Y-72.36
X128.25Y-74.9
X128.25Y-77.44
X188.25Y-72.36
X188.25Y-74.9
X188.25Y-77.44
X152.05Y-82.36
X152.05Y-84.9
X152.05Y-87.44
X128.25Y-112.36
X128.25Y-114.9
X128.25Y-117.44
X92.05Y-122.36
X92.05Y-124.9
X92.05Y-127.44
X128.25Y-122.36
X128.25Y-124.9
X128.25Y-127.44
X188.25Y-52.36
X188.25Y-54.9
X188.25Y-57.44
T0
M30
