G04 #@! TF.GenerationSoftware,KiCad,Pcbnew,(5.0.2)-1*
G04 #@! TF.CreationDate,2019-05-18T23:58:48-05:00*
G04 #@! TF.ProjectId,pixelote,70697865-6c6f-4746-952e-6b696361645f,rev?*
G04 #@! TF.SameCoordinates,Original*
G04 #@! TF.FileFunction,Profile,NP*
%FSLAX46Y46*%
G04 Gerber Fmt 4.6, Leading zero omitted, Abs format (unit mm)*
G04 Created by KiCad (PCBNEW (5.0.2)-1) date 5/18/2019 11:58:48 PM*
%MOMM*%
%LPD*%
G01*
G04 APERTURE LIST*
%ADD10C,0.150000*%
%ADD11C,0.200000*%
G04 APERTURE END LIST*
D10*
X150000000Y-130000000D02*
X195000000Y-130000000D01*
X150000000Y-120000000D02*
X195000000Y-120000000D01*
X150000000Y-110000000D02*
X195000000Y-110000000D01*
X150000000Y-100000000D02*
X195000000Y-100000000D01*
X150000000Y-90000000D02*
X195000000Y-90000000D01*
X150000000Y-80000000D02*
X195000000Y-80000000D01*
X150000000Y-70000000D02*
X195000000Y-70000000D01*
X85000000Y-130000000D02*
X130000000Y-130000000D01*
X85000000Y-120000000D02*
X130000000Y-120000000D01*
X85000000Y-110000000D02*
X130000000Y-110000000D01*
X85000000Y-100000000D02*
X130000000Y-100000000D01*
X85000000Y-90000000D02*
X130000000Y-90000000D01*
X85000000Y-80000000D02*
X130000000Y-80000000D01*
X85000000Y-70000000D02*
X130000000Y-70000000D01*
X150000000Y-60000000D02*
X195000000Y-60000000D01*
D11*
X130000000Y-140000000D02*
X130000000Y-50000000D01*
X150000000Y-50000000D02*
X150000000Y-140000000D01*
D10*
X85000000Y-140000000D02*
X195000000Y-140000000D01*
X85000000Y-60000000D02*
X130000000Y-60000000D01*
X85000000Y-50000000D02*
X195000000Y-50000000D01*
X90000000Y-145000000D02*
X190000000Y-145000000D01*
X90000000Y-45000000D02*
X190000000Y-45000000D01*
X90000000Y-45000000D02*
X90000000Y-145000000D01*
X190000000Y-45000000D02*
X190000000Y-145000000D01*
M02*
