G04 #@! TF.GenerationSoftware,KiCad,Pcbnew,(5.0.2)-1*
G04 #@! TF.CreationDate,2019-05-18T23:58:48-05:00*
G04 #@! TF.ProjectId,pixelote,70697865-6c6f-4746-952e-6b696361645f,rev?*
G04 #@! TF.SameCoordinates,Original*
G04 #@! TF.FileFunction,Legend,Top*
G04 #@! TF.FilePolarity,Positive*
%FSLAX46Y46*%
G04 Gerber Fmt 4.6, Leading zero omitted, Abs format (unit mm)*
G04 Created by KiCad (PCBNEW (5.0.2)-1) date 5/18/2019 11:58:48 PM*
%MOMM*%
%LPD*%
G01*
G04 APERTURE LIST*
%ADD10C,0.300000*%
%ADD11C,0.150000*%
%ADD12C,0.200000*%
%ADD13C,0.400000*%
%ADD14C,0.120000*%
G04 APERTURE END LIST*
D10*
X133071428Y-141678571D02*
X133071428Y-142750000D01*
X133000000Y-142964285D01*
X132857142Y-143107142D01*
X132642857Y-143178571D01*
X132500000Y-143178571D01*
X134500000Y-143178571D02*
X133785714Y-143178571D01*
X133785714Y-141678571D01*
X135857142Y-143035714D02*
X135785714Y-143107142D01*
X135571428Y-143178571D01*
X135428571Y-143178571D01*
X135214285Y-143107142D01*
X135071428Y-142964285D01*
X135000000Y-142821428D01*
X134928571Y-142535714D01*
X134928571Y-142321428D01*
X135000000Y-142035714D01*
X135071428Y-141892857D01*
X135214285Y-141750000D01*
X135428571Y-141678571D01*
X135571428Y-141678571D01*
X135785714Y-141750000D01*
X135857142Y-141821428D01*
X136928571Y-141678571D02*
X136928571Y-142750000D01*
X136857142Y-142964285D01*
X136714285Y-143107142D01*
X136500000Y-143178571D01*
X136357142Y-143178571D01*
X138357142Y-143178571D02*
X137642857Y-143178571D01*
X137642857Y-141678571D01*
X139714285Y-143035714D02*
X139642857Y-143107142D01*
X139428571Y-143178571D01*
X139285714Y-143178571D01*
X139071428Y-143107142D01*
X138928571Y-142964285D01*
X138857142Y-142821428D01*
X138785714Y-142535714D01*
X138785714Y-142321428D01*
X138857142Y-142035714D01*
X138928571Y-141892857D01*
X139071428Y-141750000D01*
X139285714Y-141678571D01*
X139428571Y-141678571D01*
X139642857Y-141750000D01*
X139714285Y-141821428D01*
X140785714Y-141678571D02*
X140785714Y-142750000D01*
X140714285Y-142964285D01*
X140571428Y-143107142D01*
X140357142Y-143178571D01*
X140214285Y-143178571D01*
X142214285Y-143178571D02*
X141500000Y-143178571D01*
X141500000Y-141678571D01*
X143571428Y-143035714D02*
X143500000Y-143107142D01*
X143285714Y-143178571D01*
X143142857Y-143178571D01*
X142928571Y-143107142D01*
X142785714Y-142964285D01*
X142714285Y-142821428D01*
X142642857Y-142535714D01*
X142642857Y-142321428D01*
X142714285Y-142035714D01*
X142785714Y-141892857D01*
X142928571Y-141750000D01*
X143142857Y-141678571D01*
X143285714Y-141678571D01*
X143500000Y-141750000D01*
X143571428Y-141821428D01*
X144642857Y-141678571D02*
X144642857Y-142750000D01*
X144571428Y-142964285D01*
X144428571Y-143107142D01*
X144214285Y-143178571D01*
X144071428Y-143178571D01*
X146071428Y-143178571D02*
X145357142Y-143178571D01*
X145357142Y-141678571D01*
X147428571Y-143035714D02*
X147357142Y-143107142D01*
X147142857Y-143178571D01*
X147000000Y-143178571D01*
X146785714Y-143107142D01*
X146642857Y-142964285D01*
X146571428Y-142821428D01*
X146500000Y-142535714D01*
X146500000Y-142321428D01*
X146571428Y-142035714D01*
X146642857Y-141892857D01*
X146785714Y-141750000D01*
X147000000Y-141678571D01*
X147142857Y-141678571D01*
X147357142Y-141750000D01*
X147428571Y-141821428D01*
D11*
G36*
X186450000Y-134400000D02*
X186450000Y-135400000D01*
X186950000Y-134900000D01*
X186450000Y-134400000D01*
G37*
X186450000Y-134400000D02*
X186450000Y-135400000D01*
X186950000Y-134900000D01*
X186450000Y-134400000D01*
G36*
X126450000Y-134400000D02*
X126450000Y-135400000D01*
X126950000Y-134900000D01*
X126450000Y-134400000D01*
G37*
X126450000Y-134400000D02*
X126450000Y-135400000D01*
X126950000Y-134900000D01*
X126450000Y-134400000D01*
G36*
X186450000Y-124400000D02*
X186450000Y-125400000D01*
X186950000Y-124900000D01*
X186450000Y-124400000D01*
G37*
X186450000Y-124400000D02*
X186450000Y-125400000D01*
X186950000Y-124900000D01*
X186450000Y-124400000D01*
G36*
X126450000Y-124400000D02*
X126450000Y-125400000D01*
X126950000Y-124900000D01*
X126450000Y-124400000D01*
G37*
X126450000Y-124400000D02*
X126450000Y-125400000D01*
X126950000Y-124900000D01*
X126450000Y-124400000D01*
G36*
X186450000Y-114400000D02*
X186450000Y-115400000D01*
X186950000Y-114900000D01*
X186450000Y-114400000D01*
G37*
X186450000Y-114400000D02*
X186450000Y-115400000D01*
X186950000Y-114900000D01*
X186450000Y-114400000D01*
G36*
X126450000Y-114400000D02*
X126450000Y-115400000D01*
X126950000Y-114900000D01*
X126450000Y-114400000D01*
G37*
X126450000Y-114400000D02*
X126450000Y-115400000D01*
X126950000Y-114900000D01*
X126450000Y-114400000D01*
G36*
X186450000Y-104400000D02*
X186450000Y-105400000D01*
X186950000Y-104900000D01*
X186450000Y-104400000D01*
G37*
X186450000Y-104400000D02*
X186450000Y-105400000D01*
X186950000Y-104900000D01*
X186450000Y-104400000D01*
G36*
X126450000Y-104400000D02*
X126450000Y-105400000D01*
X126950000Y-104900000D01*
X126450000Y-104400000D01*
G37*
X126450000Y-104400000D02*
X126450000Y-105400000D01*
X126950000Y-104900000D01*
X126450000Y-104400000D01*
G36*
X186450000Y-94400000D02*
X186450000Y-95400000D01*
X186950000Y-94900000D01*
X186450000Y-94400000D01*
G37*
X186450000Y-94400000D02*
X186450000Y-95400000D01*
X186950000Y-94900000D01*
X186450000Y-94400000D01*
G36*
X126450000Y-94400000D02*
X126450000Y-95400000D01*
X126950000Y-94900000D01*
X126450000Y-94400000D01*
G37*
X126450000Y-94400000D02*
X126450000Y-95400000D01*
X126950000Y-94900000D01*
X126450000Y-94400000D01*
G36*
X186450000Y-84400000D02*
X186450000Y-85400000D01*
X186950000Y-84900000D01*
X186450000Y-84400000D01*
G37*
X186450000Y-84400000D02*
X186450000Y-85400000D01*
X186950000Y-84900000D01*
X186450000Y-84400000D01*
G36*
X126450000Y-84400000D02*
X126450000Y-85400000D01*
X126950000Y-84900000D01*
X126450000Y-84400000D01*
G37*
X126450000Y-84400000D02*
X126450000Y-85400000D01*
X126950000Y-84900000D01*
X126450000Y-84400000D01*
G36*
X186450000Y-74400000D02*
X186450000Y-75400000D01*
X186950000Y-74900000D01*
X186450000Y-74400000D01*
G37*
X186450000Y-74400000D02*
X186450000Y-75400000D01*
X186950000Y-74900000D01*
X186450000Y-74400000D01*
G36*
X126450000Y-74400000D02*
X126450000Y-75400000D01*
X126950000Y-74900000D01*
X126450000Y-74400000D01*
G37*
X126450000Y-74400000D02*
X126450000Y-75400000D01*
X126950000Y-74900000D01*
X126450000Y-74400000D01*
G36*
X186450000Y-64400000D02*
X186450000Y-65400000D01*
X186950000Y-64900000D01*
X186450000Y-64400000D01*
G37*
X186450000Y-64400000D02*
X186450000Y-65400000D01*
X186950000Y-64900000D01*
X186450000Y-64400000D01*
G36*
X126450000Y-64400000D02*
X126450000Y-65400000D01*
X126950000Y-64900000D01*
X126450000Y-64400000D01*
G37*
X126450000Y-64400000D02*
X126450000Y-65400000D01*
X126950000Y-64900000D01*
X126450000Y-64400000D01*
G36*
X186450000Y-54400000D02*
X186450000Y-55400000D01*
X186950000Y-54900000D01*
X186450000Y-54400000D01*
G37*
X186450000Y-54400000D02*
X186450000Y-55400000D01*
X186950000Y-54900000D01*
X186450000Y-54400000D01*
D12*
X186600000Y-132000000D02*
X186600000Y-132700000D01*
X126600000Y-132000000D02*
X126600000Y-132700000D01*
X186600000Y-122000000D02*
X186600000Y-122700000D01*
X126600000Y-122000000D02*
X126600000Y-122700000D01*
X186600000Y-112000000D02*
X186600000Y-112700000D01*
X126600000Y-112000000D02*
X126600000Y-112700000D01*
X186600000Y-102000000D02*
X186600000Y-102700000D01*
X126600000Y-102000000D02*
X126600000Y-102700000D01*
X186600000Y-92000000D02*
X186600000Y-92700000D01*
X126600000Y-92000000D02*
X126600000Y-92700000D01*
X186600000Y-82000000D02*
X186600000Y-82700000D01*
X126600000Y-82000000D02*
X126600000Y-82700000D01*
X186600000Y-72000000D02*
X186600000Y-72700000D01*
X126600000Y-72000000D02*
X126600000Y-72700000D01*
X186600000Y-62000000D02*
X186600000Y-62700000D01*
X126600000Y-62000000D02*
X126600000Y-62700000D01*
X186600000Y-52000000D02*
X186600000Y-52700000D01*
D13*
X182200000Y-134950000D02*
X181500000Y-134300000D01*
X122200000Y-134950000D02*
X121500000Y-134300000D01*
X182200000Y-124950000D02*
X181500000Y-124300000D01*
X122200000Y-124950000D02*
X121500000Y-124300000D01*
X182200000Y-114950000D02*
X181500000Y-114300000D01*
X122200000Y-114950000D02*
X121500000Y-114300000D01*
X182200000Y-104950000D02*
X181500000Y-104300000D01*
X122200000Y-104950000D02*
X121500000Y-104300000D01*
X182200000Y-94950000D02*
X181500000Y-94300000D01*
X122200000Y-94950000D02*
X121500000Y-94300000D01*
X182200000Y-84950000D02*
X181500000Y-84300000D01*
X122200000Y-84950000D02*
X121500000Y-84300000D01*
X182200000Y-74950000D02*
X181500000Y-74300000D01*
X122200000Y-74950000D02*
X121500000Y-74300000D01*
X182200000Y-64950000D02*
X181500000Y-64300000D01*
X122200000Y-64950000D02*
X121500000Y-64300000D01*
X182200000Y-54950000D02*
X181500000Y-54300000D01*
D12*
X153750000Y-137100000D02*
X153750000Y-137800000D01*
X93750000Y-137100000D02*
X93750000Y-137800000D01*
X153750000Y-127100000D02*
X153750000Y-127800000D01*
X93750000Y-127100000D02*
X93750000Y-127800000D01*
X153750000Y-117100000D02*
X153750000Y-117800000D01*
X93750000Y-117100000D02*
X93750000Y-117800000D01*
X153750000Y-107100000D02*
X153750000Y-107800000D01*
X93750000Y-107100000D02*
X93750000Y-107800000D01*
X153750000Y-97100000D02*
X153750000Y-97800000D01*
X93750000Y-97100000D02*
X93750000Y-97800000D01*
X153750000Y-87100000D02*
X153750000Y-87800000D01*
X93750000Y-87100000D02*
X93750000Y-87800000D01*
X153750000Y-77100000D02*
X153750000Y-77800000D01*
X93750000Y-77100000D02*
X93750000Y-77800000D01*
X153750000Y-67100000D02*
X153750000Y-67800000D01*
X93750000Y-67100000D02*
X93750000Y-67800000D01*
X153750000Y-57100000D02*
X153750000Y-57800000D01*
D11*
G36*
X153550000Y-134400000D02*
X153550000Y-135400000D01*
X154050000Y-134900000D01*
X153550000Y-134400000D01*
G37*
X153550000Y-134400000D02*
X153550000Y-135400000D01*
X154050000Y-134900000D01*
X153550000Y-134400000D01*
G36*
X93550000Y-134400000D02*
X93550000Y-135400000D01*
X94050000Y-134900000D01*
X93550000Y-134400000D01*
G37*
X93550000Y-134400000D02*
X93550000Y-135400000D01*
X94050000Y-134900000D01*
X93550000Y-134400000D01*
G36*
X153550000Y-124400000D02*
X153550000Y-125400000D01*
X154050000Y-124900000D01*
X153550000Y-124400000D01*
G37*
X153550000Y-124400000D02*
X153550000Y-125400000D01*
X154050000Y-124900000D01*
X153550000Y-124400000D01*
G36*
X93550000Y-124400000D02*
X93550000Y-125400000D01*
X94050000Y-124900000D01*
X93550000Y-124400000D01*
G37*
X93550000Y-124400000D02*
X93550000Y-125400000D01*
X94050000Y-124900000D01*
X93550000Y-124400000D01*
G36*
X153550000Y-114400000D02*
X153550000Y-115400000D01*
X154050000Y-114900000D01*
X153550000Y-114400000D01*
G37*
X153550000Y-114400000D02*
X153550000Y-115400000D01*
X154050000Y-114900000D01*
X153550000Y-114400000D01*
G36*
X93550000Y-114400000D02*
X93550000Y-115400000D01*
X94050000Y-114900000D01*
X93550000Y-114400000D01*
G37*
X93550000Y-114400000D02*
X93550000Y-115400000D01*
X94050000Y-114900000D01*
X93550000Y-114400000D01*
G36*
X153550000Y-104400000D02*
X153550000Y-105400000D01*
X154050000Y-104900000D01*
X153550000Y-104400000D01*
G37*
X153550000Y-104400000D02*
X153550000Y-105400000D01*
X154050000Y-104900000D01*
X153550000Y-104400000D01*
G36*
X93550000Y-104400000D02*
X93550000Y-105400000D01*
X94050000Y-104900000D01*
X93550000Y-104400000D01*
G37*
X93550000Y-104400000D02*
X93550000Y-105400000D01*
X94050000Y-104900000D01*
X93550000Y-104400000D01*
G36*
X153550000Y-94400000D02*
X153550000Y-95400000D01*
X154050000Y-94900000D01*
X153550000Y-94400000D01*
G37*
X153550000Y-94400000D02*
X153550000Y-95400000D01*
X154050000Y-94900000D01*
X153550000Y-94400000D01*
G36*
X93550000Y-94400000D02*
X93550000Y-95400000D01*
X94050000Y-94900000D01*
X93550000Y-94400000D01*
G37*
X93550000Y-94400000D02*
X93550000Y-95400000D01*
X94050000Y-94900000D01*
X93550000Y-94400000D01*
G36*
X153550000Y-84400000D02*
X153550000Y-85400000D01*
X154050000Y-84900000D01*
X153550000Y-84400000D01*
G37*
X153550000Y-84400000D02*
X153550000Y-85400000D01*
X154050000Y-84900000D01*
X153550000Y-84400000D01*
G36*
X93550000Y-84400000D02*
X93550000Y-85400000D01*
X94050000Y-84900000D01*
X93550000Y-84400000D01*
G37*
X93550000Y-84400000D02*
X93550000Y-85400000D01*
X94050000Y-84900000D01*
X93550000Y-84400000D01*
G36*
X153550000Y-74400000D02*
X153550000Y-75400000D01*
X154050000Y-74900000D01*
X153550000Y-74400000D01*
G37*
X153550000Y-74400000D02*
X153550000Y-75400000D01*
X154050000Y-74900000D01*
X153550000Y-74400000D01*
G36*
X93550000Y-74400000D02*
X93550000Y-75400000D01*
X94050000Y-74900000D01*
X93550000Y-74400000D01*
G37*
X93550000Y-74400000D02*
X93550000Y-75400000D01*
X94050000Y-74900000D01*
X93550000Y-74400000D01*
G36*
X153550000Y-64400000D02*
X153550000Y-65400000D01*
X154050000Y-64900000D01*
X153550000Y-64400000D01*
G37*
X153550000Y-64400000D02*
X153550000Y-65400000D01*
X154050000Y-64900000D01*
X153550000Y-64400000D01*
G36*
X93550000Y-64400000D02*
X93550000Y-65400000D01*
X94050000Y-64900000D01*
X93550000Y-64400000D01*
G37*
X93550000Y-64400000D02*
X93550000Y-65400000D01*
X94050000Y-64900000D01*
X93550000Y-64400000D01*
G36*
X153550000Y-54400000D02*
X153550000Y-55400000D01*
X154050000Y-54900000D01*
X153550000Y-54400000D01*
G37*
X153550000Y-54400000D02*
X153550000Y-55400000D01*
X154050000Y-54900000D01*
X153550000Y-54400000D01*
D12*
X186600000Y-137100000D02*
X186600000Y-137800000D01*
X126600000Y-137100000D02*
X126600000Y-137800000D01*
X186600000Y-127100000D02*
X186600000Y-127800000D01*
X126600000Y-127100000D02*
X126600000Y-127800000D01*
X186600000Y-117100000D02*
X186600000Y-117800000D01*
X126600000Y-117100000D02*
X126600000Y-117800000D01*
X186600000Y-107100000D02*
X186600000Y-107800000D01*
X126600000Y-107100000D02*
X126600000Y-107800000D01*
X186600000Y-97100000D02*
X186600000Y-97800000D01*
X126600000Y-97100000D02*
X126600000Y-97800000D01*
X186600000Y-87100000D02*
X186600000Y-87800000D01*
X126600000Y-87100000D02*
X126600000Y-87800000D01*
X186600000Y-77100000D02*
X186600000Y-77800000D01*
X126600000Y-77100000D02*
X126600000Y-77800000D01*
X186600000Y-67100000D02*
X186600000Y-67800000D01*
X126600000Y-67100000D02*
X126600000Y-67800000D01*
X186600000Y-57100000D02*
X186600000Y-57800000D01*
X186250000Y-137450000D02*
X186950000Y-137450000D01*
X126250000Y-137450000D02*
X126950000Y-137450000D01*
X186250000Y-127450000D02*
X186950000Y-127450000D01*
X126250000Y-127450000D02*
X126950000Y-127450000D01*
X186250000Y-117450000D02*
X186950000Y-117450000D01*
X126250000Y-117450000D02*
X126950000Y-117450000D01*
X186250000Y-107450000D02*
X186950000Y-107450000D01*
X126250000Y-107450000D02*
X126950000Y-107450000D01*
X186250000Y-97450000D02*
X186950000Y-97450000D01*
X126250000Y-97450000D02*
X126950000Y-97450000D01*
X186250000Y-87450000D02*
X186950000Y-87450000D01*
X126250000Y-87450000D02*
X126950000Y-87450000D01*
X186250000Y-77450000D02*
X186950000Y-77450000D01*
X126250000Y-77450000D02*
X126950000Y-77450000D01*
X186250000Y-67450000D02*
X186950000Y-67450000D01*
X126250000Y-67450000D02*
X126950000Y-67450000D01*
X186250000Y-57450000D02*
X186950000Y-57450000D01*
D13*
X180600000Y-134950000D02*
X182100000Y-134950000D01*
X120600000Y-134950000D02*
X122100000Y-134950000D01*
X180600000Y-124950000D02*
X182100000Y-124950000D01*
X120600000Y-124950000D02*
X122100000Y-124950000D01*
X180600000Y-114950000D02*
X182100000Y-114950000D01*
X120600000Y-114950000D02*
X122100000Y-114950000D01*
X180600000Y-104950000D02*
X182100000Y-104950000D01*
X120600000Y-104950000D02*
X122100000Y-104950000D01*
X180600000Y-94950000D02*
X182100000Y-94950000D01*
X120600000Y-94950000D02*
X122100000Y-94950000D01*
X180600000Y-84950000D02*
X182100000Y-84950000D01*
X120600000Y-84950000D02*
X122100000Y-84950000D01*
X180600000Y-74950000D02*
X182100000Y-74950000D01*
X120600000Y-74950000D02*
X122100000Y-74950000D01*
X180600000Y-64950000D02*
X182100000Y-64950000D01*
X120600000Y-64950000D02*
X122100000Y-64950000D01*
X180600000Y-54950000D02*
X182100000Y-54950000D01*
D12*
X153750000Y-132000000D02*
X153750000Y-132700000D01*
X93750000Y-132000000D02*
X93750000Y-132700000D01*
X153750000Y-122000000D02*
X153750000Y-122700000D01*
X93750000Y-122000000D02*
X93750000Y-122700000D01*
X153750000Y-112000000D02*
X153750000Y-112700000D01*
X93750000Y-112000000D02*
X93750000Y-112700000D01*
X153750000Y-102000000D02*
X153750000Y-102700000D01*
X93750000Y-102000000D02*
X93750000Y-102700000D01*
X153750000Y-92000000D02*
X153750000Y-92700000D01*
X93750000Y-92000000D02*
X93750000Y-92700000D01*
X153750000Y-82000000D02*
X153750000Y-82700000D01*
X93750000Y-82000000D02*
X93750000Y-82700000D01*
X153750000Y-72000000D02*
X153750000Y-72700000D01*
X93750000Y-72000000D02*
X93750000Y-72700000D01*
X153750000Y-62000000D02*
X153750000Y-62700000D01*
X93750000Y-62000000D02*
X93750000Y-62700000D01*
X153750000Y-52000000D02*
X153750000Y-52700000D01*
X153400000Y-137450000D02*
X154100000Y-137450000D01*
X93400000Y-137450000D02*
X94100000Y-137450000D01*
X153400000Y-127450000D02*
X154100000Y-127450000D01*
X93400000Y-127450000D02*
X94100000Y-127450000D01*
X153400000Y-117450000D02*
X154100000Y-117450000D01*
X93400000Y-117450000D02*
X94100000Y-117450000D01*
X153400000Y-107450000D02*
X154100000Y-107450000D01*
X93400000Y-107450000D02*
X94100000Y-107450000D01*
X153400000Y-97450000D02*
X154100000Y-97450000D01*
X93400000Y-97450000D02*
X94100000Y-97450000D01*
X153400000Y-87450000D02*
X154100000Y-87450000D01*
X93400000Y-87450000D02*
X94100000Y-87450000D01*
X153400000Y-77450000D02*
X154100000Y-77450000D01*
X93400000Y-77450000D02*
X94100000Y-77450000D01*
X153400000Y-67450000D02*
X154100000Y-67450000D01*
X93400000Y-67450000D02*
X94100000Y-67450000D01*
X153400000Y-57450000D02*
X154100000Y-57450000D01*
D13*
X182200000Y-134950000D02*
X181500000Y-135600000D01*
X122200000Y-134950000D02*
X121500000Y-135600000D01*
X182200000Y-124950000D02*
X181500000Y-125600000D01*
X122200000Y-124950000D02*
X121500000Y-125600000D01*
X182200000Y-114950000D02*
X181500000Y-115600000D01*
X122200000Y-114950000D02*
X121500000Y-115600000D01*
X182200000Y-104950000D02*
X181500000Y-105600000D01*
X122200000Y-104950000D02*
X121500000Y-105600000D01*
X182200000Y-94950000D02*
X181500000Y-95600000D01*
X122200000Y-94950000D02*
X121500000Y-95600000D01*
X182200000Y-84950000D02*
X181500000Y-85600000D01*
X122200000Y-84950000D02*
X121500000Y-85600000D01*
X182200000Y-74950000D02*
X181500000Y-75600000D01*
X122200000Y-74950000D02*
X121500000Y-75600000D01*
X182200000Y-64950000D02*
X181500000Y-65600000D01*
X122200000Y-64950000D02*
X121500000Y-65600000D01*
X182200000Y-54950000D02*
X181500000Y-55600000D01*
X122200000Y-54950000D02*
X121500000Y-55600000D01*
X122200000Y-54950000D02*
X121500000Y-54300000D01*
X120600000Y-54950000D02*
X122100000Y-54950000D01*
D12*
X126250000Y-57450000D02*
X126950000Y-57450000D01*
X126600000Y-52000000D02*
X126600000Y-52700000D01*
X126600000Y-57100000D02*
X126600000Y-57800000D01*
X93400000Y-57450000D02*
X94100000Y-57450000D01*
X93750000Y-57100000D02*
X93750000Y-57800000D01*
X93750000Y-52000000D02*
X93750000Y-52700000D01*
D11*
G36*
X126450000Y-54400000D02*
X126450000Y-55400000D01*
X126950000Y-54900000D01*
X126450000Y-54400000D01*
G37*
X126450000Y-54400000D02*
X126450000Y-55400000D01*
X126950000Y-54900000D01*
X126450000Y-54400000D01*
G36*
X93550000Y-54400000D02*
X93550000Y-55400000D01*
X94050000Y-54900000D01*
X93550000Y-54400000D01*
G37*
X93550000Y-54400000D02*
X93550000Y-55400000D01*
X94050000Y-54900000D01*
X93550000Y-54400000D01*
D14*
G04 #@! TO.C,R4*
X159560000Y-132637221D02*
X159560000Y-132962779D01*
X158540000Y-132637221D02*
X158540000Y-132962779D01*
X99560000Y-132637221D02*
X99560000Y-132962779D01*
X98540000Y-132637221D02*
X98540000Y-132962779D01*
X159560000Y-122637221D02*
X159560000Y-122962779D01*
X158540000Y-122637221D02*
X158540000Y-122962779D01*
X99560000Y-122637221D02*
X99560000Y-122962779D01*
X98540000Y-122637221D02*
X98540000Y-122962779D01*
X159560000Y-112637221D02*
X159560000Y-112962779D01*
X158540000Y-112637221D02*
X158540000Y-112962779D01*
X99560000Y-112637221D02*
X99560000Y-112962779D01*
X98540000Y-112637221D02*
X98540000Y-112962779D01*
X159560000Y-102637221D02*
X159560000Y-102962779D01*
X158540000Y-102637221D02*
X158540000Y-102962779D01*
X99560000Y-102637221D02*
X99560000Y-102962779D01*
X98540000Y-102637221D02*
X98540000Y-102962779D01*
X159560000Y-92637221D02*
X159560000Y-92962779D01*
X158540000Y-92637221D02*
X158540000Y-92962779D01*
X99560000Y-92637221D02*
X99560000Y-92962779D01*
X98540000Y-92637221D02*
X98540000Y-92962779D01*
X159560000Y-82637221D02*
X159560000Y-82962779D01*
X158540000Y-82637221D02*
X158540000Y-82962779D01*
X99560000Y-82637221D02*
X99560000Y-82962779D01*
X98540000Y-82637221D02*
X98540000Y-82962779D01*
X159560000Y-72637221D02*
X159560000Y-72962779D01*
X158540000Y-72637221D02*
X158540000Y-72962779D01*
X99560000Y-72637221D02*
X99560000Y-72962779D01*
X98540000Y-72637221D02*
X98540000Y-72962779D01*
X159560000Y-62637221D02*
X159560000Y-62962779D01*
X158540000Y-62637221D02*
X158540000Y-62962779D01*
X99560000Y-62637221D02*
X99560000Y-62962779D01*
X98540000Y-62637221D02*
X98540000Y-62962779D01*
X159560000Y-52637221D02*
X159560000Y-52962779D01*
X158540000Y-52637221D02*
X158540000Y-52962779D01*
G04 #@! TO.C,R1*
X158540000Y-136762779D02*
X158540000Y-136437221D01*
X159560000Y-136762779D02*
X159560000Y-136437221D01*
X98540000Y-136762779D02*
X98540000Y-136437221D01*
X99560000Y-136762779D02*
X99560000Y-136437221D01*
X158540000Y-126762779D02*
X158540000Y-126437221D01*
X159560000Y-126762779D02*
X159560000Y-126437221D01*
X98540000Y-126762779D02*
X98540000Y-126437221D01*
X99560000Y-126762779D02*
X99560000Y-126437221D01*
X158540000Y-116762779D02*
X158540000Y-116437221D01*
X159560000Y-116762779D02*
X159560000Y-116437221D01*
X98540000Y-116762779D02*
X98540000Y-116437221D01*
X99560000Y-116762779D02*
X99560000Y-116437221D01*
X158540000Y-106762779D02*
X158540000Y-106437221D01*
X159560000Y-106762779D02*
X159560000Y-106437221D01*
X98540000Y-106762779D02*
X98540000Y-106437221D01*
X99560000Y-106762779D02*
X99560000Y-106437221D01*
X158540000Y-96762779D02*
X158540000Y-96437221D01*
X159560000Y-96762779D02*
X159560000Y-96437221D01*
X98540000Y-96762779D02*
X98540000Y-96437221D01*
X99560000Y-96762779D02*
X99560000Y-96437221D01*
X158540000Y-86762779D02*
X158540000Y-86437221D01*
X159560000Y-86762779D02*
X159560000Y-86437221D01*
X98540000Y-86762779D02*
X98540000Y-86437221D01*
X99560000Y-86762779D02*
X99560000Y-86437221D01*
X158540000Y-76762779D02*
X158540000Y-76437221D01*
X159560000Y-76762779D02*
X159560000Y-76437221D01*
X98540000Y-76762779D02*
X98540000Y-76437221D01*
X99560000Y-76762779D02*
X99560000Y-76437221D01*
X158540000Y-66762779D02*
X158540000Y-66437221D01*
X159560000Y-66762779D02*
X159560000Y-66437221D01*
X98540000Y-66762779D02*
X98540000Y-66437221D01*
X99560000Y-66762779D02*
X99560000Y-66437221D01*
X158540000Y-56762779D02*
X158540000Y-56437221D01*
X159560000Y-56762779D02*
X159560000Y-56437221D01*
G04 #@! TO.C,R3*
X166440000Y-136762779D02*
X166440000Y-136437221D01*
X167460000Y-136762779D02*
X167460000Y-136437221D01*
X106440000Y-136762779D02*
X106440000Y-136437221D01*
X107460000Y-136762779D02*
X107460000Y-136437221D01*
X166440000Y-126762779D02*
X166440000Y-126437221D01*
X167460000Y-126762779D02*
X167460000Y-126437221D01*
X106440000Y-126762779D02*
X106440000Y-126437221D01*
X107460000Y-126762779D02*
X107460000Y-126437221D01*
X166440000Y-116762779D02*
X166440000Y-116437221D01*
X167460000Y-116762779D02*
X167460000Y-116437221D01*
X106440000Y-116762779D02*
X106440000Y-116437221D01*
X107460000Y-116762779D02*
X107460000Y-116437221D01*
X166440000Y-106762779D02*
X166440000Y-106437221D01*
X167460000Y-106762779D02*
X167460000Y-106437221D01*
X106440000Y-106762779D02*
X106440000Y-106437221D01*
X107460000Y-106762779D02*
X107460000Y-106437221D01*
X166440000Y-96762779D02*
X166440000Y-96437221D01*
X167460000Y-96762779D02*
X167460000Y-96437221D01*
X106440000Y-96762779D02*
X106440000Y-96437221D01*
X107460000Y-96762779D02*
X107460000Y-96437221D01*
X166440000Y-86762779D02*
X166440000Y-86437221D01*
X167460000Y-86762779D02*
X167460000Y-86437221D01*
X106440000Y-86762779D02*
X106440000Y-86437221D01*
X107460000Y-86762779D02*
X107460000Y-86437221D01*
X166440000Y-76762779D02*
X166440000Y-76437221D01*
X167460000Y-76762779D02*
X167460000Y-76437221D01*
X106440000Y-76762779D02*
X106440000Y-76437221D01*
X107460000Y-76762779D02*
X107460000Y-76437221D01*
X166440000Y-66762779D02*
X166440000Y-66437221D01*
X167460000Y-66762779D02*
X167460000Y-66437221D01*
X106440000Y-66762779D02*
X106440000Y-66437221D01*
X107460000Y-66762779D02*
X107460000Y-66437221D01*
X166440000Y-56762779D02*
X166440000Y-56437221D01*
X167460000Y-56762779D02*
X167460000Y-56437221D01*
G04 #@! TO.C,J2*
X189580000Y-131030000D02*
X186920000Y-131030000D01*
X189580000Y-136170000D02*
X189580000Y-131030000D01*
X186920000Y-136170000D02*
X186920000Y-131030000D01*
X189580000Y-136170000D02*
X186920000Y-136170000D01*
X189580000Y-137440000D02*
X189580000Y-138770000D01*
X189580000Y-138770000D02*
X188250000Y-138770000D01*
X129580000Y-131030000D02*
X126920000Y-131030000D01*
X129580000Y-136170000D02*
X129580000Y-131030000D01*
X126920000Y-136170000D02*
X126920000Y-131030000D01*
X129580000Y-136170000D02*
X126920000Y-136170000D01*
X129580000Y-137440000D02*
X129580000Y-138770000D01*
X129580000Y-138770000D02*
X128250000Y-138770000D01*
X189580000Y-121030000D02*
X186920000Y-121030000D01*
X189580000Y-126170000D02*
X189580000Y-121030000D01*
X186920000Y-126170000D02*
X186920000Y-121030000D01*
X189580000Y-126170000D02*
X186920000Y-126170000D01*
X189580000Y-127440000D02*
X189580000Y-128770000D01*
X189580000Y-128770000D02*
X188250000Y-128770000D01*
X129580000Y-121030000D02*
X126920000Y-121030000D01*
X129580000Y-126170000D02*
X129580000Y-121030000D01*
X126920000Y-126170000D02*
X126920000Y-121030000D01*
X129580000Y-126170000D02*
X126920000Y-126170000D01*
X129580000Y-127440000D02*
X129580000Y-128770000D01*
X129580000Y-128770000D02*
X128250000Y-128770000D01*
X189580000Y-111030000D02*
X186920000Y-111030000D01*
X189580000Y-116170000D02*
X189580000Y-111030000D01*
X186920000Y-116170000D02*
X186920000Y-111030000D01*
X189580000Y-116170000D02*
X186920000Y-116170000D01*
X189580000Y-117440000D02*
X189580000Y-118770000D01*
X189580000Y-118770000D02*
X188250000Y-118770000D01*
X129580000Y-111030000D02*
X126920000Y-111030000D01*
X129580000Y-116170000D02*
X129580000Y-111030000D01*
X126920000Y-116170000D02*
X126920000Y-111030000D01*
X129580000Y-116170000D02*
X126920000Y-116170000D01*
X129580000Y-117440000D02*
X129580000Y-118770000D01*
X129580000Y-118770000D02*
X128250000Y-118770000D01*
X189580000Y-101030000D02*
X186920000Y-101030000D01*
X189580000Y-106170000D02*
X189580000Y-101030000D01*
X186920000Y-106170000D02*
X186920000Y-101030000D01*
X189580000Y-106170000D02*
X186920000Y-106170000D01*
X189580000Y-107440000D02*
X189580000Y-108770000D01*
X189580000Y-108770000D02*
X188250000Y-108770000D01*
X129580000Y-101030000D02*
X126920000Y-101030000D01*
X129580000Y-106170000D02*
X129580000Y-101030000D01*
X126920000Y-106170000D02*
X126920000Y-101030000D01*
X129580000Y-106170000D02*
X126920000Y-106170000D01*
X129580000Y-107440000D02*
X129580000Y-108770000D01*
X129580000Y-108770000D02*
X128250000Y-108770000D01*
X189580000Y-91030000D02*
X186920000Y-91030000D01*
X189580000Y-96170000D02*
X189580000Y-91030000D01*
X186920000Y-96170000D02*
X186920000Y-91030000D01*
X189580000Y-96170000D02*
X186920000Y-96170000D01*
X189580000Y-97440000D02*
X189580000Y-98770000D01*
X189580000Y-98770000D02*
X188250000Y-98770000D01*
X129580000Y-91030000D02*
X126920000Y-91030000D01*
X129580000Y-96170000D02*
X129580000Y-91030000D01*
X126920000Y-96170000D02*
X126920000Y-91030000D01*
X129580000Y-96170000D02*
X126920000Y-96170000D01*
X129580000Y-97440000D02*
X129580000Y-98770000D01*
X129580000Y-98770000D02*
X128250000Y-98770000D01*
X189580000Y-81030000D02*
X186920000Y-81030000D01*
X189580000Y-86170000D02*
X189580000Y-81030000D01*
X186920000Y-86170000D02*
X186920000Y-81030000D01*
X189580000Y-86170000D02*
X186920000Y-86170000D01*
X189580000Y-87440000D02*
X189580000Y-88770000D01*
X189580000Y-88770000D02*
X188250000Y-88770000D01*
X129580000Y-81030000D02*
X126920000Y-81030000D01*
X129580000Y-86170000D02*
X129580000Y-81030000D01*
X126920000Y-86170000D02*
X126920000Y-81030000D01*
X129580000Y-86170000D02*
X126920000Y-86170000D01*
X129580000Y-87440000D02*
X129580000Y-88770000D01*
X129580000Y-88770000D02*
X128250000Y-88770000D01*
X189580000Y-71030000D02*
X186920000Y-71030000D01*
X189580000Y-76170000D02*
X189580000Y-71030000D01*
X186920000Y-76170000D02*
X186920000Y-71030000D01*
X189580000Y-76170000D02*
X186920000Y-76170000D01*
X189580000Y-77440000D02*
X189580000Y-78770000D01*
X189580000Y-78770000D02*
X188250000Y-78770000D01*
X129580000Y-71030000D02*
X126920000Y-71030000D01*
X129580000Y-76170000D02*
X129580000Y-71030000D01*
X126920000Y-76170000D02*
X126920000Y-71030000D01*
X129580000Y-76170000D02*
X126920000Y-76170000D01*
X129580000Y-77440000D02*
X129580000Y-78770000D01*
X129580000Y-78770000D02*
X128250000Y-78770000D01*
X189580000Y-61030000D02*
X186920000Y-61030000D01*
X189580000Y-66170000D02*
X189580000Y-61030000D01*
X186920000Y-66170000D02*
X186920000Y-61030000D01*
X189580000Y-66170000D02*
X186920000Y-66170000D01*
X189580000Y-67440000D02*
X189580000Y-68770000D01*
X189580000Y-68770000D02*
X188250000Y-68770000D01*
X129580000Y-61030000D02*
X126920000Y-61030000D01*
X129580000Y-66170000D02*
X129580000Y-61030000D01*
X126920000Y-66170000D02*
X126920000Y-61030000D01*
X129580000Y-66170000D02*
X126920000Y-66170000D01*
X129580000Y-67440000D02*
X129580000Y-68770000D01*
X129580000Y-68770000D02*
X128250000Y-68770000D01*
X189580000Y-51030000D02*
X186920000Y-51030000D01*
X189580000Y-56170000D02*
X189580000Y-51030000D01*
X186920000Y-56170000D02*
X186920000Y-51030000D01*
X189580000Y-56170000D02*
X186920000Y-56170000D01*
X189580000Y-57440000D02*
X189580000Y-58770000D01*
X189580000Y-58770000D02*
X188250000Y-58770000D01*
D11*
G04 #@! TO.C,U1*
X165575000Y-132775000D02*
X165525000Y-132775000D01*
X165575000Y-136925000D02*
X165430000Y-136925000D01*
X160425000Y-136925000D02*
X160570000Y-136925000D01*
X160425000Y-132775000D02*
X160570000Y-132775000D01*
X165575000Y-132775000D02*
X165575000Y-136925000D01*
X160425000Y-132775000D02*
X160425000Y-136925000D01*
X165525000Y-132775000D02*
X165525000Y-131375000D01*
X105575000Y-132775000D02*
X105525000Y-132775000D01*
X105575000Y-136925000D02*
X105430000Y-136925000D01*
X100425000Y-136925000D02*
X100570000Y-136925000D01*
X100425000Y-132775000D02*
X100570000Y-132775000D01*
X105575000Y-132775000D02*
X105575000Y-136925000D01*
X100425000Y-132775000D02*
X100425000Y-136925000D01*
X105525000Y-132775000D02*
X105525000Y-131375000D01*
X165575000Y-122775000D02*
X165525000Y-122775000D01*
X165575000Y-126925000D02*
X165430000Y-126925000D01*
X160425000Y-126925000D02*
X160570000Y-126925000D01*
X160425000Y-122775000D02*
X160570000Y-122775000D01*
X165575000Y-122775000D02*
X165575000Y-126925000D01*
X160425000Y-122775000D02*
X160425000Y-126925000D01*
X165525000Y-122775000D02*
X165525000Y-121375000D01*
X105575000Y-122775000D02*
X105525000Y-122775000D01*
X105575000Y-126925000D02*
X105430000Y-126925000D01*
X100425000Y-126925000D02*
X100570000Y-126925000D01*
X100425000Y-122775000D02*
X100570000Y-122775000D01*
X105575000Y-122775000D02*
X105575000Y-126925000D01*
X100425000Y-122775000D02*
X100425000Y-126925000D01*
X105525000Y-122775000D02*
X105525000Y-121375000D01*
X165575000Y-112775000D02*
X165525000Y-112775000D01*
X165575000Y-116925000D02*
X165430000Y-116925000D01*
X160425000Y-116925000D02*
X160570000Y-116925000D01*
X160425000Y-112775000D02*
X160570000Y-112775000D01*
X165575000Y-112775000D02*
X165575000Y-116925000D01*
X160425000Y-112775000D02*
X160425000Y-116925000D01*
X165525000Y-112775000D02*
X165525000Y-111375000D01*
X105575000Y-112775000D02*
X105525000Y-112775000D01*
X105575000Y-116925000D02*
X105430000Y-116925000D01*
X100425000Y-116925000D02*
X100570000Y-116925000D01*
X100425000Y-112775000D02*
X100570000Y-112775000D01*
X105575000Y-112775000D02*
X105575000Y-116925000D01*
X100425000Y-112775000D02*
X100425000Y-116925000D01*
X105525000Y-112775000D02*
X105525000Y-111375000D01*
X165575000Y-102775000D02*
X165525000Y-102775000D01*
X165575000Y-106925000D02*
X165430000Y-106925000D01*
X160425000Y-106925000D02*
X160570000Y-106925000D01*
X160425000Y-102775000D02*
X160570000Y-102775000D01*
X165575000Y-102775000D02*
X165575000Y-106925000D01*
X160425000Y-102775000D02*
X160425000Y-106925000D01*
X165525000Y-102775000D02*
X165525000Y-101375000D01*
X105575000Y-102775000D02*
X105525000Y-102775000D01*
X105575000Y-106925000D02*
X105430000Y-106925000D01*
X100425000Y-106925000D02*
X100570000Y-106925000D01*
X100425000Y-102775000D02*
X100570000Y-102775000D01*
X105575000Y-102775000D02*
X105575000Y-106925000D01*
X100425000Y-102775000D02*
X100425000Y-106925000D01*
X105525000Y-102775000D02*
X105525000Y-101375000D01*
X165575000Y-92775000D02*
X165525000Y-92775000D01*
X165575000Y-96925000D02*
X165430000Y-96925000D01*
X160425000Y-96925000D02*
X160570000Y-96925000D01*
X160425000Y-92775000D02*
X160570000Y-92775000D01*
X165575000Y-92775000D02*
X165575000Y-96925000D01*
X160425000Y-92775000D02*
X160425000Y-96925000D01*
X165525000Y-92775000D02*
X165525000Y-91375000D01*
X105575000Y-92775000D02*
X105525000Y-92775000D01*
X105575000Y-96925000D02*
X105430000Y-96925000D01*
X100425000Y-96925000D02*
X100570000Y-96925000D01*
X100425000Y-92775000D02*
X100570000Y-92775000D01*
X105575000Y-92775000D02*
X105575000Y-96925000D01*
X100425000Y-92775000D02*
X100425000Y-96925000D01*
X105525000Y-92775000D02*
X105525000Y-91375000D01*
X165575000Y-82775000D02*
X165525000Y-82775000D01*
X165575000Y-86925000D02*
X165430000Y-86925000D01*
X160425000Y-86925000D02*
X160570000Y-86925000D01*
X160425000Y-82775000D02*
X160570000Y-82775000D01*
X165575000Y-82775000D02*
X165575000Y-86925000D01*
X160425000Y-82775000D02*
X160425000Y-86925000D01*
X165525000Y-82775000D02*
X165525000Y-81375000D01*
X105575000Y-82775000D02*
X105525000Y-82775000D01*
X105575000Y-86925000D02*
X105430000Y-86925000D01*
X100425000Y-86925000D02*
X100570000Y-86925000D01*
X100425000Y-82775000D02*
X100570000Y-82775000D01*
X105575000Y-82775000D02*
X105575000Y-86925000D01*
X100425000Y-82775000D02*
X100425000Y-86925000D01*
X105525000Y-82775000D02*
X105525000Y-81375000D01*
X165575000Y-72775000D02*
X165525000Y-72775000D01*
X165575000Y-76925000D02*
X165430000Y-76925000D01*
X160425000Y-76925000D02*
X160570000Y-76925000D01*
X160425000Y-72775000D02*
X160570000Y-72775000D01*
X165575000Y-72775000D02*
X165575000Y-76925000D01*
X160425000Y-72775000D02*
X160425000Y-76925000D01*
X165525000Y-72775000D02*
X165525000Y-71375000D01*
X105575000Y-72775000D02*
X105525000Y-72775000D01*
X105575000Y-76925000D02*
X105430000Y-76925000D01*
X100425000Y-76925000D02*
X100570000Y-76925000D01*
X100425000Y-72775000D02*
X100570000Y-72775000D01*
X105575000Y-72775000D02*
X105575000Y-76925000D01*
X100425000Y-72775000D02*
X100425000Y-76925000D01*
X105525000Y-72775000D02*
X105525000Y-71375000D01*
X165575000Y-62775000D02*
X165525000Y-62775000D01*
X165575000Y-66925000D02*
X165430000Y-66925000D01*
X160425000Y-66925000D02*
X160570000Y-66925000D01*
X160425000Y-62775000D02*
X160570000Y-62775000D01*
X165575000Y-62775000D02*
X165575000Y-66925000D01*
X160425000Y-62775000D02*
X160425000Y-66925000D01*
X165525000Y-62775000D02*
X165525000Y-61375000D01*
X105575000Y-62775000D02*
X105525000Y-62775000D01*
X105575000Y-66925000D02*
X105430000Y-66925000D01*
X100425000Y-66925000D02*
X100570000Y-66925000D01*
X100425000Y-62775000D02*
X100570000Y-62775000D01*
X105575000Y-62775000D02*
X105575000Y-66925000D01*
X100425000Y-62775000D02*
X100425000Y-66925000D01*
X105525000Y-62775000D02*
X105525000Y-61375000D01*
X165575000Y-52775000D02*
X165525000Y-52775000D01*
X165575000Y-56925000D02*
X165430000Y-56925000D01*
X160425000Y-56925000D02*
X160570000Y-56925000D01*
X160425000Y-52775000D02*
X160570000Y-52775000D01*
X165575000Y-52775000D02*
X165575000Y-56925000D01*
X160425000Y-52775000D02*
X160425000Y-56925000D01*
X165525000Y-52775000D02*
X165525000Y-51375000D01*
G04 #@! TO.C,D1*
X154100000Y-136750000D02*
X154100000Y-133050000D01*
X157600000Y-136750000D02*
X157600000Y-133050000D01*
X154100000Y-136750000D02*
X154350000Y-136750000D01*
X154100000Y-133050000D02*
X154350000Y-133050000D01*
X157350000Y-133050000D02*
X157600000Y-133050000D01*
X157350000Y-136750000D02*
X157600000Y-136750000D01*
X157350000Y-133050000D02*
X157600000Y-133300000D01*
X94100000Y-136750000D02*
X94100000Y-133050000D01*
X97600000Y-136750000D02*
X97600000Y-133050000D01*
X94100000Y-136750000D02*
X94350000Y-136750000D01*
X94100000Y-133050000D02*
X94350000Y-133050000D01*
X97350000Y-133050000D02*
X97600000Y-133050000D01*
X97350000Y-136750000D02*
X97600000Y-136750000D01*
X97350000Y-133050000D02*
X97600000Y-133300000D01*
X154100000Y-126750000D02*
X154100000Y-123050000D01*
X157600000Y-126750000D02*
X157600000Y-123050000D01*
X154100000Y-126750000D02*
X154350000Y-126750000D01*
X154100000Y-123050000D02*
X154350000Y-123050000D01*
X157350000Y-123050000D02*
X157600000Y-123050000D01*
X157350000Y-126750000D02*
X157600000Y-126750000D01*
X157350000Y-123050000D02*
X157600000Y-123300000D01*
X94100000Y-126750000D02*
X94100000Y-123050000D01*
X97600000Y-126750000D02*
X97600000Y-123050000D01*
X94100000Y-126750000D02*
X94350000Y-126750000D01*
X94100000Y-123050000D02*
X94350000Y-123050000D01*
X97350000Y-123050000D02*
X97600000Y-123050000D01*
X97350000Y-126750000D02*
X97600000Y-126750000D01*
X97350000Y-123050000D02*
X97600000Y-123300000D01*
X154100000Y-116750000D02*
X154100000Y-113050000D01*
X157600000Y-116750000D02*
X157600000Y-113050000D01*
X154100000Y-116750000D02*
X154350000Y-116750000D01*
X154100000Y-113050000D02*
X154350000Y-113050000D01*
X157350000Y-113050000D02*
X157600000Y-113050000D01*
X157350000Y-116750000D02*
X157600000Y-116750000D01*
X157350000Y-113050000D02*
X157600000Y-113300000D01*
X94100000Y-116750000D02*
X94100000Y-113050000D01*
X97600000Y-116750000D02*
X97600000Y-113050000D01*
X94100000Y-116750000D02*
X94350000Y-116750000D01*
X94100000Y-113050000D02*
X94350000Y-113050000D01*
X97350000Y-113050000D02*
X97600000Y-113050000D01*
X97350000Y-116750000D02*
X97600000Y-116750000D01*
X97350000Y-113050000D02*
X97600000Y-113300000D01*
X154100000Y-106750000D02*
X154100000Y-103050000D01*
X157600000Y-106750000D02*
X157600000Y-103050000D01*
X154100000Y-106750000D02*
X154350000Y-106750000D01*
X154100000Y-103050000D02*
X154350000Y-103050000D01*
X157350000Y-103050000D02*
X157600000Y-103050000D01*
X157350000Y-106750000D02*
X157600000Y-106750000D01*
X157350000Y-103050000D02*
X157600000Y-103300000D01*
X94100000Y-106750000D02*
X94100000Y-103050000D01*
X97600000Y-106750000D02*
X97600000Y-103050000D01*
X94100000Y-106750000D02*
X94350000Y-106750000D01*
X94100000Y-103050000D02*
X94350000Y-103050000D01*
X97350000Y-103050000D02*
X97600000Y-103050000D01*
X97350000Y-106750000D02*
X97600000Y-106750000D01*
X97350000Y-103050000D02*
X97600000Y-103300000D01*
X154100000Y-96750000D02*
X154100000Y-93050000D01*
X157600000Y-96750000D02*
X157600000Y-93050000D01*
X154100000Y-96750000D02*
X154350000Y-96750000D01*
X154100000Y-93050000D02*
X154350000Y-93050000D01*
X157350000Y-93050000D02*
X157600000Y-93050000D01*
X157350000Y-96750000D02*
X157600000Y-96750000D01*
X157350000Y-93050000D02*
X157600000Y-93300000D01*
X94100000Y-96750000D02*
X94100000Y-93050000D01*
X97600000Y-96750000D02*
X97600000Y-93050000D01*
X94100000Y-96750000D02*
X94350000Y-96750000D01*
X94100000Y-93050000D02*
X94350000Y-93050000D01*
X97350000Y-93050000D02*
X97600000Y-93050000D01*
X97350000Y-96750000D02*
X97600000Y-96750000D01*
X97350000Y-93050000D02*
X97600000Y-93300000D01*
X154100000Y-86750000D02*
X154100000Y-83050000D01*
X157600000Y-86750000D02*
X157600000Y-83050000D01*
X154100000Y-86750000D02*
X154350000Y-86750000D01*
X154100000Y-83050000D02*
X154350000Y-83050000D01*
X157350000Y-83050000D02*
X157600000Y-83050000D01*
X157350000Y-86750000D02*
X157600000Y-86750000D01*
X157350000Y-83050000D02*
X157600000Y-83300000D01*
X94100000Y-86750000D02*
X94100000Y-83050000D01*
X97600000Y-86750000D02*
X97600000Y-83050000D01*
X94100000Y-86750000D02*
X94350000Y-86750000D01*
X94100000Y-83050000D02*
X94350000Y-83050000D01*
X97350000Y-83050000D02*
X97600000Y-83050000D01*
X97350000Y-86750000D02*
X97600000Y-86750000D01*
X97350000Y-83050000D02*
X97600000Y-83300000D01*
X154100000Y-76750000D02*
X154100000Y-73050000D01*
X157600000Y-76750000D02*
X157600000Y-73050000D01*
X154100000Y-76750000D02*
X154350000Y-76750000D01*
X154100000Y-73050000D02*
X154350000Y-73050000D01*
X157350000Y-73050000D02*
X157600000Y-73050000D01*
X157350000Y-76750000D02*
X157600000Y-76750000D01*
X157350000Y-73050000D02*
X157600000Y-73300000D01*
X94100000Y-76750000D02*
X94100000Y-73050000D01*
X97600000Y-76750000D02*
X97600000Y-73050000D01*
X94100000Y-76750000D02*
X94350000Y-76750000D01*
X94100000Y-73050000D02*
X94350000Y-73050000D01*
X97350000Y-73050000D02*
X97600000Y-73050000D01*
X97350000Y-76750000D02*
X97600000Y-76750000D01*
X97350000Y-73050000D02*
X97600000Y-73300000D01*
X154100000Y-66750000D02*
X154100000Y-63050000D01*
X157600000Y-66750000D02*
X157600000Y-63050000D01*
X154100000Y-66750000D02*
X154350000Y-66750000D01*
X154100000Y-63050000D02*
X154350000Y-63050000D01*
X157350000Y-63050000D02*
X157600000Y-63050000D01*
X157350000Y-66750000D02*
X157600000Y-66750000D01*
X157350000Y-63050000D02*
X157600000Y-63300000D01*
X94100000Y-66750000D02*
X94100000Y-63050000D01*
X97600000Y-66750000D02*
X97600000Y-63050000D01*
X94100000Y-66750000D02*
X94350000Y-66750000D01*
X94100000Y-63050000D02*
X94350000Y-63050000D01*
X97350000Y-63050000D02*
X97600000Y-63050000D01*
X97350000Y-66750000D02*
X97600000Y-66750000D01*
X97350000Y-63050000D02*
X97600000Y-63300000D01*
X154100000Y-56750000D02*
X154100000Y-53050000D01*
X157600000Y-56750000D02*
X157600000Y-53050000D01*
X154100000Y-56750000D02*
X154350000Y-56750000D01*
X154100000Y-53050000D02*
X154350000Y-53050000D01*
X157350000Y-53050000D02*
X157600000Y-53050000D01*
X157350000Y-56750000D02*
X157600000Y-56750000D01*
X157350000Y-53050000D02*
X157600000Y-53300000D01*
D14*
G04 #@! TO.C,C2*
X180060000Y-132140000D02*
X178360000Y-132140000D01*
X174540000Y-132140000D02*
X176240000Y-132140000D01*
X174540000Y-136595563D02*
X174540000Y-132140000D01*
X180060000Y-136595563D02*
X180060000Y-132140000D01*
X178995563Y-137660000D02*
X178360000Y-137660000D01*
X175604437Y-137660000D02*
X176240000Y-137660000D01*
X175604437Y-137660000D02*
X174540000Y-136595563D01*
X178995563Y-137660000D02*
X180060000Y-136595563D01*
X175615000Y-138525000D02*
X175615000Y-137900000D01*
X175302500Y-138212500D02*
X175927500Y-138212500D01*
X120060000Y-132140000D02*
X118360000Y-132140000D01*
X114540000Y-132140000D02*
X116240000Y-132140000D01*
X114540000Y-136595563D02*
X114540000Y-132140000D01*
X120060000Y-136595563D02*
X120060000Y-132140000D01*
X118995563Y-137660000D02*
X118360000Y-137660000D01*
X115604437Y-137660000D02*
X116240000Y-137660000D01*
X115604437Y-137660000D02*
X114540000Y-136595563D01*
X118995563Y-137660000D02*
X120060000Y-136595563D01*
X115615000Y-138525000D02*
X115615000Y-137900000D01*
X115302500Y-138212500D02*
X115927500Y-138212500D01*
X180060000Y-122140000D02*
X178360000Y-122140000D01*
X174540000Y-122140000D02*
X176240000Y-122140000D01*
X174540000Y-126595563D02*
X174540000Y-122140000D01*
X180060000Y-126595563D02*
X180060000Y-122140000D01*
X178995563Y-127660000D02*
X178360000Y-127660000D01*
X175604437Y-127660000D02*
X176240000Y-127660000D01*
X175604437Y-127660000D02*
X174540000Y-126595563D01*
X178995563Y-127660000D02*
X180060000Y-126595563D01*
X175615000Y-128525000D02*
X175615000Y-127900000D01*
X175302500Y-128212500D02*
X175927500Y-128212500D01*
X120060000Y-122140000D02*
X118360000Y-122140000D01*
X114540000Y-122140000D02*
X116240000Y-122140000D01*
X114540000Y-126595563D02*
X114540000Y-122140000D01*
X120060000Y-126595563D02*
X120060000Y-122140000D01*
X118995563Y-127660000D02*
X118360000Y-127660000D01*
X115604437Y-127660000D02*
X116240000Y-127660000D01*
X115604437Y-127660000D02*
X114540000Y-126595563D01*
X118995563Y-127660000D02*
X120060000Y-126595563D01*
X115615000Y-128525000D02*
X115615000Y-127900000D01*
X115302500Y-128212500D02*
X115927500Y-128212500D01*
X180060000Y-112140000D02*
X178360000Y-112140000D01*
X174540000Y-112140000D02*
X176240000Y-112140000D01*
X174540000Y-116595563D02*
X174540000Y-112140000D01*
X180060000Y-116595563D02*
X180060000Y-112140000D01*
X178995563Y-117660000D02*
X178360000Y-117660000D01*
X175604437Y-117660000D02*
X176240000Y-117660000D01*
X175604437Y-117660000D02*
X174540000Y-116595563D01*
X178995563Y-117660000D02*
X180060000Y-116595563D01*
X175615000Y-118525000D02*
X175615000Y-117900000D01*
X175302500Y-118212500D02*
X175927500Y-118212500D01*
X120060000Y-112140000D02*
X118360000Y-112140000D01*
X114540000Y-112140000D02*
X116240000Y-112140000D01*
X114540000Y-116595563D02*
X114540000Y-112140000D01*
X120060000Y-116595563D02*
X120060000Y-112140000D01*
X118995563Y-117660000D02*
X118360000Y-117660000D01*
X115604437Y-117660000D02*
X116240000Y-117660000D01*
X115604437Y-117660000D02*
X114540000Y-116595563D01*
X118995563Y-117660000D02*
X120060000Y-116595563D01*
X115615000Y-118525000D02*
X115615000Y-117900000D01*
X115302500Y-118212500D02*
X115927500Y-118212500D01*
X180060000Y-102140000D02*
X178360000Y-102140000D01*
X174540000Y-102140000D02*
X176240000Y-102140000D01*
X174540000Y-106595563D02*
X174540000Y-102140000D01*
X180060000Y-106595563D02*
X180060000Y-102140000D01*
X178995563Y-107660000D02*
X178360000Y-107660000D01*
X175604437Y-107660000D02*
X176240000Y-107660000D01*
X175604437Y-107660000D02*
X174540000Y-106595563D01*
X178995563Y-107660000D02*
X180060000Y-106595563D01*
X175615000Y-108525000D02*
X175615000Y-107900000D01*
X175302500Y-108212500D02*
X175927500Y-108212500D01*
X120060000Y-102140000D02*
X118360000Y-102140000D01*
X114540000Y-102140000D02*
X116240000Y-102140000D01*
X114540000Y-106595563D02*
X114540000Y-102140000D01*
X120060000Y-106595563D02*
X120060000Y-102140000D01*
X118995563Y-107660000D02*
X118360000Y-107660000D01*
X115604437Y-107660000D02*
X116240000Y-107660000D01*
X115604437Y-107660000D02*
X114540000Y-106595563D01*
X118995563Y-107660000D02*
X120060000Y-106595563D01*
X115615000Y-108525000D02*
X115615000Y-107900000D01*
X115302500Y-108212500D02*
X115927500Y-108212500D01*
X180060000Y-92140000D02*
X178360000Y-92140000D01*
X174540000Y-92140000D02*
X176240000Y-92140000D01*
X174540000Y-96595563D02*
X174540000Y-92140000D01*
X180060000Y-96595563D02*
X180060000Y-92140000D01*
X178995563Y-97660000D02*
X178360000Y-97660000D01*
X175604437Y-97660000D02*
X176240000Y-97660000D01*
X175604437Y-97660000D02*
X174540000Y-96595563D01*
X178995563Y-97660000D02*
X180060000Y-96595563D01*
X175615000Y-98525000D02*
X175615000Y-97900000D01*
X175302500Y-98212500D02*
X175927500Y-98212500D01*
X120060000Y-92140000D02*
X118360000Y-92140000D01*
X114540000Y-92140000D02*
X116240000Y-92140000D01*
X114540000Y-96595563D02*
X114540000Y-92140000D01*
X120060000Y-96595563D02*
X120060000Y-92140000D01*
X118995563Y-97660000D02*
X118360000Y-97660000D01*
X115604437Y-97660000D02*
X116240000Y-97660000D01*
X115604437Y-97660000D02*
X114540000Y-96595563D01*
X118995563Y-97660000D02*
X120060000Y-96595563D01*
X115615000Y-98525000D02*
X115615000Y-97900000D01*
X115302500Y-98212500D02*
X115927500Y-98212500D01*
X180060000Y-82140000D02*
X178360000Y-82140000D01*
X174540000Y-82140000D02*
X176240000Y-82140000D01*
X174540000Y-86595563D02*
X174540000Y-82140000D01*
X180060000Y-86595563D02*
X180060000Y-82140000D01*
X178995563Y-87660000D02*
X178360000Y-87660000D01*
X175604437Y-87660000D02*
X176240000Y-87660000D01*
X175604437Y-87660000D02*
X174540000Y-86595563D01*
X178995563Y-87660000D02*
X180060000Y-86595563D01*
X175615000Y-88525000D02*
X175615000Y-87900000D01*
X175302500Y-88212500D02*
X175927500Y-88212500D01*
X120060000Y-82140000D02*
X118360000Y-82140000D01*
X114540000Y-82140000D02*
X116240000Y-82140000D01*
X114540000Y-86595563D02*
X114540000Y-82140000D01*
X120060000Y-86595563D02*
X120060000Y-82140000D01*
X118995563Y-87660000D02*
X118360000Y-87660000D01*
X115604437Y-87660000D02*
X116240000Y-87660000D01*
X115604437Y-87660000D02*
X114540000Y-86595563D01*
X118995563Y-87660000D02*
X120060000Y-86595563D01*
X115615000Y-88525000D02*
X115615000Y-87900000D01*
X115302500Y-88212500D02*
X115927500Y-88212500D01*
X180060000Y-72140000D02*
X178360000Y-72140000D01*
X174540000Y-72140000D02*
X176240000Y-72140000D01*
X174540000Y-76595563D02*
X174540000Y-72140000D01*
X180060000Y-76595563D02*
X180060000Y-72140000D01*
X178995563Y-77660000D02*
X178360000Y-77660000D01*
X175604437Y-77660000D02*
X176240000Y-77660000D01*
X175604437Y-77660000D02*
X174540000Y-76595563D01*
X178995563Y-77660000D02*
X180060000Y-76595563D01*
X175615000Y-78525000D02*
X175615000Y-77900000D01*
X175302500Y-78212500D02*
X175927500Y-78212500D01*
X120060000Y-72140000D02*
X118360000Y-72140000D01*
X114540000Y-72140000D02*
X116240000Y-72140000D01*
X114540000Y-76595563D02*
X114540000Y-72140000D01*
X120060000Y-76595563D02*
X120060000Y-72140000D01*
X118995563Y-77660000D02*
X118360000Y-77660000D01*
X115604437Y-77660000D02*
X116240000Y-77660000D01*
X115604437Y-77660000D02*
X114540000Y-76595563D01*
X118995563Y-77660000D02*
X120060000Y-76595563D01*
X115615000Y-78525000D02*
X115615000Y-77900000D01*
X115302500Y-78212500D02*
X115927500Y-78212500D01*
X180060000Y-62140000D02*
X178360000Y-62140000D01*
X174540000Y-62140000D02*
X176240000Y-62140000D01*
X174540000Y-66595563D02*
X174540000Y-62140000D01*
X180060000Y-66595563D02*
X180060000Y-62140000D01*
X178995563Y-67660000D02*
X178360000Y-67660000D01*
X175604437Y-67660000D02*
X176240000Y-67660000D01*
X175604437Y-67660000D02*
X174540000Y-66595563D01*
X178995563Y-67660000D02*
X180060000Y-66595563D01*
X175615000Y-68525000D02*
X175615000Y-67900000D01*
X175302500Y-68212500D02*
X175927500Y-68212500D01*
X120060000Y-62140000D02*
X118360000Y-62140000D01*
X114540000Y-62140000D02*
X116240000Y-62140000D01*
X114540000Y-66595563D02*
X114540000Y-62140000D01*
X120060000Y-66595563D02*
X120060000Y-62140000D01*
X118995563Y-67660000D02*
X118360000Y-67660000D01*
X115604437Y-67660000D02*
X116240000Y-67660000D01*
X115604437Y-67660000D02*
X114540000Y-66595563D01*
X118995563Y-67660000D02*
X120060000Y-66595563D01*
X115615000Y-68525000D02*
X115615000Y-67900000D01*
X115302500Y-68212500D02*
X115927500Y-68212500D01*
X180060000Y-52140000D02*
X178360000Y-52140000D01*
X174540000Y-52140000D02*
X176240000Y-52140000D01*
X174540000Y-56595563D02*
X174540000Y-52140000D01*
X180060000Y-56595563D02*
X180060000Y-52140000D01*
X178995563Y-57660000D02*
X178360000Y-57660000D01*
X175604437Y-57660000D02*
X176240000Y-57660000D01*
X175604437Y-57660000D02*
X174540000Y-56595563D01*
X178995563Y-57660000D02*
X180060000Y-56595563D01*
X175615000Y-58525000D02*
X175615000Y-57900000D01*
X175302500Y-58212500D02*
X175927500Y-58212500D01*
G04 #@! TO.C,C1*
X172690000Y-135062779D02*
X172690000Y-134737221D01*
X173710000Y-135062779D02*
X173710000Y-134737221D01*
X112690000Y-135062779D02*
X112690000Y-134737221D01*
X113710000Y-135062779D02*
X113710000Y-134737221D01*
X172690000Y-125062779D02*
X172690000Y-124737221D01*
X173710000Y-125062779D02*
X173710000Y-124737221D01*
X112690000Y-125062779D02*
X112690000Y-124737221D01*
X113710000Y-125062779D02*
X113710000Y-124737221D01*
X172690000Y-115062779D02*
X172690000Y-114737221D01*
X173710000Y-115062779D02*
X173710000Y-114737221D01*
X112690000Y-115062779D02*
X112690000Y-114737221D01*
X113710000Y-115062779D02*
X113710000Y-114737221D01*
X172690000Y-105062779D02*
X172690000Y-104737221D01*
X173710000Y-105062779D02*
X173710000Y-104737221D01*
X112690000Y-105062779D02*
X112690000Y-104737221D01*
X113710000Y-105062779D02*
X113710000Y-104737221D01*
X172690000Y-95062779D02*
X172690000Y-94737221D01*
X173710000Y-95062779D02*
X173710000Y-94737221D01*
X112690000Y-95062779D02*
X112690000Y-94737221D01*
X113710000Y-95062779D02*
X113710000Y-94737221D01*
X172690000Y-85062779D02*
X172690000Y-84737221D01*
X173710000Y-85062779D02*
X173710000Y-84737221D01*
X112690000Y-85062779D02*
X112690000Y-84737221D01*
X113710000Y-85062779D02*
X113710000Y-84737221D01*
X172690000Y-75062779D02*
X172690000Y-74737221D01*
X173710000Y-75062779D02*
X173710000Y-74737221D01*
X112690000Y-75062779D02*
X112690000Y-74737221D01*
X113710000Y-75062779D02*
X113710000Y-74737221D01*
X172690000Y-65062779D02*
X172690000Y-64737221D01*
X173710000Y-65062779D02*
X173710000Y-64737221D01*
X112690000Y-65062779D02*
X112690000Y-64737221D01*
X113710000Y-65062779D02*
X113710000Y-64737221D01*
X172690000Y-55062779D02*
X172690000Y-54737221D01*
X173710000Y-55062779D02*
X173710000Y-54737221D01*
G04 #@! TO.C,R2*
X166440000Y-132962779D02*
X166440000Y-132637221D01*
X167460000Y-132962779D02*
X167460000Y-132637221D01*
X106440000Y-132962779D02*
X106440000Y-132637221D01*
X107460000Y-132962779D02*
X107460000Y-132637221D01*
X166440000Y-122962779D02*
X166440000Y-122637221D01*
X167460000Y-122962779D02*
X167460000Y-122637221D01*
X106440000Y-122962779D02*
X106440000Y-122637221D01*
X107460000Y-122962779D02*
X107460000Y-122637221D01*
X166440000Y-112962779D02*
X166440000Y-112637221D01*
X167460000Y-112962779D02*
X167460000Y-112637221D01*
X106440000Y-112962779D02*
X106440000Y-112637221D01*
X107460000Y-112962779D02*
X107460000Y-112637221D01*
X166440000Y-102962779D02*
X166440000Y-102637221D01*
X167460000Y-102962779D02*
X167460000Y-102637221D01*
X106440000Y-102962779D02*
X106440000Y-102637221D01*
X107460000Y-102962779D02*
X107460000Y-102637221D01*
X166440000Y-92962779D02*
X166440000Y-92637221D01*
X167460000Y-92962779D02*
X167460000Y-92637221D01*
X106440000Y-92962779D02*
X106440000Y-92637221D01*
X107460000Y-92962779D02*
X107460000Y-92637221D01*
X166440000Y-82962779D02*
X166440000Y-82637221D01*
X167460000Y-82962779D02*
X167460000Y-82637221D01*
X106440000Y-82962779D02*
X106440000Y-82637221D01*
X107460000Y-82962779D02*
X107460000Y-82637221D01*
X166440000Y-72962779D02*
X166440000Y-72637221D01*
X167460000Y-72962779D02*
X167460000Y-72637221D01*
X106440000Y-72962779D02*
X106440000Y-72637221D01*
X107460000Y-72962779D02*
X107460000Y-72637221D01*
X166440000Y-62962779D02*
X166440000Y-62637221D01*
X167460000Y-62962779D02*
X167460000Y-62637221D01*
X106440000Y-62962779D02*
X106440000Y-62637221D01*
X107460000Y-62962779D02*
X107460000Y-62637221D01*
X166440000Y-52962779D02*
X166440000Y-52637221D01*
X167460000Y-52962779D02*
X167460000Y-52637221D01*
G04 #@! TO.C,J1*
X153380000Y-131030000D02*
X150720000Y-131030000D01*
X153380000Y-136170000D02*
X153380000Y-131030000D01*
X150720000Y-136170000D02*
X150720000Y-131030000D01*
X153380000Y-136170000D02*
X150720000Y-136170000D01*
X153380000Y-137440000D02*
X153380000Y-138770000D01*
X153380000Y-138770000D02*
X152050000Y-138770000D01*
X93380000Y-131030000D02*
X90720000Y-131030000D01*
X93380000Y-136170000D02*
X93380000Y-131030000D01*
X90720000Y-136170000D02*
X90720000Y-131030000D01*
X93380000Y-136170000D02*
X90720000Y-136170000D01*
X93380000Y-137440000D02*
X93380000Y-138770000D01*
X93380000Y-138770000D02*
X92050000Y-138770000D01*
X153380000Y-121030000D02*
X150720000Y-121030000D01*
X153380000Y-126170000D02*
X153380000Y-121030000D01*
X150720000Y-126170000D02*
X150720000Y-121030000D01*
X153380000Y-126170000D02*
X150720000Y-126170000D01*
X153380000Y-127440000D02*
X153380000Y-128770000D01*
X153380000Y-128770000D02*
X152050000Y-128770000D01*
X93380000Y-121030000D02*
X90720000Y-121030000D01*
X93380000Y-126170000D02*
X93380000Y-121030000D01*
X90720000Y-126170000D02*
X90720000Y-121030000D01*
X93380000Y-126170000D02*
X90720000Y-126170000D01*
X93380000Y-127440000D02*
X93380000Y-128770000D01*
X93380000Y-128770000D02*
X92050000Y-128770000D01*
X153380000Y-111030000D02*
X150720000Y-111030000D01*
X153380000Y-116170000D02*
X153380000Y-111030000D01*
X150720000Y-116170000D02*
X150720000Y-111030000D01*
X153380000Y-116170000D02*
X150720000Y-116170000D01*
X153380000Y-117440000D02*
X153380000Y-118770000D01*
X153380000Y-118770000D02*
X152050000Y-118770000D01*
X93380000Y-111030000D02*
X90720000Y-111030000D01*
X93380000Y-116170000D02*
X93380000Y-111030000D01*
X90720000Y-116170000D02*
X90720000Y-111030000D01*
X93380000Y-116170000D02*
X90720000Y-116170000D01*
X93380000Y-117440000D02*
X93380000Y-118770000D01*
X93380000Y-118770000D02*
X92050000Y-118770000D01*
X153380000Y-101030000D02*
X150720000Y-101030000D01*
X153380000Y-106170000D02*
X153380000Y-101030000D01*
X150720000Y-106170000D02*
X150720000Y-101030000D01*
X153380000Y-106170000D02*
X150720000Y-106170000D01*
X153380000Y-107440000D02*
X153380000Y-108770000D01*
X153380000Y-108770000D02*
X152050000Y-108770000D01*
X93380000Y-101030000D02*
X90720000Y-101030000D01*
X93380000Y-106170000D02*
X93380000Y-101030000D01*
X90720000Y-106170000D02*
X90720000Y-101030000D01*
X93380000Y-106170000D02*
X90720000Y-106170000D01*
X93380000Y-107440000D02*
X93380000Y-108770000D01*
X93380000Y-108770000D02*
X92050000Y-108770000D01*
X153380000Y-91030000D02*
X150720000Y-91030000D01*
X153380000Y-96170000D02*
X153380000Y-91030000D01*
X150720000Y-96170000D02*
X150720000Y-91030000D01*
X153380000Y-96170000D02*
X150720000Y-96170000D01*
X153380000Y-97440000D02*
X153380000Y-98770000D01*
X153380000Y-98770000D02*
X152050000Y-98770000D01*
X93380000Y-91030000D02*
X90720000Y-91030000D01*
X93380000Y-96170000D02*
X93380000Y-91030000D01*
X90720000Y-96170000D02*
X90720000Y-91030000D01*
X93380000Y-96170000D02*
X90720000Y-96170000D01*
X93380000Y-97440000D02*
X93380000Y-98770000D01*
X93380000Y-98770000D02*
X92050000Y-98770000D01*
X153380000Y-81030000D02*
X150720000Y-81030000D01*
X153380000Y-86170000D02*
X153380000Y-81030000D01*
X150720000Y-86170000D02*
X150720000Y-81030000D01*
X153380000Y-86170000D02*
X150720000Y-86170000D01*
X153380000Y-87440000D02*
X153380000Y-88770000D01*
X153380000Y-88770000D02*
X152050000Y-88770000D01*
X93380000Y-81030000D02*
X90720000Y-81030000D01*
X93380000Y-86170000D02*
X93380000Y-81030000D01*
X90720000Y-86170000D02*
X90720000Y-81030000D01*
X93380000Y-86170000D02*
X90720000Y-86170000D01*
X93380000Y-87440000D02*
X93380000Y-88770000D01*
X93380000Y-88770000D02*
X92050000Y-88770000D01*
X153380000Y-71030000D02*
X150720000Y-71030000D01*
X153380000Y-76170000D02*
X153380000Y-71030000D01*
X150720000Y-76170000D02*
X150720000Y-71030000D01*
X153380000Y-76170000D02*
X150720000Y-76170000D01*
X153380000Y-77440000D02*
X153380000Y-78770000D01*
X153380000Y-78770000D02*
X152050000Y-78770000D01*
X93380000Y-71030000D02*
X90720000Y-71030000D01*
X93380000Y-76170000D02*
X93380000Y-71030000D01*
X90720000Y-76170000D02*
X90720000Y-71030000D01*
X93380000Y-76170000D02*
X90720000Y-76170000D01*
X93380000Y-77440000D02*
X93380000Y-78770000D01*
X93380000Y-78770000D02*
X92050000Y-78770000D01*
X153380000Y-61030000D02*
X150720000Y-61030000D01*
X153380000Y-66170000D02*
X153380000Y-61030000D01*
X150720000Y-66170000D02*
X150720000Y-61030000D01*
X153380000Y-66170000D02*
X150720000Y-66170000D01*
X153380000Y-67440000D02*
X153380000Y-68770000D01*
X153380000Y-68770000D02*
X152050000Y-68770000D01*
X93380000Y-61030000D02*
X90720000Y-61030000D01*
X93380000Y-66170000D02*
X93380000Y-61030000D01*
X90720000Y-66170000D02*
X90720000Y-61030000D01*
X93380000Y-66170000D02*
X90720000Y-66170000D01*
X93380000Y-67440000D02*
X93380000Y-68770000D01*
X93380000Y-68770000D02*
X92050000Y-68770000D01*
X153380000Y-51030000D02*
X150720000Y-51030000D01*
X153380000Y-56170000D02*
X153380000Y-51030000D01*
X150720000Y-56170000D02*
X150720000Y-51030000D01*
X153380000Y-56170000D02*
X150720000Y-56170000D01*
X153380000Y-57440000D02*
X153380000Y-58770000D01*
X153380000Y-58770000D02*
X152050000Y-58770000D01*
D11*
G04 #@! TO.C,D2*
X171900000Y-133050000D02*
X171900000Y-136750000D01*
X168400000Y-133050000D02*
X168400000Y-136750000D01*
X171900000Y-133050000D02*
X171650000Y-133050000D01*
X171900000Y-136750000D02*
X171650000Y-136750000D01*
X168650000Y-136750000D02*
X168400000Y-136750000D01*
X168650000Y-133050000D02*
X168400000Y-133050000D01*
X168650000Y-136750000D02*
X168400000Y-136500000D01*
X111900000Y-133050000D02*
X111900000Y-136750000D01*
X108400000Y-133050000D02*
X108400000Y-136750000D01*
X111900000Y-133050000D02*
X111650000Y-133050000D01*
X111900000Y-136750000D02*
X111650000Y-136750000D01*
X108650000Y-136750000D02*
X108400000Y-136750000D01*
X108650000Y-133050000D02*
X108400000Y-133050000D01*
X108650000Y-136750000D02*
X108400000Y-136500000D01*
X171900000Y-123050000D02*
X171900000Y-126750000D01*
X168400000Y-123050000D02*
X168400000Y-126750000D01*
X171900000Y-123050000D02*
X171650000Y-123050000D01*
X171900000Y-126750000D02*
X171650000Y-126750000D01*
X168650000Y-126750000D02*
X168400000Y-126750000D01*
X168650000Y-123050000D02*
X168400000Y-123050000D01*
X168650000Y-126750000D02*
X168400000Y-126500000D01*
X111900000Y-123050000D02*
X111900000Y-126750000D01*
X108400000Y-123050000D02*
X108400000Y-126750000D01*
X111900000Y-123050000D02*
X111650000Y-123050000D01*
X111900000Y-126750000D02*
X111650000Y-126750000D01*
X108650000Y-126750000D02*
X108400000Y-126750000D01*
X108650000Y-123050000D02*
X108400000Y-123050000D01*
X108650000Y-126750000D02*
X108400000Y-126500000D01*
X171900000Y-113050000D02*
X171900000Y-116750000D01*
X168400000Y-113050000D02*
X168400000Y-116750000D01*
X171900000Y-113050000D02*
X171650000Y-113050000D01*
X171900000Y-116750000D02*
X171650000Y-116750000D01*
X168650000Y-116750000D02*
X168400000Y-116750000D01*
X168650000Y-113050000D02*
X168400000Y-113050000D01*
X168650000Y-116750000D02*
X168400000Y-116500000D01*
X111900000Y-113050000D02*
X111900000Y-116750000D01*
X108400000Y-113050000D02*
X108400000Y-116750000D01*
X111900000Y-113050000D02*
X111650000Y-113050000D01*
X111900000Y-116750000D02*
X111650000Y-116750000D01*
X108650000Y-116750000D02*
X108400000Y-116750000D01*
X108650000Y-113050000D02*
X108400000Y-113050000D01*
X108650000Y-116750000D02*
X108400000Y-116500000D01*
X171900000Y-103050000D02*
X171900000Y-106750000D01*
X168400000Y-103050000D02*
X168400000Y-106750000D01*
X171900000Y-103050000D02*
X171650000Y-103050000D01*
X171900000Y-106750000D02*
X171650000Y-106750000D01*
X168650000Y-106750000D02*
X168400000Y-106750000D01*
X168650000Y-103050000D02*
X168400000Y-103050000D01*
X168650000Y-106750000D02*
X168400000Y-106500000D01*
X111900000Y-103050000D02*
X111900000Y-106750000D01*
X108400000Y-103050000D02*
X108400000Y-106750000D01*
X111900000Y-103050000D02*
X111650000Y-103050000D01*
X111900000Y-106750000D02*
X111650000Y-106750000D01*
X108650000Y-106750000D02*
X108400000Y-106750000D01*
X108650000Y-103050000D02*
X108400000Y-103050000D01*
X108650000Y-106750000D02*
X108400000Y-106500000D01*
X171900000Y-93050000D02*
X171900000Y-96750000D01*
X168400000Y-93050000D02*
X168400000Y-96750000D01*
X171900000Y-93050000D02*
X171650000Y-93050000D01*
X171900000Y-96750000D02*
X171650000Y-96750000D01*
X168650000Y-96750000D02*
X168400000Y-96750000D01*
X168650000Y-93050000D02*
X168400000Y-93050000D01*
X168650000Y-96750000D02*
X168400000Y-96500000D01*
X111900000Y-93050000D02*
X111900000Y-96750000D01*
X108400000Y-93050000D02*
X108400000Y-96750000D01*
X111900000Y-93050000D02*
X111650000Y-93050000D01*
X111900000Y-96750000D02*
X111650000Y-96750000D01*
X108650000Y-96750000D02*
X108400000Y-96750000D01*
X108650000Y-93050000D02*
X108400000Y-93050000D01*
X108650000Y-96750000D02*
X108400000Y-96500000D01*
X171900000Y-83050000D02*
X171900000Y-86750000D01*
X168400000Y-83050000D02*
X168400000Y-86750000D01*
X171900000Y-83050000D02*
X171650000Y-83050000D01*
X171900000Y-86750000D02*
X171650000Y-86750000D01*
X168650000Y-86750000D02*
X168400000Y-86750000D01*
X168650000Y-83050000D02*
X168400000Y-83050000D01*
X168650000Y-86750000D02*
X168400000Y-86500000D01*
X111900000Y-83050000D02*
X111900000Y-86750000D01*
X108400000Y-83050000D02*
X108400000Y-86750000D01*
X111900000Y-83050000D02*
X111650000Y-83050000D01*
X111900000Y-86750000D02*
X111650000Y-86750000D01*
X108650000Y-86750000D02*
X108400000Y-86750000D01*
X108650000Y-83050000D02*
X108400000Y-83050000D01*
X108650000Y-86750000D02*
X108400000Y-86500000D01*
X171900000Y-73050000D02*
X171900000Y-76750000D01*
X168400000Y-73050000D02*
X168400000Y-76750000D01*
X171900000Y-73050000D02*
X171650000Y-73050000D01*
X171900000Y-76750000D02*
X171650000Y-76750000D01*
X168650000Y-76750000D02*
X168400000Y-76750000D01*
X168650000Y-73050000D02*
X168400000Y-73050000D01*
X168650000Y-76750000D02*
X168400000Y-76500000D01*
X111900000Y-73050000D02*
X111900000Y-76750000D01*
X108400000Y-73050000D02*
X108400000Y-76750000D01*
X111900000Y-73050000D02*
X111650000Y-73050000D01*
X111900000Y-76750000D02*
X111650000Y-76750000D01*
X108650000Y-76750000D02*
X108400000Y-76750000D01*
X108650000Y-73050000D02*
X108400000Y-73050000D01*
X108650000Y-76750000D02*
X108400000Y-76500000D01*
X171900000Y-63050000D02*
X171900000Y-66750000D01*
X168400000Y-63050000D02*
X168400000Y-66750000D01*
X171900000Y-63050000D02*
X171650000Y-63050000D01*
X171900000Y-66750000D02*
X171650000Y-66750000D01*
X168650000Y-66750000D02*
X168400000Y-66750000D01*
X168650000Y-63050000D02*
X168400000Y-63050000D01*
X168650000Y-66750000D02*
X168400000Y-66500000D01*
X111900000Y-63050000D02*
X111900000Y-66750000D01*
X108400000Y-63050000D02*
X108400000Y-66750000D01*
X111900000Y-63050000D02*
X111650000Y-63050000D01*
X111900000Y-66750000D02*
X111650000Y-66750000D01*
X108650000Y-66750000D02*
X108400000Y-66750000D01*
X108650000Y-63050000D02*
X108400000Y-63050000D01*
X108650000Y-66750000D02*
X108400000Y-66500000D01*
X171900000Y-53050000D02*
X171900000Y-56750000D01*
X168400000Y-53050000D02*
X168400000Y-56750000D01*
X171900000Y-53050000D02*
X171650000Y-53050000D01*
X171900000Y-56750000D02*
X171650000Y-56750000D01*
X168650000Y-56750000D02*
X168400000Y-56750000D01*
X168650000Y-53050000D02*
X168400000Y-53050000D01*
X168650000Y-56750000D02*
X168400000Y-56500000D01*
G04 #@! TO.C,D3*
X182700000Y-136750000D02*
X182700000Y-133050000D01*
X186200000Y-136750000D02*
X186200000Y-133050000D01*
X182700000Y-136750000D02*
X182950000Y-136750000D01*
X182700000Y-133050000D02*
X182950000Y-133050000D01*
X185950000Y-133050000D02*
X186200000Y-133050000D01*
X185950000Y-136750000D02*
X186200000Y-136750000D01*
X185950000Y-133050000D02*
X186200000Y-133300000D01*
X122700000Y-136750000D02*
X122700000Y-133050000D01*
X126200000Y-136750000D02*
X126200000Y-133050000D01*
X122700000Y-136750000D02*
X122950000Y-136750000D01*
X122700000Y-133050000D02*
X122950000Y-133050000D01*
X125950000Y-133050000D02*
X126200000Y-133050000D01*
X125950000Y-136750000D02*
X126200000Y-136750000D01*
X125950000Y-133050000D02*
X126200000Y-133300000D01*
X182700000Y-126750000D02*
X182700000Y-123050000D01*
X186200000Y-126750000D02*
X186200000Y-123050000D01*
X182700000Y-126750000D02*
X182950000Y-126750000D01*
X182700000Y-123050000D02*
X182950000Y-123050000D01*
X185950000Y-123050000D02*
X186200000Y-123050000D01*
X185950000Y-126750000D02*
X186200000Y-126750000D01*
X185950000Y-123050000D02*
X186200000Y-123300000D01*
X122700000Y-126750000D02*
X122700000Y-123050000D01*
X126200000Y-126750000D02*
X126200000Y-123050000D01*
X122700000Y-126750000D02*
X122950000Y-126750000D01*
X122700000Y-123050000D02*
X122950000Y-123050000D01*
X125950000Y-123050000D02*
X126200000Y-123050000D01*
X125950000Y-126750000D02*
X126200000Y-126750000D01*
X125950000Y-123050000D02*
X126200000Y-123300000D01*
X182700000Y-116750000D02*
X182700000Y-113050000D01*
X186200000Y-116750000D02*
X186200000Y-113050000D01*
X182700000Y-116750000D02*
X182950000Y-116750000D01*
X182700000Y-113050000D02*
X182950000Y-113050000D01*
X185950000Y-113050000D02*
X186200000Y-113050000D01*
X185950000Y-116750000D02*
X186200000Y-116750000D01*
X185950000Y-113050000D02*
X186200000Y-113300000D01*
X122700000Y-116750000D02*
X122700000Y-113050000D01*
X126200000Y-116750000D02*
X126200000Y-113050000D01*
X122700000Y-116750000D02*
X122950000Y-116750000D01*
X122700000Y-113050000D02*
X122950000Y-113050000D01*
X125950000Y-113050000D02*
X126200000Y-113050000D01*
X125950000Y-116750000D02*
X126200000Y-116750000D01*
X125950000Y-113050000D02*
X126200000Y-113300000D01*
X182700000Y-106750000D02*
X182700000Y-103050000D01*
X186200000Y-106750000D02*
X186200000Y-103050000D01*
X182700000Y-106750000D02*
X182950000Y-106750000D01*
X182700000Y-103050000D02*
X182950000Y-103050000D01*
X185950000Y-103050000D02*
X186200000Y-103050000D01*
X185950000Y-106750000D02*
X186200000Y-106750000D01*
X185950000Y-103050000D02*
X186200000Y-103300000D01*
X122700000Y-106750000D02*
X122700000Y-103050000D01*
X126200000Y-106750000D02*
X126200000Y-103050000D01*
X122700000Y-106750000D02*
X122950000Y-106750000D01*
X122700000Y-103050000D02*
X122950000Y-103050000D01*
X125950000Y-103050000D02*
X126200000Y-103050000D01*
X125950000Y-106750000D02*
X126200000Y-106750000D01*
X125950000Y-103050000D02*
X126200000Y-103300000D01*
X182700000Y-96750000D02*
X182700000Y-93050000D01*
X186200000Y-96750000D02*
X186200000Y-93050000D01*
X182700000Y-96750000D02*
X182950000Y-96750000D01*
X182700000Y-93050000D02*
X182950000Y-93050000D01*
X185950000Y-93050000D02*
X186200000Y-93050000D01*
X185950000Y-96750000D02*
X186200000Y-96750000D01*
X185950000Y-93050000D02*
X186200000Y-93300000D01*
X122700000Y-96750000D02*
X122700000Y-93050000D01*
X126200000Y-96750000D02*
X126200000Y-93050000D01*
X122700000Y-96750000D02*
X122950000Y-96750000D01*
X122700000Y-93050000D02*
X122950000Y-93050000D01*
X125950000Y-93050000D02*
X126200000Y-93050000D01*
X125950000Y-96750000D02*
X126200000Y-96750000D01*
X125950000Y-93050000D02*
X126200000Y-93300000D01*
X182700000Y-86750000D02*
X182700000Y-83050000D01*
X186200000Y-86750000D02*
X186200000Y-83050000D01*
X182700000Y-86750000D02*
X182950000Y-86750000D01*
X182700000Y-83050000D02*
X182950000Y-83050000D01*
X185950000Y-83050000D02*
X186200000Y-83050000D01*
X185950000Y-86750000D02*
X186200000Y-86750000D01*
X185950000Y-83050000D02*
X186200000Y-83300000D01*
X122700000Y-86750000D02*
X122700000Y-83050000D01*
X126200000Y-86750000D02*
X126200000Y-83050000D01*
X122700000Y-86750000D02*
X122950000Y-86750000D01*
X122700000Y-83050000D02*
X122950000Y-83050000D01*
X125950000Y-83050000D02*
X126200000Y-83050000D01*
X125950000Y-86750000D02*
X126200000Y-86750000D01*
X125950000Y-83050000D02*
X126200000Y-83300000D01*
X182700000Y-76750000D02*
X182700000Y-73050000D01*
X186200000Y-76750000D02*
X186200000Y-73050000D01*
X182700000Y-76750000D02*
X182950000Y-76750000D01*
X182700000Y-73050000D02*
X182950000Y-73050000D01*
X185950000Y-73050000D02*
X186200000Y-73050000D01*
X185950000Y-76750000D02*
X186200000Y-76750000D01*
X185950000Y-73050000D02*
X186200000Y-73300000D01*
X122700000Y-76750000D02*
X122700000Y-73050000D01*
X126200000Y-76750000D02*
X126200000Y-73050000D01*
X122700000Y-76750000D02*
X122950000Y-76750000D01*
X122700000Y-73050000D02*
X122950000Y-73050000D01*
X125950000Y-73050000D02*
X126200000Y-73050000D01*
X125950000Y-76750000D02*
X126200000Y-76750000D01*
X125950000Y-73050000D02*
X126200000Y-73300000D01*
X182700000Y-66750000D02*
X182700000Y-63050000D01*
X186200000Y-66750000D02*
X186200000Y-63050000D01*
X182700000Y-66750000D02*
X182950000Y-66750000D01*
X182700000Y-63050000D02*
X182950000Y-63050000D01*
X185950000Y-63050000D02*
X186200000Y-63050000D01*
X185950000Y-66750000D02*
X186200000Y-66750000D01*
X185950000Y-63050000D02*
X186200000Y-63300000D01*
X122700000Y-66750000D02*
X122700000Y-63050000D01*
X126200000Y-66750000D02*
X126200000Y-63050000D01*
X122700000Y-66750000D02*
X122950000Y-66750000D01*
X122700000Y-63050000D02*
X122950000Y-63050000D01*
X125950000Y-63050000D02*
X126200000Y-63050000D01*
X125950000Y-66750000D02*
X126200000Y-66750000D01*
X125950000Y-63050000D02*
X126200000Y-63300000D01*
X182700000Y-56750000D02*
X182700000Y-53050000D01*
X186200000Y-56750000D02*
X186200000Y-53050000D01*
X182700000Y-56750000D02*
X182950000Y-56750000D01*
X182700000Y-53050000D02*
X182950000Y-53050000D01*
X185950000Y-53050000D02*
X186200000Y-53050000D01*
X185950000Y-56750000D02*
X186200000Y-56750000D01*
X185950000Y-53050000D02*
X186200000Y-53300000D01*
G04 #@! TO.C,D1*
X97350000Y-53050000D02*
X97600000Y-53300000D01*
X97350000Y-56750000D02*
X97600000Y-56750000D01*
X97350000Y-53050000D02*
X97600000Y-53050000D01*
X94100000Y-53050000D02*
X94350000Y-53050000D01*
X94100000Y-56750000D02*
X94350000Y-56750000D01*
X97600000Y-56750000D02*
X97600000Y-53050000D01*
X94100000Y-56750000D02*
X94100000Y-53050000D01*
G04 #@! TO.C,D2*
X108650000Y-56750000D02*
X108400000Y-56500000D01*
X108650000Y-53050000D02*
X108400000Y-53050000D01*
X108650000Y-56750000D02*
X108400000Y-56750000D01*
X111900000Y-56750000D02*
X111650000Y-56750000D01*
X111900000Y-53050000D02*
X111650000Y-53050000D01*
X108400000Y-53050000D02*
X108400000Y-56750000D01*
X111900000Y-53050000D02*
X111900000Y-56750000D01*
G04 #@! TO.C,D3*
X125950000Y-53050000D02*
X126200000Y-53300000D01*
X125950000Y-56750000D02*
X126200000Y-56750000D01*
X125950000Y-53050000D02*
X126200000Y-53050000D01*
X122700000Y-53050000D02*
X122950000Y-53050000D01*
X122700000Y-56750000D02*
X122950000Y-56750000D01*
X126200000Y-56750000D02*
X126200000Y-53050000D01*
X122700000Y-56750000D02*
X122700000Y-53050000D01*
D14*
G04 #@! TO.C,J1*
X93380000Y-58770000D02*
X92050000Y-58770000D01*
X93380000Y-57440000D02*
X93380000Y-58770000D01*
X93380000Y-56170000D02*
X90720000Y-56170000D01*
X90720000Y-56170000D02*
X90720000Y-51030000D01*
X93380000Y-56170000D02*
X93380000Y-51030000D01*
X93380000Y-51030000D02*
X90720000Y-51030000D01*
G04 #@! TO.C,J2*
X129580000Y-58770000D02*
X128250000Y-58770000D01*
X129580000Y-57440000D02*
X129580000Y-58770000D01*
X129580000Y-56170000D02*
X126920000Y-56170000D01*
X126920000Y-56170000D02*
X126920000Y-51030000D01*
X129580000Y-56170000D02*
X129580000Y-51030000D01*
X129580000Y-51030000D02*
X126920000Y-51030000D01*
G04 #@! TO.C,R1*
X99560000Y-56762779D02*
X99560000Y-56437221D01*
X98540000Y-56762779D02*
X98540000Y-56437221D01*
G04 #@! TO.C,R2*
X107460000Y-52962779D02*
X107460000Y-52637221D01*
X106440000Y-52962779D02*
X106440000Y-52637221D01*
G04 #@! TO.C,R3*
X107460000Y-56762779D02*
X107460000Y-56437221D01*
X106440000Y-56762779D02*
X106440000Y-56437221D01*
G04 #@! TO.C,R4*
X98540000Y-52637221D02*
X98540000Y-52962779D01*
X99560000Y-52637221D02*
X99560000Y-52962779D01*
D11*
G04 #@! TO.C,U1*
X105525000Y-52775000D02*
X105525000Y-51375000D01*
X100425000Y-52775000D02*
X100425000Y-56925000D01*
X105575000Y-52775000D02*
X105575000Y-56925000D01*
X100425000Y-52775000D02*
X100570000Y-52775000D01*
X100425000Y-56925000D02*
X100570000Y-56925000D01*
X105575000Y-56925000D02*
X105430000Y-56925000D01*
X105575000Y-52775000D02*
X105525000Y-52775000D01*
D14*
G04 #@! TO.C,C1*
X113710000Y-55062779D02*
X113710000Y-54737221D01*
X112690000Y-55062779D02*
X112690000Y-54737221D01*
G04 #@! TO.C,C2*
X115302500Y-58212500D02*
X115927500Y-58212500D01*
X115615000Y-58525000D02*
X115615000Y-57900000D01*
X118995563Y-57660000D02*
X120060000Y-56595563D01*
X115604437Y-57660000D02*
X114540000Y-56595563D01*
X115604437Y-57660000D02*
X116240000Y-57660000D01*
X118995563Y-57660000D02*
X118360000Y-57660000D01*
X120060000Y-56595563D02*
X120060000Y-52140000D01*
X114540000Y-56595563D02*
X114540000Y-52140000D01*
X114540000Y-52140000D02*
X116240000Y-52140000D01*
X120060000Y-52140000D02*
X118360000Y-52140000D01*
G04 #@! TO.C,R4*
D11*
X158916666Y-131161904D02*
X158650000Y-130780952D01*
X158459523Y-131161904D02*
X158459523Y-130361904D01*
X158764285Y-130361904D01*
X158840476Y-130400000D01*
X158878571Y-130438095D01*
X158916666Y-130514285D01*
X158916666Y-130628571D01*
X158878571Y-130704761D01*
X158840476Y-130742857D01*
X158764285Y-130780952D01*
X158459523Y-130780952D01*
X159602380Y-130628571D02*
X159602380Y-131161904D01*
X159411904Y-130323809D02*
X159221428Y-130895238D01*
X159716666Y-130895238D01*
X98916666Y-131161904D02*
X98650000Y-130780952D01*
X98459523Y-131161904D02*
X98459523Y-130361904D01*
X98764285Y-130361904D01*
X98840476Y-130400000D01*
X98878571Y-130438095D01*
X98916666Y-130514285D01*
X98916666Y-130628571D01*
X98878571Y-130704761D01*
X98840476Y-130742857D01*
X98764285Y-130780952D01*
X98459523Y-130780952D01*
X99602380Y-130628571D02*
X99602380Y-131161904D01*
X99411904Y-130323809D02*
X99221428Y-130895238D01*
X99716666Y-130895238D01*
X158916666Y-121161904D02*
X158650000Y-120780952D01*
X158459523Y-121161904D02*
X158459523Y-120361904D01*
X158764285Y-120361904D01*
X158840476Y-120400000D01*
X158878571Y-120438095D01*
X158916666Y-120514285D01*
X158916666Y-120628571D01*
X158878571Y-120704761D01*
X158840476Y-120742857D01*
X158764285Y-120780952D01*
X158459523Y-120780952D01*
X159602380Y-120628571D02*
X159602380Y-121161904D01*
X159411904Y-120323809D02*
X159221428Y-120895238D01*
X159716666Y-120895238D01*
X98916666Y-121161904D02*
X98650000Y-120780952D01*
X98459523Y-121161904D02*
X98459523Y-120361904D01*
X98764285Y-120361904D01*
X98840476Y-120400000D01*
X98878571Y-120438095D01*
X98916666Y-120514285D01*
X98916666Y-120628571D01*
X98878571Y-120704761D01*
X98840476Y-120742857D01*
X98764285Y-120780952D01*
X98459523Y-120780952D01*
X99602380Y-120628571D02*
X99602380Y-121161904D01*
X99411904Y-120323809D02*
X99221428Y-120895238D01*
X99716666Y-120895238D01*
X158916666Y-111161904D02*
X158650000Y-110780952D01*
X158459523Y-111161904D02*
X158459523Y-110361904D01*
X158764285Y-110361904D01*
X158840476Y-110400000D01*
X158878571Y-110438095D01*
X158916666Y-110514285D01*
X158916666Y-110628571D01*
X158878571Y-110704761D01*
X158840476Y-110742857D01*
X158764285Y-110780952D01*
X158459523Y-110780952D01*
X159602380Y-110628571D02*
X159602380Y-111161904D01*
X159411904Y-110323809D02*
X159221428Y-110895238D01*
X159716666Y-110895238D01*
X98916666Y-111161904D02*
X98650000Y-110780952D01*
X98459523Y-111161904D02*
X98459523Y-110361904D01*
X98764285Y-110361904D01*
X98840476Y-110400000D01*
X98878571Y-110438095D01*
X98916666Y-110514285D01*
X98916666Y-110628571D01*
X98878571Y-110704761D01*
X98840476Y-110742857D01*
X98764285Y-110780952D01*
X98459523Y-110780952D01*
X99602380Y-110628571D02*
X99602380Y-111161904D01*
X99411904Y-110323809D02*
X99221428Y-110895238D01*
X99716666Y-110895238D01*
X158916666Y-101161904D02*
X158650000Y-100780952D01*
X158459523Y-101161904D02*
X158459523Y-100361904D01*
X158764285Y-100361904D01*
X158840476Y-100400000D01*
X158878571Y-100438095D01*
X158916666Y-100514285D01*
X158916666Y-100628571D01*
X158878571Y-100704761D01*
X158840476Y-100742857D01*
X158764285Y-100780952D01*
X158459523Y-100780952D01*
X159602380Y-100628571D02*
X159602380Y-101161904D01*
X159411904Y-100323809D02*
X159221428Y-100895238D01*
X159716666Y-100895238D01*
X98916666Y-101161904D02*
X98650000Y-100780952D01*
X98459523Y-101161904D02*
X98459523Y-100361904D01*
X98764285Y-100361904D01*
X98840476Y-100400000D01*
X98878571Y-100438095D01*
X98916666Y-100514285D01*
X98916666Y-100628571D01*
X98878571Y-100704761D01*
X98840476Y-100742857D01*
X98764285Y-100780952D01*
X98459523Y-100780952D01*
X99602380Y-100628571D02*
X99602380Y-101161904D01*
X99411904Y-100323809D02*
X99221428Y-100895238D01*
X99716666Y-100895238D01*
X158916666Y-91161904D02*
X158650000Y-90780952D01*
X158459523Y-91161904D02*
X158459523Y-90361904D01*
X158764285Y-90361904D01*
X158840476Y-90400000D01*
X158878571Y-90438095D01*
X158916666Y-90514285D01*
X158916666Y-90628571D01*
X158878571Y-90704761D01*
X158840476Y-90742857D01*
X158764285Y-90780952D01*
X158459523Y-90780952D01*
X159602380Y-90628571D02*
X159602380Y-91161904D01*
X159411904Y-90323809D02*
X159221428Y-90895238D01*
X159716666Y-90895238D01*
X98916666Y-91161904D02*
X98650000Y-90780952D01*
X98459523Y-91161904D02*
X98459523Y-90361904D01*
X98764285Y-90361904D01*
X98840476Y-90400000D01*
X98878571Y-90438095D01*
X98916666Y-90514285D01*
X98916666Y-90628571D01*
X98878571Y-90704761D01*
X98840476Y-90742857D01*
X98764285Y-90780952D01*
X98459523Y-90780952D01*
X99602380Y-90628571D02*
X99602380Y-91161904D01*
X99411904Y-90323809D02*
X99221428Y-90895238D01*
X99716666Y-90895238D01*
X158916666Y-81161904D02*
X158650000Y-80780952D01*
X158459523Y-81161904D02*
X158459523Y-80361904D01*
X158764285Y-80361904D01*
X158840476Y-80400000D01*
X158878571Y-80438095D01*
X158916666Y-80514285D01*
X158916666Y-80628571D01*
X158878571Y-80704761D01*
X158840476Y-80742857D01*
X158764285Y-80780952D01*
X158459523Y-80780952D01*
X159602380Y-80628571D02*
X159602380Y-81161904D01*
X159411904Y-80323809D02*
X159221428Y-80895238D01*
X159716666Y-80895238D01*
X98916666Y-81161904D02*
X98650000Y-80780952D01*
X98459523Y-81161904D02*
X98459523Y-80361904D01*
X98764285Y-80361904D01*
X98840476Y-80400000D01*
X98878571Y-80438095D01*
X98916666Y-80514285D01*
X98916666Y-80628571D01*
X98878571Y-80704761D01*
X98840476Y-80742857D01*
X98764285Y-80780952D01*
X98459523Y-80780952D01*
X99602380Y-80628571D02*
X99602380Y-81161904D01*
X99411904Y-80323809D02*
X99221428Y-80895238D01*
X99716666Y-80895238D01*
X158916666Y-71161904D02*
X158650000Y-70780952D01*
X158459523Y-71161904D02*
X158459523Y-70361904D01*
X158764285Y-70361904D01*
X158840476Y-70400000D01*
X158878571Y-70438095D01*
X158916666Y-70514285D01*
X158916666Y-70628571D01*
X158878571Y-70704761D01*
X158840476Y-70742857D01*
X158764285Y-70780952D01*
X158459523Y-70780952D01*
X159602380Y-70628571D02*
X159602380Y-71161904D01*
X159411904Y-70323809D02*
X159221428Y-70895238D01*
X159716666Y-70895238D01*
X98916666Y-71161904D02*
X98650000Y-70780952D01*
X98459523Y-71161904D02*
X98459523Y-70361904D01*
X98764285Y-70361904D01*
X98840476Y-70400000D01*
X98878571Y-70438095D01*
X98916666Y-70514285D01*
X98916666Y-70628571D01*
X98878571Y-70704761D01*
X98840476Y-70742857D01*
X98764285Y-70780952D01*
X98459523Y-70780952D01*
X99602380Y-70628571D02*
X99602380Y-71161904D01*
X99411904Y-70323809D02*
X99221428Y-70895238D01*
X99716666Y-70895238D01*
X158916666Y-61161904D02*
X158650000Y-60780952D01*
X158459523Y-61161904D02*
X158459523Y-60361904D01*
X158764285Y-60361904D01*
X158840476Y-60400000D01*
X158878571Y-60438095D01*
X158916666Y-60514285D01*
X158916666Y-60628571D01*
X158878571Y-60704761D01*
X158840476Y-60742857D01*
X158764285Y-60780952D01*
X158459523Y-60780952D01*
X159602380Y-60628571D02*
X159602380Y-61161904D01*
X159411904Y-60323809D02*
X159221428Y-60895238D01*
X159716666Y-60895238D01*
X98916666Y-61161904D02*
X98650000Y-60780952D01*
X98459523Y-61161904D02*
X98459523Y-60361904D01*
X98764285Y-60361904D01*
X98840476Y-60400000D01*
X98878571Y-60438095D01*
X98916666Y-60514285D01*
X98916666Y-60628571D01*
X98878571Y-60704761D01*
X98840476Y-60742857D01*
X98764285Y-60780952D01*
X98459523Y-60780952D01*
X99602380Y-60628571D02*
X99602380Y-61161904D01*
X99411904Y-60323809D02*
X99221428Y-60895238D01*
X99716666Y-60895238D01*
X158916666Y-51161904D02*
X158650000Y-50780952D01*
X158459523Y-51161904D02*
X158459523Y-50361904D01*
X158764285Y-50361904D01*
X158840476Y-50400000D01*
X158878571Y-50438095D01*
X158916666Y-50514285D01*
X158916666Y-50628571D01*
X158878571Y-50704761D01*
X158840476Y-50742857D01*
X158764285Y-50780952D01*
X158459523Y-50780952D01*
X159602380Y-50628571D02*
X159602380Y-51161904D01*
X159411904Y-50323809D02*
X159221428Y-50895238D01*
X159716666Y-50895238D01*
G04 #@! TO.C,R1*
X158916666Y-139061904D02*
X158650000Y-138680952D01*
X158459523Y-139061904D02*
X158459523Y-138261904D01*
X158764285Y-138261904D01*
X158840476Y-138300000D01*
X158878571Y-138338095D01*
X158916666Y-138414285D01*
X158916666Y-138528571D01*
X158878571Y-138604761D01*
X158840476Y-138642857D01*
X158764285Y-138680952D01*
X158459523Y-138680952D01*
X159678571Y-139061904D02*
X159221428Y-139061904D01*
X159450000Y-139061904D02*
X159450000Y-138261904D01*
X159373809Y-138376190D01*
X159297619Y-138452380D01*
X159221428Y-138490476D01*
X98916666Y-139061904D02*
X98650000Y-138680952D01*
X98459523Y-139061904D02*
X98459523Y-138261904D01*
X98764285Y-138261904D01*
X98840476Y-138300000D01*
X98878571Y-138338095D01*
X98916666Y-138414285D01*
X98916666Y-138528571D01*
X98878571Y-138604761D01*
X98840476Y-138642857D01*
X98764285Y-138680952D01*
X98459523Y-138680952D01*
X99678571Y-139061904D02*
X99221428Y-139061904D01*
X99450000Y-139061904D02*
X99450000Y-138261904D01*
X99373809Y-138376190D01*
X99297619Y-138452380D01*
X99221428Y-138490476D01*
X158916666Y-129061904D02*
X158650000Y-128680952D01*
X158459523Y-129061904D02*
X158459523Y-128261904D01*
X158764285Y-128261904D01*
X158840476Y-128300000D01*
X158878571Y-128338095D01*
X158916666Y-128414285D01*
X158916666Y-128528571D01*
X158878571Y-128604761D01*
X158840476Y-128642857D01*
X158764285Y-128680952D01*
X158459523Y-128680952D01*
X159678571Y-129061904D02*
X159221428Y-129061904D01*
X159450000Y-129061904D02*
X159450000Y-128261904D01*
X159373809Y-128376190D01*
X159297619Y-128452380D01*
X159221428Y-128490476D01*
X98916666Y-129061904D02*
X98650000Y-128680952D01*
X98459523Y-129061904D02*
X98459523Y-128261904D01*
X98764285Y-128261904D01*
X98840476Y-128300000D01*
X98878571Y-128338095D01*
X98916666Y-128414285D01*
X98916666Y-128528571D01*
X98878571Y-128604761D01*
X98840476Y-128642857D01*
X98764285Y-128680952D01*
X98459523Y-128680952D01*
X99678571Y-129061904D02*
X99221428Y-129061904D01*
X99450000Y-129061904D02*
X99450000Y-128261904D01*
X99373809Y-128376190D01*
X99297619Y-128452380D01*
X99221428Y-128490476D01*
X158916666Y-119061904D02*
X158650000Y-118680952D01*
X158459523Y-119061904D02*
X158459523Y-118261904D01*
X158764285Y-118261904D01*
X158840476Y-118300000D01*
X158878571Y-118338095D01*
X158916666Y-118414285D01*
X158916666Y-118528571D01*
X158878571Y-118604761D01*
X158840476Y-118642857D01*
X158764285Y-118680952D01*
X158459523Y-118680952D01*
X159678571Y-119061904D02*
X159221428Y-119061904D01*
X159450000Y-119061904D02*
X159450000Y-118261904D01*
X159373809Y-118376190D01*
X159297619Y-118452380D01*
X159221428Y-118490476D01*
X98916666Y-119061904D02*
X98650000Y-118680952D01*
X98459523Y-119061904D02*
X98459523Y-118261904D01*
X98764285Y-118261904D01*
X98840476Y-118300000D01*
X98878571Y-118338095D01*
X98916666Y-118414285D01*
X98916666Y-118528571D01*
X98878571Y-118604761D01*
X98840476Y-118642857D01*
X98764285Y-118680952D01*
X98459523Y-118680952D01*
X99678571Y-119061904D02*
X99221428Y-119061904D01*
X99450000Y-119061904D02*
X99450000Y-118261904D01*
X99373809Y-118376190D01*
X99297619Y-118452380D01*
X99221428Y-118490476D01*
X158916666Y-109061904D02*
X158650000Y-108680952D01*
X158459523Y-109061904D02*
X158459523Y-108261904D01*
X158764285Y-108261904D01*
X158840476Y-108300000D01*
X158878571Y-108338095D01*
X158916666Y-108414285D01*
X158916666Y-108528571D01*
X158878571Y-108604761D01*
X158840476Y-108642857D01*
X158764285Y-108680952D01*
X158459523Y-108680952D01*
X159678571Y-109061904D02*
X159221428Y-109061904D01*
X159450000Y-109061904D02*
X159450000Y-108261904D01*
X159373809Y-108376190D01*
X159297619Y-108452380D01*
X159221428Y-108490476D01*
X98916666Y-109061904D02*
X98650000Y-108680952D01*
X98459523Y-109061904D02*
X98459523Y-108261904D01*
X98764285Y-108261904D01*
X98840476Y-108300000D01*
X98878571Y-108338095D01*
X98916666Y-108414285D01*
X98916666Y-108528571D01*
X98878571Y-108604761D01*
X98840476Y-108642857D01*
X98764285Y-108680952D01*
X98459523Y-108680952D01*
X99678571Y-109061904D02*
X99221428Y-109061904D01*
X99450000Y-109061904D02*
X99450000Y-108261904D01*
X99373809Y-108376190D01*
X99297619Y-108452380D01*
X99221428Y-108490476D01*
X158916666Y-99061904D02*
X158650000Y-98680952D01*
X158459523Y-99061904D02*
X158459523Y-98261904D01*
X158764285Y-98261904D01*
X158840476Y-98300000D01*
X158878571Y-98338095D01*
X158916666Y-98414285D01*
X158916666Y-98528571D01*
X158878571Y-98604761D01*
X158840476Y-98642857D01*
X158764285Y-98680952D01*
X158459523Y-98680952D01*
X159678571Y-99061904D02*
X159221428Y-99061904D01*
X159450000Y-99061904D02*
X159450000Y-98261904D01*
X159373809Y-98376190D01*
X159297619Y-98452380D01*
X159221428Y-98490476D01*
X98916666Y-99061904D02*
X98650000Y-98680952D01*
X98459523Y-99061904D02*
X98459523Y-98261904D01*
X98764285Y-98261904D01*
X98840476Y-98300000D01*
X98878571Y-98338095D01*
X98916666Y-98414285D01*
X98916666Y-98528571D01*
X98878571Y-98604761D01*
X98840476Y-98642857D01*
X98764285Y-98680952D01*
X98459523Y-98680952D01*
X99678571Y-99061904D02*
X99221428Y-99061904D01*
X99450000Y-99061904D02*
X99450000Y-98261904D01*
X99373809Y-98376190D01*
X99297619Y-98452380D01*
X99221428Y-98490476D01*
X158916666Y-89061904D02*
X158650000Y-88680952D01*
X158459523Y-89061904D02*
X158459523Y-88261904D01*
X158764285Y-88261904D01*
X158840476Y-88300000D01*
X158878571Y-88338095D01*
X158916666Y-88414285D01*
X158916666Y-88528571D01*
X158878571Y-88604761D01*
X158840476Y-88642857D01*
X158764285Y-88680952D01*
X158459523Y-88680952D01*
X159678571Y-89061904D02*
X159221428Y-89061904D01*
X159450000Y-89061904D02*
X159450000Y-88261904D01*
X159373809Y-88376190D01*
X159297619Y-88452380D01*
X159221428Y-88490476D01*
X98916666Y-89061904D02*
X98650000Y-88680952D01*
X98459523Y-89061904D02*
X98459523Y-88261904D01*
X98764285Y-88261904D01*
X98840476Y-88300000D01*
X98878571Y-88338095D01*
X98916666Y-88414285D01*
X98916666Y-88528571D01*
X98878571Y-88604761D01*
X98840476Y-88642857D01*
X98764285Y-88680952D01*
X98459523Y-88680952D01*
X99678571Y-89061904D02*
X99221428Y-89061904D01*
X99450000Y-89061904D02*
X99450000Y-88261904D01*
X99373809Y-88376190D01*
X99297619Y-88452380D01*
X99221428Y-88490476D01*
X158916666Y-79061904D02*
X158650000Y-78680952D01*
X158459523Y-79061904D02*
X158459523Y-78261904D01*
X158764285Y-78261904D01*
X158840476Y-78300000D01*
X158878571Y-78338095D01*
X158916666Y-78414285D01*
X158916666Y-78528571D01*
X158878571Y-78604761D01*
X158840476Y-78642857D01*
X158764285Y-78680952D01*
X158459523Y-78680952D01*
X159678571Y-79061904D02*
X159221428Y-79061904D01*
X159450000Y-79061904D02*
X159450000Y-78261904D01*
X159373809Y-78376190D01*
X159297619Y-78452380D01*
X159221428Y-78490476D01*
X98916666Y-79061904D02*
X98650000Y-78680952D01*
X98459523Y-79061904D02*
X98459523Y-78261904D01*
X98764285Y-78261904D01*
X98840476Y-78300000D01*
X98878571Y-78338095D01*
X98916666Y-78414285D01*
X98916666Y-78528571D01*
X98878571Y-78604761D01*
X98840476Y-78642857D01*
X98764285Y-78680952D01*
X98459523Y-78680952D01*
X99678571Y-79061904D02*
X99221428Y-79061904D01*
X99450000Y-79061904D02*
X99450000Y-78261904D01*
X99373809Y-78376190D01*
X99297619Y-78452380D01*
X99221428Y-78490476D01*
X158916666Y-69061904D02*
X158650000Y-68680952D01*
X158459523Y-69061904D02*
X158459523Y-68261904D01*
X158764285Y-68261904D01*
X158840476Y-68300000D01*
X158878571Y-68338095D01*
X158916666Y-68414285D01*
X158916666Y-68528571D01*
X158878571Y-68604761D01*
X158840476Y-68642857D01*
X158764285Y-68680952D01*
X158459523Y-68680952D01*
X159678571Y-69061904D02*
X159221428Y-69061904D01*
X159450000Y-69061904D02*
X159450000Y-68261904D01*
X159373809Y-68376190D01*
X159297619Y-68452380D01*
X159221428Y-68490476D01*
X98916666Y-69061904D02*
X98650000Y-68680952D01*
X98459523Y-69061904D02*
X98459523Y-68261904D01*
X98764285Y-68261904D01*
X98840476Y-68300000D01*
X98878571Y-68338095D01*
X98916666Y-68414285D01*
X98916666Y-68528571D01*
X98878571Y-68604761D01*
X98840476Y-68642857D01*
X98764285Y-68680952D01*
X98459523Y-68680952D01*
X99678571Y-69061904D02*
X99221428Y-69061904D01*
X99450000Y-69061904D02*
X99450000Y-68261904D01*
X99373809Y-68376190D01*
X99297619Y-68452380D01*
X99221428Y-68490476D01*
X158916666Y-59061904D02*
X158650000Y-58680952D01*
X158459523Y-59061904D02*
X158459523Y-58261904D01*
X158764285Y-58261904D01*
X158840476Y-58300000D01*
X158878571Y-58338095D01*
X158916666Y-58414285D01*
X158916666Y-58528571D01*
X158878571Y-58604761D01*
X158840476Y-58642857D01*
X158764285Y-58680952D01*
X158459523Y-58680952D01*
X159678571Y-59061904D02*
X159221428Y-59061904D01*
X159450000Y-59061904D02*
X159450000Y-58261904D01*
X159373809Y-58376190D01*
X159297619Y-58452380D01*
X159221428Y-58490476D01*
G04 #@! TO.C,R3*
X168116666Y-138761904D02*
X167850000Y-138380952D01*
X167659523Y-138761904D02*
X167659523Y-137961904D01*
X167964285Y-137961904D01*
X168040476Y-138000000D01*
X168078571Y-138038095D01*
X168116666Y-138114285D01*
X168116666Y-138228571D01*
X168078571Y-138304761D01*
X168040476Y-138342857D01*
X167964285Y-138380952D01*
X167659523Y-138380952D01*
X168383333Y-137961904D02*
X168878571Y-137961904D01*
X168611904Y-138266666D01*
X168726190Y-138266666D01*
X168802380Y-138304761D01*
X168840476Y-138342857D01*
X168878571Y-138419047D01*
X168878571Y-138609523D01*
X168840476Y-138685714D01*
X168802380Y-138723809D01*
X168726190Y-138761904D01*
X168497619Y-138761904D01*
X168421428Y-138723809D01*
X168383333Y-138685714D01*
X108116666Y-138761904D02*
X107850000Y-138380952D01*
X107659523Y-138761904D02*
X107659523Y-137961904D01*
X107964285Y-137961904D01*
X108040476Y-138000000D01*
X108078571Y-138038095D01*
X108116666Y-138114285D01*
X108116666Y-138228571D01*
X108078571Y-138304761D01*
X108040476Y-138342857D01*
X107964285Y-138380952D01*
X107659523Y-138380952D01*
X108383333Y-137961904D02*
X108878571Y-137961904D01*
X108611904Y-138266666D01*
X108726190Y-138266666D01*
X108802380Y-138304761D01*
X108840476Y-138342857D01*
X108878571Y-138419047D01*
X108878571Y-138609523D01*
X108840476Y-138685714D01*
X108802380Y-138723809D01*
X108726190Y-138761904D01*
X108497619Y-138761904D01*
X108421428Y-138723809D01*
X108383333Y-138685714D01*
X168116666Y-128761904D02*
X167850000Y-128380952D01*
X167659523Y-128761904D02*
X167659523Y-127961904D01*
X167964285Y-127961904D01*
X168040476Y-128000000D01*
X168078571Y-128038095D01*
X168116666Y-128114285D01*
X168116666Y-128228571D01*
X168078571Y-128304761D01*
X168040476Y-128342857D01*
X167964285Y-128380952D01*
X167659523Y-128380952D01*
X168383333Y-127961904D02*
X168878571Y-127961904D01*
X168611904Y-128266666D01*
X168726190Y-128266666D01*
X168802380Y-128304761D01*
X168840476Y-128342857D01*
X168878571Y-128419047D01*
X168878571Y-128609523D01*
X168840476Y-128685714D01*
X168802380Y-128723809D01*
X168726190Y-128761904D01*
X168497619Y-128761904D01*
X168421428Y-128723809D01*
X168383333Y-128685714D01*
X108116666Y-128761904D02*
X107850000Y-128380952D01*
X107659523Y-128761904D02*
X107659523Y-127961904D01*
X107964285Y-127961904D01*
X108040476Y-128000000D01*
X108078571Y-128038095D01*
X108116666Y-128114285D01*
X108116666Y-128228571D01*
X108078571Y-128304761D01*
X108040476Y-128342857D01*
X107964285Y-128380952D01*
X107659523Y-128380952D01*
X108383333Y-127961904D02*
X108878571Y-127961904D01*
X108611904Y-128266666D01*
X108726190Y-128266666D01*
X108802380Y-128304761D01*
X108840476Y-128342857D01*
X108878571Y-128419047D01*
X108878571Y-128609523D01*
X108840476Y-128685714D01*
X108802380Y-128723809D01*
X108726190Y-128761904D01*
X108497619Y-128761904D01*
X108421428Y-128723809D01*
X108383333Y-128685714D01*
X168116666Y-118761904D02*
X167850000Y-118380952D01*
X167659523Y-118761904D02*
X167659523Y-117961904D01*
X167964285Y-117961904D01*
X168040476Y-118000000D01*
X168078571Y-118038095D01*
X168116666Y-118114285D01*
X168116666Y-118228571D01*
X168078571Y-118304761D01*
X168040476Y-118342857D01*
X167964285Y-118380952D01*
X167659523Y-118380952D01*
X168383333Y-117961904D02*
X168878571Y-117961904D01*
X168611904Y-118266666D01*
X168726190Y-118266666D01*
X168802380Y-118304761D01*
X168840476Y-118342857D01*
X168878571Y-118419047D01*
X168878571Y-118609523D01*
X168840476Y-118685714D01*
X168802380Y-118723809D01*
X168726190Y-118761904D01*
X168497619Y-118761904D01*
X168421428Y-118723809D01*
X168383333Y-118685714D01*
X108116666Y-118761904D02*
X107850000Y-118380952D01*
X107659523Y-118761904D02*
X107659523Y-117961904D01*
X107964285Y-117961904D01*
X108040476Y-118000000D01*
X108078571Y-118038095D01*
X108116666Y-118114285D01*
X108116666Y-118228571D01*
X108078571Y-118304761D01*
X108040476Y-118342857D01*
X107964285Y-118380952D01*
X107659523Y-118380952D01*
X108383333Y-117961904D02*
X108878571Y-117961904D01*
X108611904Y-118266666D01*
X108726190Y-118266666D01*
X108802380Y-118304761D01*
X108840476Y-118342857D01*
X108878571Y-118419047D01*
X108878571Y-118609523D01*
X108840476Y-118685714D01*
X108802380Y-118723809D01*
X108726190Y-118761904D01*
X108497619Y-118761904D01*
X108421428Y-118723809D01*
X108383333Y-118685714D01*
X168116666Y-108761904D02*
X167850000Y-108380952D01*
X167659523Y-108761904D02*
X167659523Y-107961904D01*
X167964285Y-107961904D01*
X168040476Y-108000000D01*
X168078571Y-108038095D01*
X168116666Y-108114285D01*
X168116666Y-108228571D01*
X168078571Y-108304761D01*
X168040476Y-108342857D01*
X167964285Y-108380952D01*
X167659523Y-108380952D01*
X168383333Y-107961904D02*
X168878571Y-107961904D01*
X168611904Y-108266666D01*
X168726190Y-108266666D01*
X168802380Y-108304761D01*
X168840476Y-108342857D01*
X168878571Y-108419047D01*
X168878571Y-108609523D01*
X168840476Y-108685714D01*
X168802380Y-108723809D01*
X168726190Y-108761904D01*
X168497619Y-108761904D01*
X168421428Y-108723809D01*
X168383333Y-108685714D01*
X108116666Y-108761904D02*
X107850000Y-108380952D01*
X107659523Y-108761904D02*
X107659523Y-107961904D01*
X107964285Y-107961904D01*
X108040476Y-108000000D01*
X108078571Y-108038095D01*
X108116666Y-108114285D01*
X108116666Y-108228571D01*
X108078571Y-108304761D01*
X108040476Y-108342857D01*
X107964285Y-108380952D01*
X107659523Y-108380952D01*
X108383333Y-107961904D02*
X108878571Y-107961904D01*
X108611904Y-108266666D01*
X108726190Y-108266666D01*
X108802380Y-108304761D01*
X108840476Y-108342857D01*
X108878571Y-108419047D01*
X108878571Y-108609523D01*
X108840476Y-108685714D01*
X108802380Y-108723809D01*
X108726190Y-108761904D01*
X108497619Y-108761904D01*
X108421428Y-108723809D01*
X108383333Y-108685714D01*
X168116666Y-98761904D02*
X167850000Y-98380952D01*
X167659523Y-98761904D02*
X167659523Y-97961904D01*
X167964285Y-97961904D01*
X168040476Y-98000000D01*
X168078571Y-98038095D01*
X168116666Y-98114285D01*
X168116666Y-98228571D01*
X168078571Y-98304761D01*
X168040476Y-98342857D01*
X167964285Y-98380952D01*
X167659523Y-98380952D01*
X168383333Y-97961904D02*
X168878571Y-97961904D01*
X168611904Y-98266666D01*
X168726190Y-98266666D01*
X168802380Y-98304761D01*
X168840476Y-98342857D01*
X168878571Y-98419047D01*
X168878571Y-98609523D01*
X168840476Y-98685714D01*
X168802380Y-98723809D01*
X168726190Y-98761904D01*
X168497619Y-98761904D01*
X168421428Y-98723809D01*
X168383333Y-98685714D01*
X108116666Y-98761904D02*
X107850000Y-98380952D01*
X107659523Y-98761904D02*
X107659523Y-97961904D01*
X107964285Y-97961904D01*
X108040476Y-98000000D01*
X108078571Y-98038095D01*
X108116666Y-98114285D01*
X108116666Y-98228571D01*
X108078571Y-98304761D01*
X108040476Y-98342857D01*
X107964285Y-98380952D01*
X107659523Y-98380952D01*
X108383333Y-97961904D02*
X108878571Y-97961904D01*
X108611904Y-98266666D01*
X108726190Y-98266666D01*
X108802380Y-98304761D01*
X108840476Y-98342857D01*
X108878571Y-98419047D01*
X108878571Y-98609523D01*
X108840476Y-98685714D01*
X108802380Y-98723809D01*
X108726190Y-98761904D01*
X108497619Y-98761904D01*
X108421428Y-98723809D01*
X108383333Y-98685714D01*
X168116666Y-88761904D02*
X167850000Y-88380952D01*
X167659523Y-88761904D02*
X167659523Y-87961904D01*
X167964285Y-87961904D01*
X168040476Y-88000000D01*
X168078571Y-88038095D01*
X168116666Y-88114285D01*
X168116666Y-88228571D01*
X168078571Y-88304761D01*
X168040476Y-88342857D01*
X167964285Y-88380952D01*
X167659523Y-88380952D01*
X168383333Y-87961904D02*
X168878571Y-87961904D01*
X168611904Y-88266666D01*
X168726190Y-88266666D01*
X168802380Y-88304761D01*
X168840476Y-88342857D01*
X168878571Y-88419047D01*
X168878571Y-88609523D01*
X168840476Y-88685714D01*
X168802380Y-88723809D01*
X168726190Y-88761904D01*
X168497619Y-88761904D01*
X168421428Y-88723809D01*
X168383333Y-88685714D01*
X108116666Y-88761904D02*
X107850000Y-88380952D01*
X107659523Y-88761904D02*
X107659523Y-87961904D01*
X107964285Y-87961904D01*
X108040476Y-88000000D01*
X108078571Y-88038095D01*
X108116666Y-88114285D01*
X108116666Y-88228571D01*
X108078571Y-88304761D01*
X108040476Y-88342857D01*
X107964285Y-88380952D01*
X107659523Y-88380952D01*
X108383333Y-87961904D02*
X108878571Y-87961904D01*
X108611904Y-88266666D01*
X108726190Y-88266666D01*
X108802380Y-88304761D01*
X108840476Y-88342857D01*
X108878571Y-88419047D01*
X108878571Y-88609523D01*
X108840476Y-88685714D01*
X108802380Y-88723809D01*
X108726190Y-88761904D01*
X108497619Y-88761904D01*
X108421428Y-88723809D01*
X108383333Y-88685714D01*
X168116666Y-78761904D02*
X167850000Y-78380952D01*
X167659523Y-78761904D02*
X167659523Y-77961904D01*
X167964285Y-77961904D01*
X168040476Y-78000000D01*
X168078571Y-78038095D01*
X168116666Y-78114285D01*
X168116666Y-78228571D01*
X168078571Y-78304761D01*
X168040476Y-78342857D01*
X167964285Y-78380952D01*
X167659523Y-78380952D01*
X168383333Y-77961904D02*
X168878571Y-77961904D01*
X168611904Y-78266666D01*
X168726190Y-78266666D01*
X168802380Y-78304761D01*
X168840476Y-78342857D01*
X168878571Y-78419047D01*
X168878571Y-78609523D01*
X168840476Y-78685714D01*
X168802380Y-78723809D01*
X168726190Y-78761904D01*
X168497619Y-78761904D01*
X168421428Y-78723809D01*
X168383333Y-78685714D01*
X108116666Y-78761904D02*
X107850000Y-78380952D01*
X107659523Y-78761904D02*
X107659523Y-77961904D01*
X107964285Y-77961904D01*
X108040476Y-78000000D01*
X108078571Y-78038095D01*
X108116666Y-78114285D01*
X108116666Y-78228571D01*
X108078571Y-78304761D01*
X108040476Y-78342857D01*
X107964285Y-78380952D01*
X107659523Y-78380952D01*
X108383333Y-77961904D02*
X108878571Y-77961904D01*
X108611904Y-78266666D01*
X108726190Y-78266666D01*
X108802380Y-78304761D01*
X108840476Y-78342857D01*
X108878571Y-78419047D01*
X108878571Y-78609523D01*
X108840476Y-78685714D01*
X108802380Y-78723809D01*
X108726190Y-78761904D01*
X108497619Y-78761904D01*
X108421428Y-78723809D01*
X108383333Y-78685714D01*
X168116666Y-68761904D02*
X167850000Y-68380952D01*
X167659523Y-68761904D02*
X167659523Y-67961904D01*
X167964285Y-67961904D01*
X168040476Y-68000000D01*
X168078571Y-68038095D01*
X168116666Y-68114285D01*
X168116666Y-68228571D01*
X168078571Y-68304761D01*
X168040476Y-68342857D01*
X167964285Y-68380952D01*
X167659523Y-68380952D01*
X168383333Y-67961904D02*
X168878571Y-67961904D01*
X168611904Y-68266666D01*
X168726190Y-68266666D01*
X168802380Y-68304761D01*
X168840476Y-68342857D01*
X168878571Y-68419047D01*
X168878571Y-68609523D01*
X168840476Y-68685714D01*
X168802380Y-68723809D01*
X168726190Y-68761904D01*
X168497619Y-68761904D01*
X168421428Y-68723809D01*
X168383333Y-68685714D01*
X108116666Y-68761904D02*
X107850000Y-68380952D01*
X107659523Y-68761904D02*
X107659523Y-67961904D01*
X107964285Y-67961904D01*
X108040476Y-68000000D01*
X108078571Y-68038095D01*
X108116666Y-68114285D01*
X108116666Y-68228571D01*
X108078571Y-68304761D01*
X108040476Y-68342857D01*
X107964285Y-68380952D01*
X107659523Y-68380952D01*
X108383333Y-67961904D02*
X108878571Y-67961904D01*
X108611904Y-68266666D01*
X108726190Y-68266666D01*
X108802380Y-68304761D01*
X108840476Y-68342857D01*
X108878571Y-68419047D01*
X108878571Y-68609523D01*
X108840476Y-68685714D01*
X108802380Y-68723809D01*
X108726190Y-68761904D01*
X108497619Y-68761904D01*
X108421428Y-68723809D01*
X108383333Y-68685714D01*
X168116666Y-58761904D02*
X167850000Y-58380952D01*
X167659523Y-58761904D02*
X167659523Y-57961904D01*
X167964285Y-57961904D01*
X168040476Y-58000000D01*
X168078571Y-58038095D01*
X168116666Y-58114285D01*
X168116666Y-58228571D01*
X168078571Y-58304761D01*
X168040476Y-58342857D01*
X167964285Y-58380952D01*
X167659523Y-58380952D01*
X168383333Y-57961904D02*
X168878571Y-57961904D01*
X168611904Y-58266666D01*
X168726190Y-58266666D01*
X168802380Y-58304761D01*
X168840476Y-58342857D01*
X168878571Y-58419047D01*
X168878571Y-58609523D01*
X168840476Y-58685714D01*
X168802380Y-58723809D01*
X168726190Y-58761904D01*
X168497619Y-58761904D01*
X168421428Y-58723809D01*
X168383333Y-58685714D01*
G04 #@! TO.C,U1*
X162188095Y-134302380D02*
X162188095Y-135111904D01*
X162235714Y-135207142D01*
X162283333Y-135254761D01*
X162378571Y-135302380D01*
X162569047Y-135302380D01*
X162664285Y-135254761D01*
X162711904Y-135207142D01*
X162759523Y-135111904D01*
X162759523Y-134302380D01*
X163759523Y-135302380D02*
X163188095Y-135302380D01*
X163473809Y-135302380D02*
X163473809Y-134302380D01*
X163378571Y-134445238D01*
X163283333Y-134540476D01*
X163188095Y-134588095D01*
X102188095Y-134302380D02*
X102188095Y-135111904D01*
X102235714Y-135207142D01*
X102283333Y-135254761D01*
X102378571Y-135302380D01*
X102569047Y-135302380D01*
X102664285Y-135254761D01*
X102711904Y-135207142D01*
X102759523Y-135111904D01*
X102759523Y-134302380D01*
X103759523Y-135302380D02*
X103188095Y-135302380D01*
X103473809Y-135302380D02*
X103473809Y-134302380D01*
X103378571Y-134445238D01*
X103283333Y-134540476D01*
X103188095Y-134588095D01*
X162188095Y-124302380D02*
X162188095Y-125111904D01*
X162235714Y-125207142D01*
X162283333Y-125254761D01*
X162378571Y-125302380D01*
X162569047Y-125302380D01*
X162664285Y-125254761D01*
X162711904Y-125207142D01*
X162759523Y-125111904D01*
X162759523Y-124302380D01*
X163759523Y-125302380D02*
X163188095Y-125302380D01*
X163473809Y-125302380D02*
X163473809Y-124302380D01*
X163378571Y-124445238D01*
X163283333Y-124540476D01*
X163188095Y-124588095D01*
X102188095Y-124302380D02*
X102188095Y-125111904D01*
X102235714Y-125207142D01*
X102283333Y-125254761D01*
X102378571Y-125302380D01*
X102569047Y-125302380D01*
X102664285Y-125254761D01*
X102711904Y-125207142D01*
X102759523Y-125111904D01*
X102759523Y-124302380D01*
X103759523Y-125302380D02*
X103188095Y-125302380D01*
X103473809Y-125302380D02*
X103473809Y-124302380D01*
X103378571Y-124445238D01*
X103283333Y-124540476D01*
X103188095Y-124588095D01*
X162188095Y-114302380D02*
X162188095Y-115111904D01*
X162235714Y-115207142D01*
X162283333Y-115254761D01*
X162378571Y-115302380D01*
X162569047Y-115302380D01*
X162664285Y-115254761D01*
X162711904Y-115207142D01*
X162759523Y-115111904D01*
X162759523Y-114302380D01*
X163759523Y-115302380D02*
X163188095Y-115302380D01*
X163473809Y-115302380D02*
X163473809Y-114302380D01*
X163378571Y-114445238D01*
X163283333Y-114540476D01*
X163188095Y-114588095D01*
X102188095Y-114302380D02*
X102188095Y-115111904D01*
X102235714Y-115207142D01*
X102283333Y-115254761D01*
X102378571Y-115302380D01*
X102569047Y-115302380D01*
X102664285Y-115254761D01*
X102711904Y-115207142D01*
X102759523Y-115111904D01*
X102759523Y-114302380D01*
X103759523Y-115302380D02*
X103188095Y-115302380D01*
X103473809Y-115302380D02*
X103473809Y-114302380D01*
X103378571Y-114445238D01*
X103283333Y-114540476D01*
X103188095Y-114588095D01*
X162188095Y-104302380D02*
X162188095Y-105111904D01*
X162235714Y-105207142D01*
X162283333Y-105254761D01*
X162378571Y-105302380D01*
X162569047Y-105302380D01*
X162664285Y-105254761D01*
X162711904Y-105207142D01*
X162759523Y-105111904D01*
X162759523Y-104302380D01*
X163759523Y-105302380D02*
X163188095Y-105302380D01*
X163473809Y-105302380D02*
X163473809Y-104302380D01*
X163378571Y-104445238D01*
X163283333Y-104540476D01*
X163188095Y-104588095D01*
X102188095Y-104302380D02*
X102188095Y-105111904D01*
X102235714Y-105207142D01*
X102283333Y-105254761D01*
X102378571Y-105302380D01*
X102569047Y-105302380D01*
X102664285Y-105254761D01*
X102711904Y-105207142D01*
X102759523Y-105111904D01*
X102759523Y-104302380D01*
X103759523Y-105302380D02*
X103188095Y-105302380D01*
X103473809Y-105302380D02*
X103473809Y-104302380D01*
X103378571Y-104445238D01*
X103283333Y-104540476D01*
X103188095Y-104588095D01*
X162188095Y-94302380D02*
X162188095Y-95111904D01*
X162235714Y-95207142D01*
X162283333Y-95254761D01*
X162378571Y-95302380D01*
X162569047Y-95302380D01*
X162664285Y-95254761D01*
X162711904Y-95207142D01*
X162759523Y-95111904D01*
X162759523Y-94302380D01*
X163759523Y-95302380D02*
X163188095Y-95302380D01*
X163473809Y-95302380D02*
X163473809Y-94302380D01*
X163378571Y-94445238D01*
X163283333Y-94540476D01*
X163188095Y-94588095D01*
X102188095Y-94302380D02*
X102188095Y-95111904D01*
X102235714Y-95207142D01*
X102283333Y-95254761D01*
X102378571Y-95302380D01*
X102569047Y-95302380D01*
X102664285Y-95254761D01*
X102711904Y-95207142D01*
X102759523Y-95111904D01*
X102759523Y-94302380D01*
X103759523Y-95302380D02*
X103188095Y-95302380D01*
X103473809Y-95302380D02*
X103473809Y-94302380D01*
X103378571Y-94445238D01*
X103283333Y-94540476D01*
X103188095Y-94588095D01*
X162188095Y-84302380D02*
X162188095Y-85111904D01*
X162235714Y-85207142D01*
X162283333Y-85254761D01*
X162378571Y-85302380D01*
X162569047Y-85302380D01*
X162664285Y-85254761D01*
X162711904Y-85207142D01*
X162759523Y-85111904D01*
X162759523Y-84302380D01*
X163759523Y-85302380D02*
X163188095Y-85302380D01*
X163473809Y-85302380D02*
X163473809Y-84302380D01*
X163378571Y-84445238D01*
X163283333Y-84540476D01*
X163188095Y-84588095D01*
X102188095Y-84302380D02*
X102188095Y-85111904D01*
X102235714Y-85207142D01*
X102283333Y-85254761D01*
X102378571Y-85302380D01*
X102569047Y-85302380D01*
X102664285Y-85254761D01*
X102711904Y-85207142D01*
X102759523Y-85111904D01*
X102759523Y-84302380D01*
X103759523Y-85302380D02*
X103188095Y-85302380D01*
X103473809Y-85302380D02*
X103473809Y-84302380D01*
X103378571Y-84445238D01*
X103283333Y-84540476D01*
X103188095Y-84588095D01*
X162188095Y-74302380D02*
X162188095Y-75111904D01*
X162235714Y-75207142D01*
X162283333Y-75254761D01*
X162378571Y-75302380D01*
X162569047Y-75302380D01*
X162664285Y-75254761D01*
X162711904Y-75207142D01*
X162759523Y-75111904D01*
X162759523Y-74302380D01*
X163759523Y-75302380D02*
X163188095Y-75302380D01*
X163473809Y-75302380D02*
X163473809Y-74302380D01*
X163378571Y-74445238D01*
X163283333Y-74540476D01*
X163188095Y-74588095D01*
X102188095Y-74302380D02*
X102188095Y-75111904D01*
X102235714Y-75207142D01*
X102283333Y-75254761D01*
X102378571Y-75302380D01*
X102569047Y-75302380D01*
X102664285Y-75254761D01*
X102711904Y-75207142D01*
X102759523Y-75111904D01*
X102759523Y-74302380D01*
X103759523Y-75302380D02*
X103188095Y-75302380D01*
X103473809Y-75302380D02*
X103473809Y-74302380D01*
X103378571Y-74445238D01*
X103283333Y-74540476D01*
X103188095Y-74588095D01*
X162188095Y-64302380D02*
X162188095Y-65111904D01*
X162235714Y-65207142D01*
X162283333Y-65254761D01*
X162378571Y-65302380D01*
X162569047Y-65302380D01*
X162664285Y-65254761D01*
X162711904Y-65207142D01*
X162759523Y-65111904D01*
X162759523Y-64302380D01*
X163759523Y-65302380D02*
X163188095Y-65302380D01*
X163473809Y-65302380D02*
X163473809Y-64302380D01*
X163378571Y-64445238D01*
X163283333Y-64540476D01*
X163188095Y-64588095D01*
X102188095Y-64302380D02*
X102188095Y-65111904D01*
X102235714Y-65207142D01*
X102283333Y-65254761D01*
X102378571Y-65302380D01*
X102569047Y-65302380D01*
X102664285Y-65254761D01*
X102711904Y-65207142D01*
X102759523Y-65111904D01*
X102759523Y-64302380D01*
X103759523Y-65302380D02*
X103188095Y-65302380D01*
X103473809Y-65302380D02*
X103473809Y-64302380D01*
X103378571Y-64445238D01*
X103283333Y-64540476D01*
X103188095Y-64588095D01*
X162188095Y-54302380D02*
X162188095Y-55111904D01*
X162235714Y-55207142D01*
X162283333Y-55254761D01*
X162378571Y-55302380D01*
X162569047Y-55302380D01*
X162664285Y-55254761D01*
X162711904Y-55207142D01*
X162759523Y-55111904D01*
X162759523Y-54302380D01*
X163759523Y-55302380D02*
X163188095Y-55302380D01*
X163473809Y-55302380D02*
X163473809Y-54302380D01*
X163378571Y-54445238D01*
X163283333Y-54540476D01*
X163188095Y-54588095D01*
G04 #@! TO.C,D1*
X156411904Y-138552380D02*
X156411904Y-137552380D01*
X156650000Y-137552380D01*
X156792857Y-137600000D01*
X156888095Y-137695238D01*
X156935714Y-137790476D01*
X156983333Y-137980952D01*
X156983333Y-138123809D01*
X156935714Y-138314285D01*
X156888095Y-138409523D01*
X156792857Y-138504761D01*
X156650000Y-138552380D01*
X156411904Y-138552380D01*
X157935714Y-138552380D02*
X157364285Y-138552380D01*
X157650000Y-138552380D02*
X157650000Y-137552380D01*
X157554761Y-137695238D01*
X157459523Y-137790476D01*
X157364285Y-137838095D01*
X96411904Y-138552380D02*
X96411904Y-137552380D01*
X96650000Y-137552380D01*
X96792857Y-137600000D01*
X96888095Y-137695238D01*
X96935714Y-137790476D01*
X96983333Y-137980952D01*
X96983333Y-138123809D01*
X96935714Y-138314285D01*
X96888095Y-138409523D01*
X96792857Y-138504761D01*
X96650000Y-138552380D01*
X96411904Y-138552380D01*
X97935714Y-138552380D02*
X97364285Y-138552380D01*
X97650000Y-138552380D02*
X97650000Y-137552380D01*
X97554761Y-137695238D01*
X97459523Y-137790476D01*
X97364285Y-137838095D01*
X156411904Y-128552380D02*
X156411904Y-127552380D01*
X156650000Y-127552380D01*
X156792857Y-127600000D01*
X156888095Y-127695238D01*
X156935714Y-127790476D01*
X156983333Y-127980952D01*
X156983333Y-128123809D01*
X156935714Y-128314285D01*
X156888095Y-128409523D01*
X156792857Y-128504761D01*
X156650000Y-128552380D01*
X156411904Y-128552380D01*
X157935714Y-128552380D02*
X157364285Y-128552380D01*
X157650000Y-128552380D02*
X157650000Y-127552380D01*
X157554761Y-127695238D01*
X157459523Y-127790476D01*
X157364285Y-127838095D01*
X96411904Y-128552380D02*
X96411904Y-127552380D01*
X96650000Y-127552380D01*
X96792857Y-127600000D01*
X96888095Y-127695238D01*
X96935714Y-127790476D01*
X96983333Y-127980952D01*
X96983333Y-128123809D01*
X96935714Y-128314285D01*
X96888095Y-128409523D01*
X96792857Y-128504761D01*
X96650000Y-128552380D01*
X96411904Y-128552380D01*
X97935714Y-128552380D02*
X97364285Y-128552380D01*
X97650000Y-128552380D02*
X97650000Y-127552380D01*
X97554761Y-127695238D01*
X97459523Y-127790476D01*
X97364285Y-127838095D01*
X156411904Y-118552380D02*
X156411904Y-117552380D01*
X156650000Y-117552380D01*
X156792857Y-117600000D01*
X156888095Y-117695238D01*
X156935714Y-117790476D01*
X156983333Y-117980952D01*
X156983333Y-118123809D01*
X156935714Y-118314285D01*
X156888095Y-118409523D01*
X156792857Y-118504761D01*
X156650000Y-118552380D01*
X156411904Y-118552380D01*
X157935714Y-118552380D02*
X157364285Y-118552380D01*
X157650000Y-118552380D02*
X157650000Y-117552380D01*
X157554761Y-117695238D01*
X157459523Y-117790476D01*
X157364285Y-117838095D01*
X96411904Y-118552380D02*
X96411904Y-117552380D01*
X96650000Y-117552380D01*
X96792857Y-117600000D01*
X96888095Y-117695238D01*
X96935714Y-117790476D01*
X96983333Y-117980952D01*
X96983333Y-118123809D01*
X96935714Y-118314285D01*
X96888095Y-118409523D01*
X96792857Y-118504761D01*
X96650000Y-118552380D01*
X96411904Y-118552380D01*
X97935714Y-118552380D02*
X97364285Y-118552380D01*
X97650000Y-118552380D02*
X97650000Y-117552380D01*
X97554761Y-117695238D01*
X97459523Y-117790476D01*
X97364285Y-117838095D01*
X156411904Y-108552380D02*
X156411904Y-107552380D01*
X156650000Y-107552380D01*
X156792857Y-107600000D01*
X156888095Y-107695238D01*
X156935714Y-107790476D01*
X156983333Y-107980952D01*
X156983333Y-108123809D01*
X156935714Y-108314285D01*
X156888095Y-108409523D01*
X156792857Y-108504761D01*
X156650000Y-108552380D01*
X156411904Y-108552380D01*
X157935714Y-108552380D02*
X157364285Y-108552380D01*
X157650000Y-108552380D02*
X157650000Y-107552380D01*
X157554761Y-107695238D01*
X157459523Y-107790476D01*
X157364285Y-107838095D01*
X96411904Y-108552380D02*
X96411904Y-107552380D01*
X96650000Y-107552380D01*
X96792857Y-107600000D01*
X96888095Y-107695238D01*
X96935714Y-107790476D01*
X96983333Y-107980952D01*
X96983333Y-108123809D01*
X96935714Y-108314285D01*
X96888095Y-108409523D01*
X96792857Y-108504761D01*
X96650000Y-108552380D01*
X96411904Y-108552380D01*
X97935714Y-108552380D02*
X97364285Y-108552380D01*
X97650000Y-108552380D02*
X97650000Y-107552380D01*
X97554761Y-107695238D01*
X97459523Y-107790476D01*
X97364285Y-107838095D01*
X156411904Y-98552380D02*
X156411904Y-97552380D01*
X156650000Y-97552380D01*
X156792857Y-97600000D01*
X156888095Y-97695238D01*
X156935714Y-97790476D01*
X156983333Y-97980952D01*
X156983333Y-98123809D01*
X156935714Y-98314285D01*
X156888095Y-98409523D01*
X156792857Y-98504761D01*
X156650000Y-98552380D01*
X156411904Y-98552380D01*
X157935714Y-98552380D02*
X157364285Y-98552380D01*
X157650000Y-98552380D02*
X157650000Y-97552380D01*
X157554761Y-97695238D01*
X157459523Y-97790476D01*
X157364285Y-97838095D01*
X96411904Y-98552380D02*
X96411904Y-97552380D01*
X96650000Y-97552380D01*
X96792857Y-97600000D01*
X96888095Y-97695238D01*
X96935714Y-97790476D01*
X96983333Y-97980952D01*
X96983333Y-98123809D01*
X96935714Y-98314285D01*
X96888095Y-98409523D01*
X96792857Y-98504761D01*
X96650000Y-98552380D01*
X96411904Y-98552380D01*
X97935714Y-98552380D02*
X97364285Y-98552380D01*
X97650000Y-98552380D02*
X97650000Y-97552380D01*
X97554761Y-97695238D01*
X97459523Y-97790476D01*
X97364285Y-97838095D01*
X156411904Y-88552380D02*
X156411904Y-87552380D01*
X156650000Y-87552380D01*
X156792857Y-87600000D01*
X156888095Y-87695238D01*
X156935714Y-87790476D01*
X156983333Y-87980952D01*
X156983333Y-88123809D01*
X156935714Y-88314285D01*
X156888095Y-88409523D01*
X156792857Y-88504761D01*
X156650000Y-88552380D01*
X156411904Y-88552380D01*
X157935714Y-88552380D02*
X157364285Y-88552380D01*
X157650000Y-88552380D02*
X157650000Y-87552380D01*
X157554761Y-87695238D01*
X157459523Y-87790476D01*
X157364285Y-87838095D01*
X96411904Y-88552380D02*
X96411904Y-87552380D01*
X96650000Y-87552380D01*
X96792857Y-87600000D01*
X96888095Y-87695238D01*
X96935714Y-87790476D01*
X96983333Y-87980952D01*
X96983333Y-88123809D01*
X96935714Y-88314285D01*
X96888095Y-88409523D01*
X96792857Y-88504761D01*
X96650000Y-88552380D01*
X96411904Y-88552380D01*
X97935714Y-88552380D02*
X97364285Y-88552380D01*
X97650000Y-88552380D02*
X97650000Y-87552380D01*
X97554761Y-87695238D01*
X97459523Y-87790476D01*
X97364285Y-87838095D01*
X156411904Y-78552380D02*
X156411904Y-77552380D01*
X156650000Y-77552380D01*
X156792857Y-77600000D01*
X156888095Y-77695238D01*
X156935714Y-77790476D01*
X156983333Y-77980952D01*
X156983333Y-78123809D01*
X156935714Y-78314285D01*
X156888095Y-78409523D01*
X156792857Y-78504761D01*
X156650000Y-78552380D01*
X156411904Y-78552380D01*
X157935714Y-78552380D02*
X157364285Y-78552380D01*
X157650000Y-78552380D02*
X157650000Y-77552380D01*
X157554761Y-77695238D01*
X157459523Y-77790476D01*
X157364285Y-77838095D01*
X96411904Y-78552380D02*
X96411904Y-77552380D01*
X96650000Y-77552380D01*
X96792857Y-77600000D01*
X96888095Y-77695238D01*
X96935714Y-77790476D01*
X96983333Y-77980952D01*
X96983333Y-78123809D01*
X96935714Y-78314285D01*
X96888095Y-78409523D01*
X96792857Y-78504761D01*
X96650000Y-78552380D01*
X96411904Y-78552380D01*
X97935714Y-78552380D02*
X97364285Y-78552380D01*
X97650000Y-78552380D02*
X97650000Y-77552380D01*
X97554761Y-77695238D01*
X97459523Y-77790476D01*
X97364285Y-77838095D01*
X156411904Y-68552380D02*
X156411904Y-67552380D01*
X156650000Y-67552380D01*
X156792857Y-67600000D01*
X156888095Y-67695238D01*
X156935714Y-67790476D01*
X156983333Y-67980952D01*
X156983333Y-68123809D01*
X156935714Y-68314285D01*
X156888095Y-68409523D01*
X156792857Y-68504761D01*
X156650000Y-68552380D01*
X156411904Y-68552380D01*
X157935714Y-68552380D02*
X157364285Y-68552380D01*
X157650000Y-68552380D02*
X157650000Y-67552380D01*
X157554761Y-67695238D01*
X157459523Y-67790476D01*
X157364285Y-67838095D01*
X96411904Y-68552380D02*
X96411904Y-67552380D01*
X96650000Y-67552380D01*
X96792857Y-67600000D01*
X96888095Y-67695238D01*
X96935714Y-67790476D01*
X96983333Y-67980952D01*
X96983333Y-68123809D01*
X96935714Y-68314285D01*
X96888095Y-68409523D01*
X96792857Y-68504761D01*
X96650000Y-68552380D01*
X96411904Y-68552380D01*
X97935714Y-68552380D02*
X97364285Y-68552380D01*
X97650000Y-68552380D02*
X97650000Y-67552380D01*
X97554761Y-67695238D01*
X97459523Y-67790476D01*
X97364285Y-67838095D01*
X156411904Y-58552380D02*
X156411904Y-57552380D01*
X156650000Y-57552380D01*
X156792857Y-57600000D01*
X156888095Y-57695238D01*
X156935714Y-57790476D01*
X156983333Y-57980952D01*
X156983333Y-58123809D01*
X156935714Y-58314285D01*
X156888095Y-58409523D01*
X156792857Y-58504761D01*
X156650000Y-58552380D01*
X156411904Y-58552380D01*
X157935714Y-58552380D02*
X157364285Y-58552380D01*
X157650000Y-58552380D02*
X157650000Y-57552380D01*
X157554761Y-57695238D01*
X157459523Y-57790476D01*
X157364285Y-57838095D01*
G04 #@! TO.C,C2*
X179316666Y-138585714D02*
X179278571Y-138623809D01*
X179164285Y-138661904D01*
X179088095Y-138661904D01*
X178973809Y-138623809D01*
X178897619Y-138547619D01*
X178859523Y-138471428D01*
X178821428Y-138319047D01*
X178821428Y-138204761D01*
X178859523Y-138052380D01*
X178897619Y-137976190D01*
X178973809Y-137900000D01*
X179088095Y-137861904D01*
X179164285Y-137861904D01*
X179278571Y-137900000D01*
X179316666Y-137938095D01*
X179621428Y-137938095D02*
X179659523Y-137900000D01*
X179735714Y-137861904D01*
X179926190Y-137861904D01*
X180002380Y-137900000D01*
X180040476Y-137938095D01*
X180078571Y-138014285D01*
X180078571Y-138090476D01*
X180040476Y-138204761D01*
X179583333Y-138661904D01*
X180078571Y-138661904D01*
X119316666Y-138585714D02*
X119278571Y-138623809D01*
X119164285Y-138661904D01*
X119088095Y-138661904D01*
X118973809Y-138623809D01*
X118897619Y-138547619D01*
X118859523Y-138471428D01*
X118821428Y-138319047D01*
X118821428Y-138204761D01*
X118859523Y-138052380D01*
X118897619Y-137976190D01*
X118973809Y-137900000D01*
X119088095Y-137861904D01*
X119164285Y-137861904D01*
X119278571Y-137900000D01*
X119316666Y-137938095D01*
X119621428Y-137938095D02*
X119659523Y-137900000D01*
X119735714Y-137861904D01*
X119926190Y-137861904D01*
X120002380Y-137900000D01*
X120040476Y-137938095D01*
X120078571Y-138014285D01*
X120078571Y-138090476D01*
X120040476Y-138204761D01*
X119583333Y-138661904D01*
X120078571Y-138661904D01*
X179316666Y-128585714D02*
X179278571Y-128623809D01*
X179164285Y-128661904D01*
X179088095Y-128661904D01*
X178973809Y-128623809D01*
X178897619Y-128547619D01*
X178859523Y-128471428D01*
X178821428Y-128319047D01*
X178821428Y-128204761D01*
X178859523Y-128052380D01*
X178897619Y-127976190D01*
X178973809Y-127900000D01*
X179088095Y-127861904D01*
X179164285Y-127861904D01*
X179278571Y-127900000D01*
X179316666Y-127938095D01*
X179621428Y-127938095D02*
X179659523Y-127900000D01*
X179735714Y-127861904D01*
X179926190Y-127861904D01*
X180002380Y-127900000D01*
X180040476Y-127938095D01*
X180078571Y-128014285D01*
X180078571Y-128090476D01*
X180040476Y-128204761D01*
X179583333Y-128661904D01*
X180078571Y-128661904D01*
X119316666Y-128585714D02*
X119278571Y-128623809D01*
X119164285Y-128661904D01*
X119088095Y-128661904D01*
X118973809Y-128623809D01*
X118897619Y-128547619D01*
X118859523Y-128471428D01*
X118821428Y-128319047D01*
X118821428Y-128204761D01*
X118859523Y-128052380D01*
X118897619Y-127976190D01*
X118973809Y-127900000D01*
X119088095Y-127861904D01*
X119164285Y-127861904D01*
X119278571Y-127900000D01*
X119316666Y-127938095D01*
X119621428Y-127938095D02*
X119659523Y-127900000D01*
X119735714Y-127861904D01*
X119926190Y-127861904D01*
X120002380Y-127900000D01*
X120040476Y-127938095D01*
X120078571Y-128014285D01*
X120078571Y-128090476D01*
X120040476Y-128204761D01*
X119583333Y-128661904D01*
X120078571Y-128661904D01*
X179316666Y-118585714D02*
X179278571Y-118623809D01*
X179164285Y-118661904D01*
X179088095Y-118661904D01*
X178973809Y-118623809D01*
X178897619Y-118547619D01*
X178859523Y-118471428D01*
X178821428Y-118319047D01*
X178821428Y-118204761D01*
X178859523Y-118052380D01*
X178897619Y-117976190D01*
X178973809Y-117900000D01*
X179088095Y-117861904D01*
X179164285Y-117861904D01*
X179278571Y-117900000D01*
X179316666Y-117938095D01*
X179621428Y-117938095D02*
X179659523Y-117900000D01*
X179735714Y-117861904D01*
X179926190Y-117861904D01*
X180002380Y-117900000D01*
X180040476Y-117938095D01*
X180078571Y-118014285D01*
X180078571Y-118090476D01*
X180040476Y-118204761D01*
X179583333Y-118661904D01*
X180078571Y-118661904D01*
X119316666Y-118585714D02*
X119278571Y-118623809D01*
X119164285Y-118661904D01*
X119088095Y-118661904D01*
X118973809Y-118623809D01*
X118897619Y-118547619D01*
X118859523Y-118471428D01*
X118821428Y-118319047D01*
X118821428Y-118204761D01*
X118859523Y-118052380D01*
X118897619Y-117976190D01*
X118973809Y-117900000D01*
X119088095Y-117861904D01*
X119164285Y-117861904D01*
X119278571Y-117900000D01*
X119316666Y-117938095D01*
X119621428Y-117938095D02*
X119659523Y-117900000D01*
X119735714Y-117861904D01*
X119926190Y-117861904D01*
X120002380Y-117900000D01*
X120040476Y-117938095D01*
X120078571Y-118014285D01*
X120078571Y-118090476D01*
X120040476Y-118204761D01*
X119583333Y-118661904D01*
X120078571Y-118661904D01*
X179316666Y-108585714D02*
X179278571Y-108623809D01*
X179164285Y-108661904D01*
X179088095Y-108661904D01*
X178973809Y-108623809D01*
X178897619Y-108547619D01*
X178859523Y-108471428D01*
X178821428Y-108319047D01*
X178821428Y-108204761D01*
X178859523Y-108052380D01*
X178897619Y-107976190D01*
X178973809Y-107900000D01*
X179088095Y-107861904D01*
X179164285Y-107861904D01*
X179278571Y-107900000D01*
X179316666Y-107938095D01*
X179621428Y-107938095D02*
X179659523Y-107900000D01*
X179735714Y-107861904D01*
X179926190Y-107861904D01*
X180002380Y-107900000D01*
X180040476Y-107938095D01*
X180078571Y-108014285D01*
X180078571Y-108090476D01*
X180040476Y-108204761D01*
X179583333Y-108661904D01*
X180078571Y-108661904D01*
X119316666Y-108585714D02*
X119278571Y-108623809D01*
X119164285Y-108661904D01*
X119088095Y-108661904D01*
X118973809Y-108623809D01*
X118897619Y-108547619D01*
X118859523Y-108471428D01*
X118821428Y-108319047D01*
X118821428Y-108204761D01*
X118859523Y-108052380D01*
X118897619Y-107976190D01*
X118973809Y-107900000D01*
X119088095Y-107861904D01*
X119164285Y-107861904D01*
X119278571Y-107900000D01*
X119316666Y-107938095D01*
X119621428Y-107938095D02*
X119659523Y-107900000D01*
X119735714Y-107861904D01*
X119926190Y-107861904D01*
X120002380Y-107900000D01*
X120040476Y-107938095D01*
X120078571Y-108014285D01*
X120078571Y-108090476D01*
X120040476Y-108204761D01*
X119583333Y-108661904D01*
X120078571Y-108661904D01*
X179316666Y-98585714D02*
X179278571Y-98623809D01*
X179164285Y-98661904D01*
X179088095Y-98661904D01*
X178973809Y-98623809D01*
X178897619Y-98547619D01*
X178859523Y-98471428D01*
X178821428Y-98319047D01*
X178821428Y-98204761D01*
X178859523Y-98052380D01*
X178897619Y-97976190D01*
X178973809Y-97900000D01*
X179088095Y-97861904D01*
X179164285Y-97861904D01*
X179278571Y-97900000D01*
X179316666Y-97938095D01*
X179621428Y-97938095D02*
X179659523Y-97900000D01*
X179735714Y-97861904D01*
X179926190Y-97861904D01*
X180002380Y-97900000D01*
X180040476Y-97938095D01*
X180078571Y-98014285D01*
X180078571Y-98090476D01*
X180040476Y-98204761D01*
X179583333Y-98661904D01*
X180078571Y-98661904D01*
X119316666Y-98585714D02*
X119278571Y-98623809D01*
X119164285Y-98661904D01*
X119088095Y-98661904D01*
X118973809Y-98623809D01*
X118897619Y-98547619D01*
X118859523Y-98471428D01*
X118821428Y-98319047D01*
X118821428Y-98204761D01*
X118859523Y-98052380D01*
X118897619Y-97976190D01*
X118973809Y-97900000D01*
X119088095Y-97861904D01*
X119164285Y-97861904D01*
X119278571Y-97900000D01*
X119316666Y-97938095D01*
X119621428Y-97938095D02*
X119659523Y-97900000D01*
X119735714Y-97861904D01*
X119926190Y-97861904D01*
X120002380Y-97900000D01*
X120040476Y-97938095D01*
X120078571Y-98014285D01*
X120078571Y-98090476D01*
X120040476Y-98204761D01*
X119583333Y-98661904D01*
X120078571Y-98661904D01*
X179316666Y-88585714D02*
X179278571Y-88623809D01*
X179164285Y-88661904D01*
X179088095Y-88661904D01*
X178973809Y-88623809D01*
X178897619Y-88547619D01*
X178859523Y-88471428D01*
X178821428Y-88319047D01*
X178821428Y-88204761D01*
X178859523Y-88052380D01*
X178897619Y-87976190D01*
X178973809Y-87900000D01*
X179088095Y-87861904D01*
X179164285Y-87861904D01*
X179278571Y-87900000D01*
X179316666Y-87938095D01*
X179621428Y-87938095D02*
X179659523Y-87900000D01*
X179735714Y-87861904D01*
X179926190Y-87861904D01*
X180002380Y-87900000D01*
X180040476Y-87938095D01*
X180078571Y-88014285D01*
X180078571Y-88090476D01*
X180040476Y-88204761D01*
X179583333Y-88661904D01*
X180078571Y-88661904D01*
X119316666Y-88585714D02*
X119278571Y-88623809D01*
X119164285Y-88661904D01*
X119088095Y-88661904D01*
X118973809Y-88623809D01*
X118897619Y-88547619D01*
X118859523Y-88471428D01*
X118821428Y-88319047D01*
X118821428Y-88204761D01*
X118859523Y-88052380D01*
X118897619Y-87976190D01*
X118973809Y-87900000D01*
X119088095Y-87861904D01*
X119164285Y-87861904D01*
X119278571Y-87900000D01*
X119316666Y-87938095D01*
X119621428Y-87938095D02*
X119659523Y-87900000D01*
X119735714Y-87861904D01*
X119926190Y-87861904D01*
X120002380Y-87900000D01*
X120040476Y-87938095D01*
X120078571Y-88014285D01*
X120078571Y-88090476D01*
X120040476Y-88204761D01*
X119583333Y-88661904D01*
X120078571Y-88661904D01*
X179316666Y-78585714D02*
X179278571Y-78623809D01*
X179164285Y-78661904D01*
X179088095Y-78661904D01*
X178973809Y-78623809D01*
X178897619Y-78547619D01*
X178859523Y-78471428D01*
X178821428Y-78319047D01*
X178821428Y-78204761D01*
X178859523Y-78052380D01*
X178897619Y-77976190D01*
X178973809Y-77900000D01*
X179088095Y-77861904D01*
X179164285Y-77861904D01*
X179278571Y-77900000D01*
X179316666Y-77938095D01*
X179621428Y-77938095D02*
X179659523Y-77900000D01*
X179735714Y-77861904D01*
X179926190Y-77861904D01*
X180002380Y-77900000D01*
X180040476Y-77938095D01*
X180078571Y-78014285D01*
X180078571Y-78090476D01*
X180040476Y-78204761D01*
X179583333Y-78661904D01*
X180078571Y-78661904D01*
X119316666Y-78585714D02*
X119278571Y-78623809D01*
X119164285Y-78661904D01*
X119088095Y-78661904D01*
X118973809Y-78623809D01*
X118897619Y-78547619D01*
X118859523Y-78471428D01*
X118821428Y-78319047D01*
X118821428Y-78204761D01*
X118859523Y-78052380D01*
X118897619Y-77976190D01*
X118973809Y-77900000D01*
X119088095Y-77861904D01*
X119164285Y-77861904D01*
X119278571Y-77900000D01*
X119316666Y-77938095D01*
X119621428Y-77938095D02*
X119659523Y-77900000D01*
X119735714Y-77861904D01*
X119926190Y-77861904D01*
X120002380Y-77900000D01*
X120040476Y-77938095D01*
X120078571Y-78014285D01*
X120078571Y-78090476D01*
X120040476Y-78204761D01*
X119583333Y-78661904D01*
X120078571Y-78661904D01*
X179316666Y-68585714D02*
X179278571Y-68623809D01*
X179164285Y-68661904D01*
X179088095Y-68661904D01*
X178973809Y-68623809D01*
X178897619Y-68547619D01*
X178859523Y-68471428D01*
X178821428Y-68319047D01*
X178821428Y-68204761D01*
X178859523Y-68052380D01*
X178897619Y-67976190D01*
X178973809Y-67900000D01*
X179088095Y-67861904D01*
X179164285Y-67861904D01*
X179278571Y-67900000D01*
X179316666Y-67938095D01*
X179621428Y-67938095D02*
X179659523Y-67900000D01*
X179735714Y-67861904D01*
X179926190Y-67861904D01*
X180002380Y-67900000D01*
X180040476Y-67938095D01*
X180078571Y-68014285D01*
X180078571Y-68090476D01*
X180040476Y-68204761D01*
X179583333Y-68661904D01*
X180078571Y-68661904D01*
X119316666Y-68585714D02*
X119278571Y-68623809D01*
X119164285Y-68661904D01*
X119088095Y-68661904D01*
X118973809Y-68623809D01*
X118897619Y-68547619D01*
X118859523Y-68471428D01*
X118821428Y-68319047D01*
X118821428Y-68204761D01*
X118859523Y-68052380D01*
X118897619Y-67976190D01*
X118973809Y-67900000D01*
X119088095Y-67861904D01*
X119164285Y-67861904D01*
X119278571Y-67900000D01*
X119316666Y-67938095D01*
X119621428Y-67938095D02*
X119659523Y-67900000D01*
X119735714Y-67861904D01*
X119926190Y-67861904D01*
X120002380Y-67900000D01*
X120040476Y-67938095D01*
X120078571Y-68014285D01*
X120078571Y-68090476D01*
X120040476Y-68204761D01*
X119583333Y-68661904D01*
X120078571Y-68661904D01*
X179316666Y-58585714D02*
X179278571Y-58623809D01*
X179164285Y-58661904D01*
X179088095Y-58661904D01*
X178973809Y-58623809D01*
X178897619Y-58547619D01*
X178859523Y-58471428D01*
X178821428Y-58319047D01*
X178821428Y-58204761D01*
X178859523Y-58052380D01*
X178897619Y-57976190D01*
X178973809Y-57900000D01*
X179088095Y-57861904D01*
X179164285Y-57861904D01*
X179278571Y-57900000D01*
X179316666Y-57938095D01*
X179621428Y-57938095D02*
X179659523Y-57900000D01*
X179735714Y-57861904D01*
X179926190Y-57861904D01*
X180002380Y-57900000D01*
X180040476Y-57938095D01*
X180078571Y-58014285D01*
X180078571Y-58090476D01*
X180040476Y-58204761D01*
X179583333Y-58661904D01*
X180078571Y-58661904D01*
G04 #@! TO.C,C1*
X173083333Y-137557142D02*
X173035714Y-137604761D01*
X172892857Y-137652380D01*
X172797619Y-137652380D01*
X172654761Y-137604761D01*
X172559523Y-137509523D01*
X172511904Y-137414285D01*
X172464285Y-137223809D01*
X172464285Y-137080952D01*
X172511904Y-136890476D01*
X172559523Y-136795238D01*
X172654761Y-136700000D01*
X172797619Y-136652380D01*
X172892857Y-136652380D01*
X173035714Y-136700000D01*
X173083333Y-136747619D01*
X174035714Y-137652380D02*
X173464285Y-137652380D01*
X173750000Y-137652380D02*
X173750000Y-136652380D01*
X173654761Y-136795238D01*
X173559523Y-136890476D01*
X173464285Y-136938095D01*
X113083333Y-137557142D02*
X113035714Y-137604761D01*
X112892857Y-137652380D01*
X112797619Y-137652380D01*
X112654761Y-137604761D01*
X112559523Y-137509523D01*
X112511904Y-137414285D01*
X112464285Y-137223809D01*
X112464285Y-137080952D01*
X112511904Y-136890476D01*
X112559523Y-136795238D01*
X112654761Y-136700000D01*
X112797619Y-136652380D01*
X112892857Y-136652380D01*
X113035714Y-136700000D01*
X113083333Y-136747619D01*
X114035714Y-137652380D02*
X113464285Y-137652380D01*
X113750000Y-137652380D02*
X113750000Y-136652380D01*
X113654761Y-136795238D01*
X113559523Y-136890476D01*
X113464285Y-136938095D01*
X173083333Y-127557142D02*
X173035714Y-127604761D01*
X172892857Y-127652380D01*
X172797619Y-127652380D01*
X172654761Y-127604761D01*
X172559523Y-127509523D01*
X172511904Y-127414285D01*
X172464285Y-127223809D01*
X172464285Y-127080952D01*
X172511904Y-126890476D01*
X172559523Y-126795238D01*
X172654761Y-126700000D01*
X172797619Y-126652380D01*
X172892857Y-126652380D01*
X173035714Y-126700000D01*
X173083333Y-126747619D01*
X174035714Y-127652380D02*
X173464285Y-127652380D01*
X173750000Y-127652380D02*
X173750000Y-126652380D01*
X173654761Y-126795238D01*
X173559523Y-126890476D01*
X173464285Y-126938095D01*
X113083333Y-127557142D02*
X113035714Y-127604761D01*
X112892857Y-127652380D01*
X112797619Y-127652380D01*
X112654761Y-127604761D01*
X112559523Y-127509523D01*
X112511904Y-127414285D01*
X112464285Y-127223809D01*
X112464285Y-127080952D01*
X112511904Y-126890476D01*
X112559523Y-126795238D01*
X112654761Y-126700000D01*
X112797619Y-126652380D01*
X112892857Y-126652380D01*
X113035714Y-126700000D01*
X113083333Y-126747619D01*
X114035714Y-127652380D02*
X113464285Y-127652380D01*
X113750000Y-127652380D02*
X113750000Y-126652380D01*
X113654761Y-126795238D01*
X113559523Y-126890476D01*
X113464285Y-126938095D01*
X173083333Y-117557142D02*
X173035714Y-117604761D01*
X172892857Y-117652380D01*
X172797619Y-117652380D01*
X172654761Y-117604761D01*
X172559523Y-117509523D01*
X172511904Y-117414285D01*
X172464285Y-117223809D01*
X172464285Y-117080952D01*
X172511904Y-116890476D01*
X172559523Y-116795238D01*
X172654761Y-116700000D01*
X172797619Y-116652380D01*
X172892857Y-116652380D01*
X173035714Y-116700000D01*
X173083333Y-116747619D01*
X174035714Y-117652380D02*
X173464285Y-117652380D01*
X173750000Y-117652380D02*
X173750000Y-116652380D01*
X173654761Y-116795238D01*
X173559523Y-116890476D01*
X173464285Y-116938095D01*
X113083333Y-117557142D02*
X113035714Y-117604761D01*
X112892857Y-117652380D01*
X112797619Y-117652380D01*
X112654761Y-117604761D01*
X112559523Y-117509523D01*
X112511904Y-117414285D01*
X112464285Y-117223809D01*
X112464285Y-117080952D01*
X112511904Y-116890476D01*
X112559523Y-116795238D01*
X112654761Y-116700000D01*
X112797619Y-116652380D01*
X112892857Y-116652380D01*
X113035714Y-116700000D01*
X113083333Y-116747619D01*
X114035714Y-117652380D02*
X113464285Y-117652380D01*
X113750000Y-117652380D02*
X113750000Y-116652380D01*
X113654761Y-116795238D01*
X113559523Y-116890476D01*
X113464285Y-116938095D01*
X173083333Y-107557142D02*
X173035714Y-107604761D01*
X172892857Y-107652380D01*
X172797619Y-107652380D01*
X172654761Y-107604761D01*
X172559523Y-107509523D01*
X172511904Y-107414285D01*
X172464285Y-107223809D01*
X172464285Y-107080952D01*
X172511904Y-106890476D01*
X172559523Y-106795238D01*
X172654761Y-106700000D01*
X172797619Y-106652380D01*
X172892857Y-106652380D01*
X173035714Y-106700000D01*
X173083333Y-106747619D01*
X174035714Y-107652380D02*
X173464285Y-107652380D01*
X173750000Y-107652380D02*
X173750000Y-106652380D01*
X173654761Y-106795238D01*
X173559523Y-106890476D01*
X173464285Y-106938095D01*
X113083333Y-107557142D02*
X113035714Y-107604761D01*
X112892857Y-107652380D01*
X112797619Y-107652380D01*
X112654761Y-107604761D01*
X112559523Y-107509523D01*
X112511904Y-107414285D01*
X112464285Y-107223809D01*
X112464285Y-107080952D01*
X112511904Y-106890476D01*
X112559523Y-106795238D01*
X112654761Y-106700000D01*
X112797619Y-106652380D01*
X112892857Y-106652380D01*
X113035714Y-106700000D01*
X113083333Y-106747619D01*
X114035714Y-107652380D02*
X113464285Y-107652380D01*
X113750000Y-107652380D02*
X113750000Y-106652380D01*
X113654761Y-106795238D01*
X113559523Y-106890476D01*
X113464285Y-106938095D01*
X173083333Y-97557142D02*
X173035714Y-97604761D01*
X172892857Y-97652380D01*
X172797619Y-97652380D01*
X172654761Y-97604761D01*
X172559523Y-97509523D01*
X172511904Y-97414285D01*
X172464285Y-97223809D01*
X172464285Y-97080952D01*
X172511904Y-96890476D01*
X172559523Y-96795238D01*
X172654761Y-96700000D01*
X172797619Y-96652380D01*
X172892857Y-96652380D01*
X173035714Y-96700000D01*
X173083333Y-96747619D01*
X174035714Y-97652380D02*
X173464285Y-97652380D01*
X173750000Y-97652380D02*
X173750000Y-96652380D01*
X173654761Y-96795238D01*
X173559523Y-96890476D01*
X173464285Y-96938095D01*
X113083333Y-97557142D02*
X113035714Y-97604761D01*
X112892857Y-97652380D01*
X112797619Y-97652380D01*
X112654761Y-97604761D01*
X112559523Y-97509523D01*
X112511904Y-97414285D01*
X112464285Y-97223809D01*
X112464285Y-97080952D01*
X112511904Y-96890476D01*
X112559523Y-96795238D01*
X112654761Y-96700000D01*
X112797619Y-96652380D01*
X112892857Y-96652380D01*
X113035714Y-96700000D01*
X113083333Y-96747619D01*
X114035714Y-97652380D02*
X113464285Y-97652380D01*
X113750000Y-97652380D02*
X113750000Y-96652380D01*
X113654761Y-96795238D01*
X113559523Y-96890476D01*
X113464285Y-96938095D01*
X173083333Y-87557142D02*
X173035714Y-87604761D01*
X172892857Y-87652380D01*
X172797619Y-87652380D01*
X172654761Y-87604761D01*
X172559523Y-87509523D01*
X172511904Y-87414285D01*
X172464285Y-87223809D01*
X172464285Y-87080952D01*
X172511904Y-86890476D01*
X172559523Y-86795238D01*
X172654761Y-86700000D01*
X172797619Y-86652380D01*
X172892857Y-86652380D01*
X173035714Y-86700000D01*
X173083333Y-86747619D01*
X174035714Y-87652380D02*
X173464285Y-87652380D01*
X173750000Y-87652380D02*
X173750000Y-86652380D01*
X173654761Y-86795238D01*
X173559523Y-86890476D01*
X173464285Y-86938095D01*
X113083333Y-87557142D02*
X113035714Y-87604761D01*
X112892857Y-87652380D01*
X112797619Y-87652380D01*
X112654761Y-87604761D01*
X112559523Y-87509523D01*
X112511904Y-87414285D01*
X112464285Y-87223809D01*
X112464285Y-87080952D01*
X112511904Y-86890476D01*
X112559523Y-86795238D01*
X112654761Y-86700000D01*
X112797619Y-86652380D01*
X112892857Y-86652380D01*
X113035714Y-86700000D01*
X113083333Y-86747619D01*
X114035714Y-87652380D02*
X113464285Y-87652380D01*
X113750000Y-87652380D02*
X113750000Y-86652380D01*
X113654761Y-86795238D01*
X113559523Y-86890476D01*
X113464285Y-86938095D01*
X173083333Y-77557142D02*
X173035714Y-77604761D01*
X172892857Y-77652380D01*
X172797619Y-77652380D01*
X172654761Y-77604761D01*
X172559523Y-77509523D01*
X172511904Y-77414285D01*
X172464285Y-77223809D01*
X172464285Y-77080952D01*
X172511904Y-76890476D01*
X172559523Y-76795238D01*
X172654761Y-76700000D01*
X172797619Y-76652380D01*
X172892857Y-76652380D01*
X173035714Y-76700000D01*
X173083333Y-76747619D01*
X174035714Y-77652380D02*
X173464285Y-77652380D01*
X173750000Y-77652380D02*
X173750000Y-76652380D01*
X173654761Y-76795238D01*
X173559523Y-76890476D01*
X173464285Y-76938095D01*
X113083333Y-77557142D02*
X113035714Y-77604761D01*
X112892857Y-77652380D01*
X112797619Y-77652380D01*
X112654761Y-77604761D01*
X112559523Y-77509523D01*
X112511904Y-77414285D01*
X112464285Y-77223809D01*
X112464285Y-77080952D01*
X112511904Y-76890476D01*
X112559523Y-76795238D01*
X112654761Y-76700000D01*
X112797619Y-76652380D01*
X112892857Y-76652380D01*
X113035714Y-76700000D01*
X113083333Y-76747619D01*
X114035714Y-77652380D02*
X113464285Y-77652380D01*
X113750000Y-77652380D02*
X113750000Y-76652380D01*
X113654761Y-76795238D01*
X113559523Y-76890476D01*
X113464285Y-76938095D01*
X173083333Y-67557142D02*
X173035714Y-67604761D01*
X172892857Y-67652380D01*
X172797619Y-67652380D01*
X172654761Y-67604761D01*
X172559523Y-67509523D01*
X172511904Y-67414285D01*
X172464285Y-67223809D01*
X172464285Y-67080952D01*
X172511904Y-66890476D01*
X172559523Y-66795238D01*
X172654761Y-66700000D01*
X172797619Y-66652380D01*
X172892857Y-66652380D01*
X173035714Y-66700000D01*
X173083333Y-66747619D01*
X174035714Y-67652380D02*
X173464285Y-67652380D01*
X173750000Y-67652380D02*
X173750000Y-66652380D01*
X173654761Y-66795238D01*
X173559523Y-66890476D01*
X173464285Y-66938095D01*
X113083333Y-67557142D02*
X113035714Y-67604761D01*
X112892857Y-67652380D01*
X112797619Y-67652380D01*
X112654761Y-67604761D01*
X112559523Y-67509523D01*
X112511904Y-67414285D01*
X112464285Y-67223809D01*
X112464285Y-67080952D01*
X112511904Y-66890476D01*
X112559523Y-66795238D01*
X112654761Y-66700000D01*
X112797619Y-66652380D01*
X112892857Y-66652380D01*
X113035714Y-66700000D01*
X113083333Y-66747619D01*
X114035714Y-67652380D02*
X113464285Y-67652380D01*
X113750000Y-67652380D02*
X113750000Y-66652380D01*
X113654761Y-66795238D01*
X113559523Y-66890476D01*
X113464285Y-66938095D01*
X173083333Y-57557142D02*
X173035714Y-57604761D01*
X172892857Y-57652380D01*
X172797619Y-57652380D01*
X172654761Y-57604761D01*
X172559523Y-57509523D01*
X172511904Y-57414285D01*
X172464285Y-57223809D01*
X172464285Y-57080952D01*
X172511904Y-56890476D01*
X172559523Y-56795238D01*
X172654761Y-56700000D01*
X172797619Y-56652380D01*
X172892857Y-56652380D01*
X173035714Y-56700000D01*
X173083333Y-56747619D01*
X174035714Y-57652380D02*
X173464285Y-57652380D01*
X173750000Y-57652380D02*
X173750000Y-56652380D01*
X173654761Y-56795238D01*
X173559523Y-56890476D01*
X173464285Y-56938095D01*
G04 #@! TO.C,R2*
X166816666Y-131161904D02*
X166550000Y-130780952D01*
X166359523Y-131161904D02*
X166359523Y-130361904D01*
X166664285Y-130361904D01*
X166740476Y-130400000D01*
X166778571Y-130438095D01*
X166816666Y-130514285D01*
X166816666Y-130628571D01*
X166778571Y-130704761D01*
X166740476Y-130742857D01*
X166664285Y-130780952D01*
X166359523Y-130780952D01*
X167121428Y-130438095D02*
X167159523Y-130400000D01*
X167235714Y-130361904D01*
X167426190Y-130361904D01*
X167502380Y-130400000D01*
X167540476Y-130438095D01*
X167578571Y-130514285D01*
X167578571Y-130590476D01*
X167540476Y-130704761D01*
X167083333Y-131161904D01*
X167578571Y-131161904D01*
X106816666Y-131161904D02*
X106550000Y-130780952D01*
X106359523Y-131161904D02*
X106359523Y-130361904D01*
X106664285Y-130361904D01*
X106740476Y-130400000D01*
X106778571Y-130438095D01*
X106816666Y-130514285D01*
X106816666Y-130628571D01*
X106778571Y-130704761D01*
X106740476Y-130742857D01*
X106664285Y-130780952D01*
X106359523Y-130780952D01*
X107121428Y-130438095D02*
X107159523Y-130400000D01*
X107235714Y-130361904D01*
X107426190Y-130361904D01*
X107502380Y-130400000D01*
X107540476Y-130438095D01*
X107578571Y-130514285D01*
X107578571Y-130590476D01*
X107540476Y-130704761D01*
X107083333Y-131161904D01*
X107578571Y-131161904D01*
X166816666Y-121161904D02*
X166550000Y-120780952D01*
X166359523Y-121161904D02*
X166359523Y-120361904D01*
X166664285Y-120361904D01*
X166740476Y-120400000D01*
X166778571Y-120438095D01*
X166816666Y-120514285D01*
X166816666Y-120628571D01*
X166778571Y-120704761D01*
X166740476Y-120742857D01*
X166664285Y-120780952D01*
X166359523Y-120780952D01*
X167121428Y-120438095D02*
X167159523Y-120400000D01*
X167235714Y-120361904D01*
X167426190Y-120361904D01*
X167502380Y-120400000D01*
X167540476Y-120438095D01*
X167578571Y-120514285D01*
X167578571Y-120590476D01*
X167540476Y-120704761D01*
X167083333Y-121161904D01*
X167578571Y-121161904D01*
X106816666Y-121161904D02*
X106550000Y-120780952D01*
X106359523Y-121161904D02*
X106359523Y-120361904D01*
X106664285Y-120361904D01*
X106740476Y-120400000D01*
X106778571Y-120438095D01*
X106816666Y-120514285D01*
X106816666Y-120628571D01*
X106778571Y-120704761D01*
X106740476Y-120742857D01*
X106664285Y-120780952D01*
X106359523Y-120780952D01*
X107121428Y-120438095D02*
X107159523Y-120400000D01*
X107235714Y-120361904D01*
X107426190Y-120361904D01*
X107502380Y-120400000D01*
X107540476Y-120438095D01*
X107578571Y-120514285D01*
X107578571Y-120590476D01*
X107540476Y-120704761D01*
X107083333Y-121161904D01*
X107578571Y-121161904D01*
X166816666Y-111161904D02*
X166550000Y-110780952D01*
X166359523Y-111161904D02*
X166359523Y-110361904D01*
X166664285Y-110361904D01*
X166740476Y-110400000D01*
X166778571Y-110438095D01*
X166816666Y-110514285D01*
X166816666Y-110628571D01*
X166778571Y-110704761D01*
X166740476Y-110742857D01*
X166664285Y-110780952D01*
X166359523Y-110780952D01*
X167121428Y-110438095D02*
X167159523Y-110400000D01*
X167235714Y-110361904D01*
X167426190Y-110361904D01*
X167502380Y-110400000D01*
X167540476Y-110438095D01*
X167578571Y-110514285D01*
X167578571Y-110590476D01*
X167540476Y-110704761D01*
X167083333Y-111161904D01*
X167578571Y-111161904D01*
X106816666Y-111161904D02*
X106550000Y-110780952D01*
X106359523Y-111161904D02*
X106359523Y-110361904D01*
X106664285Y-110361904D01*
X106740476Y-110400000D01*
X106778571Y-110438095D01*
X106816666Y-110514285D01*
X106816666Y-110628571D01*
X106778571Y-110704761D01*
X106740476Y-110742857D01*
X106664285Y-110780952D01*
X106359523Y-110780952D01*
X107121428Y-110438095D02*
X107159523Y-110400000D01*
X107235714Y-110361904D01*
X107426190Y-110361904D01*
X107502380Y-110400000D01*
X107540476Y-110438095D01*
X107578571Y-110514285D01*
X107578571Y-110590476D01*
X107540476Y-110704761D01*
X107083333Y-111161904D01*
X107578571Y-111161904D01*
X166816666Y-101161904D02*
X166550000Y-100780952D01*
X166359523Y-101161904D02*
X166359523Y-100361904D01*
X166664285Y-100361904D01*
X166740476Y-100400000D01*
X166778571Y-100438095D01*
X166816666Y-100514285D01*
X166816666Y-100628571D01*
X166778571Y-100704761D01*
X166740476Y-100742857D01*
X166664285Y-100780952D01*
X166359523Y-100780952D01*
X167121428Y-100438095D02*
X167159523Y-100400000D01*
X167235714Y-100361904D01*
X167426190Y-100361904D01*
X167502380Y-100400000D01*
X167540476Y-100438095D01*
X167578571Y-100514285D01*
X167578571Y-100590476D01*
X167540476Y-100704761D01*
X167083333Y-101161904D01*
X167578571Y-101161904D01*
X106816666Y-101161904D02*
X106550000Y-100780952D01*
X106359523Y-101161904D02*
X106359523Y-100361904D01*
X106664285Y-100361904D01*
X106740476Y-100400000D01*
X106778571Y-100438095D01*
X106816666Y-100514285D01*
X106816666Y-100628571D01*
X106778571Y-100704761D01*
X106740476Y-100742857D01*
X106664285Y-100780952D01*
X106359523Y-100780952D01*
X107121428Y-100438095D02*
X107159523Y-100400000D01*
X107235714Y-100361904D01*
X107426190Y-100361904D01*
X107502380Y-100400000D01*
X107540476Y-100438095D01*
X107578571Y-100514285D01*
X107578571Y-100590476D01*
X107540476Y-100704761D01*
X107083333Y-101161904D01*
X107578571Y-101161904D01*
X166816666Y-91161904D02*
X166550000Y-90780952D01*
X166359523Y-91161904D02*
X166359523Y-90361904D01*
X166664285Y-90361904D01*
X166740476Y-90400000D01*
X166778571Y-90438095D01*
X166816666Y-90514285D01*
X166816666Y-90628571D01*
X166778571Y-90704761D01*
X166740476Y-90742857D01*
X166664285Y-90780952D01*
X166359523Y-90780952D01*
X167121428Y-90438095D02*
X167159523Y-90400000D01*
X167235714Y-90361904D01*
X167426190Y-90361904D01*
X167502380Y-90400000D01*
X167540476Y-90438095D01*
X167578571Y-90514285D01*
X167578571Y-90590476D01*
X167540476Y-90704761D01*
X167083333Y-91161904D01*
X167578571Y-91161904D01*
X106816666Y-91161904D02*
X106550000Y-90780952D01*
X106359523Y-91161904D02*
X106359523Y-90361904D01*
X106664285Y-90361904D01*
X106740476Y-90400000D01*
X106778571Y-90438095D01*
X106816666Y-90514285D01*
X106816666Y-90628571D01*
X106778571Y-90704761D01*
X106740476Y-90742857D01*
X106664285Y-90780952D01*
X106359523Y-90780952D01*
X107121428Y-90438095D02*
X107159523Y-90400000D01*
X107235714Y-90361904D01*
X107426190Y-90361904D01*
X107502380Y-90400000D01*
X107540476Y-90438095D01*
X107578571Y-90514285D01*
X107578571Y-90590476D01*
X107540476Y-90704761D01*
X107083333Y-91161904D01*
X107578571Y-91161904D01*
X166816666Y-81161904D02*
X166550000Y-80780952D01*
X166359523Y-81161904D02*
X166359523Y-80361904D01*
X166664285Y-80361904D01*
X166740476Y-80400000D01*
X166778571Y-80438095D01*
X166816666Y-80514285D01*
X166816666Y-80628571D01*
X166778571Y-80704761D01*
X166740476Y-80742857D01*
X166664285Y-80780952D01*
X166359523Y-80780952D01*
X167121428Y-80438095D02*
X167159523Y-80400000D01*
X167235714Y-80361904D01*
X167426190Y-80361904D01*
X167502380Y-80400000D01*
X167540476Y-80438095D01*
X167578571Y-80514285D01*
X167578571Y-80590476D01*
X167540476Y-80704761D01*
X167083333Y-81161904D01*
X167578571Y-81161904D01*
X106816666Y-81161904D02*
X106550000Y-80780952D01*
X106359523Y-81161904D02*
X106359523Y-80361904D01*
X106664285Y-80361904D01*
X106740476Y-80400000D01*
X106778571Y-80438095D01*
X106816666Y-80514285D01*
X106816666Y-80628571D01*
X106778571Y-80704761D01*
X106740476Y-80742857D01*
X106664285Y-80780952D01*
X106359523Y-80780952D01*
X107121428Y-80438095D02*
X107159523Y-80400000D01*
X107235714Y-80361904D01*
X107426190Y-80361904D01*
X107502380Y-80400000D01*
X107540476Y-80438095D01*
X107578571Y-80514285D01*
X107578571Y-80590476D01*
X107540476Y-80704761D01*
X107083333Y-81161904D01*
X107578571Y-81161904D01*
X166816666Y-71161904D02*
X166550000Y-70780952D01*
X166359523Y-71161904D02*
X166359523Y-70361904D01*
X166664285Y-70361904D01*
X166740476Y-70400000D01*
X166778571Y-70438095D01*
X166816666Y-70514285D01*
X166816666Y-70628571D01*
X166778571Y-70704761D01*
X166740476Y-70742857D01*
X166664285Y-70780952D01*
X166359523Y-70780952D01*
X167121428Y-70438095D02*
X167159523Y-70400000D01*
X167235714Y-70361904D01*
X167426190Y-70361904D01*
X167502380Y-70400000D01*
X167540476Y-70438095D01*
X167578571Y-70514285D01*
X167578571Y-70590476D01*
X167540476Y-70704761D01*
X167083333Y-71161904D01*
X167578571Y-71161904D01*
X106816666Y-71161904D02*
X106550000Y-70780952D01*
X106359523Y-71161904D02*
X106359523Y-70361904D01*
X106664285Y-70361904D01*
X106740476Y-70400000D01*
X106778571Y-70438095D01*
X106816666Y-70514285D01*
X106816666Y-70628571D01*
X106778571Y-70704761D01*
X106740476Y-70742857D01*
X106664285Y-70780952D01*
X106359523Y-70780952D01*
X107121428Y-70438095D02*
X107159523Y-70400000D01*
X107235714Y-70361904D01*
X107426190Y-70361904D01*
X107502380Y-70400000D01*
X107540476Y-70438095D01*
X107578571Y-70514285D01*
X107578571Y-70590476D01*
X107540476Y-70704761D01*
X107083333Y-71161904D01*
X107578571Y-71161904D01*
X166816666Y-61161904D02*
X166550000Y-60780952D01*
X166359523Y-61161904D02*
X166359523Y-60361904D01*
X166664285Y-60361904D01*
X166740476Y-60400000D01*
X166778571Y-60438095D01*
X166816666Y-60514285D01*
X166816666Y-60628571D01*
X166778571Y-60704761D01*
X166740476Y-60742857D01*
X166664285Y-60780952D01*
X166359523Y-60780952D01*
X167121428Y-60438095D02*
X167159523Y-60400000D01*
X167235714Y-60361904D01*
X167426190Y-60361904D01*
X167502380Y-60400000D01*
X167540476Y-60438095D01*
X167578571Y-60514285D01*
X167578571Y-60590476D01*
X167540476Y-60704761D01*
X167083333Y-61161904D01*
X167578571Y-61161904D01*
X106816666Y-61161904D02*
X106550000Y-60780952D01*
X106359523Y-61161904D02*
X106359523Y-60361904D01*
X106664285Y-60361904D01*
X106740476Y-60400000D01*
X106778571Y-60438095D01*
X106816666Y-60514285D01*
X106816666Y-60628571D01*
X106778571Y-60704761D01*
X106740476Y-60742857D01*
X106664285Y-60780952D01*
X106359523Y-60780952D01*
X107121428Y-60438095D02*
X107159523Y-60400000D01*
X107235714Y-60361904D01*
X107426190Y-60361904D01*
X107502380Y-60400000D01*
X107540476Y-60438095D01*
X107578571Y-60514285D01*
X107578571Y-60590476D01*
X107540476Y-60704761D01*
X107083333Y-61161904D01*
X107578571Y-61161904D01*
X166816666Y-51161904D02*
X166550000Y-50780952D01*
X166359523Y-51161904D02*
X166359523Y-50361904D01*
X166664285Y-50361904D01*
X166740476Y-50400000D01*
X166778571Y-50438095D01*
X166816666Y-50514285D01*
X166816666Y-50628571D01*
X166778571Y-50704761D01*
X166740476Y-50742857D01*
X166664285Y-50780952D01*
X166359523Y-50780952D01*
X167121428Y-50438095D02*
X167159523Y-50400000D01*
X167235714Y-50361904D01*
X167426190Y-50361904D01*
X167502380Y-50400000D01*
X167540476Y-50438095D01*
X167578571Y-50514285D01*
X167578571Y-50590476D01*
X167540476Y-50704761D01*
X167083333Y-51161904D01*
X167578571Y-51161904D01*
G04 #@! TO.C,D2*
X170888095Y-131347619D02*
X170888095Y-132347619D01*
X170650000Y-132347619D01*
X170507142Y-132300000D01*
X170411904Y-132204761D01*
X170364285Y-132109523D01*
X170316666Y-131919047D01*
X170316666Y-131776190D01*
X170364285Y-131585714D01*
X170411904Y-131490476D01*
X170507142Y-131395238D01*
X170650000Y-131347619D01*
X170888095Y-131347619D01*
X169935714Y-132252380D02*
X169888095Y-132300000D01*
X169792857Y-132347619D01*
X169554761Y-132347619D01*
X169459523Y-132300000D01*
X169411904Y-132252380D01*
X169364285Y-132157142D01*
X169364285Y-132061904D01*
X169411904Y-131919047D01*
X169983333Y-131347619D01*
X169364285Y-131347619D01*
X110888095Y-131347619D02*
X110888095Y-132347619D01*
X110650000Y-132347619D01*
X110507142Y-132300000D01*
X110411904Y-132204761D01*
X110364285Y-132109523D01*
X110316666Y-131919047D01*
X110316666Y-131776190D01*
X110364285Y-131585714D01*
X110411904Y-131490476D01*
X110507142Y-131395238D01*
X110650000Y-131347619D01*
X110888095Y-131347619D01*
X109935714Y-132252380D02*
X109888095Y-132300000D01*
X109792857Y-132347619D01*
X109554761Y-132347619D01*
X109459523Y-132300000D01*
X109411904Y-132252380D01*
X109364285Y-132157142D01*
X109364285Y-132061904D01*
X109411904Y-131919047D01*
X109983333Y-131347619D01*
X109364285Y-131347619D01*
X170888095Y-121347619D02*
X170888095Y-122347619D01*
X170650000Y-122347619D01*
X170507142Y-122300000D01*
X170411904Y-122204761D01*
X170364285Y-122109523D01*
X170316666Y-121919047D01*
X170316666Y-121776190D01*
X170364285Y-121585714D01*
X170411904Y-121490476D01*
X170507142Y-121395238D01*
X170650000Y-121347619D01*
X170888095Y-121347619D01*
X169935714Y-122252380D02*
X169888095Y-122300000D01*
X169792857Y-122347619D01*
X169554761Y-122347619D01*
X169459523Y-122300000D01*
X169411904Y-122252380D01*
X169364285Y-122157142D01*
X169364285Y-122061904D01*
X169411904Y-121919047D01*
X169983333Y-121347619D01*
X169364285Y-121347619D01*
X110888095Y-121347619D02*
X110888095Y-122347619D01*
X110650000Y-122347619D01*
X110507142Y-122300000D01*
X110411904Y-122204761D01*
X110364285Y-122109523D01*
X110316666Y-121919047D01*
X110316666Y-121776190D01*
X110364285Y-121585714D01*
X110411904Y-121490476D01*
X110507142Y-121395238D01*
X110650000Y-121347619D01*
X110888095Y-121347619D01*
X109935714Y-122252380D02*
X109888095Y-122300000D01*
X109792857Y-122347619D01*
X109554761Y-122347619D01*
X109459523Y-122300000D01*
X109411904Y-122252380D01*
X109364285Y-122157142D01*
X109364285Y-122061904D01*
X109411904Y-121919047D01*
X109983333Y-121347619D01*
X109364285Y-121347619D01*
X170888095Y-111347619D02*
X170888095Y-112347619D01*
X170650000Y-112347619D01*
X170507142Y-112300000D01*
X170411904Y-112204761D01*
X170364285Y-112109523D01*
X170316666Y-111919047D01*
X170316666Y-111776190D01*
X170364285Y-111585714D01*
X170411904Y-111490476D01*
X170507142Y-111395238D01*
X170650000Y-111347619D01*
X170888095Y-111347619D01*
X169935714Y-112252380D02*
X169888095Y-112300000D01*
X169792857Y-112347619D01*
X169554761Y-112347619D01*
X169459523Y-112300000D01*
X169411904Y-112252380D01*
X169364285Y-112157142D01*
X169364285Y-112061904D01*
X169411904Y-111919047D01*
X169983333Y-111347619D01*
X169364285Y-111347619D01*
X110888095Y-111347619D02*
X110888095Y-112347619D01*
X110650000Y-112347619D01*
X110507142Y-112300000D01*
X110411904Y-112204761D01*
X110364285Y-112109523D01*
X110316666Y-111919047D01*
X110316666Y-111776190D01*
X110364285Y-111585714D01*
X110411904Y-111490476D01*
X110507142Y-111395238D01*
X110650000Y-111347619D01*
X110888095Y-111347619D01*
X109935714Y-112252380D02*
X109888095Y-112300000D01*
X109792857Y-112347619D01*
X109554761Y-112347619D01*
X109459523Y-112300000D01*
X109411904Y-112252380D01*
X109364285Y-112157142D01*
X109364285Y-112061904D01*
X109411904Y-111919047D01*
X109983333Y-111347619D01*
X109364285Y-111347619D01*
X170888095Y-101347619D02*
X170888095Y-102347619D01*
X170650000Y-102347619D01*
X170507142Y-102300000D01*
X170411904Y-102204761D01*
X170364285Y-102109523D01*
X170316666Y-101919047D01*
X170316666Y-101776190D01*
X170364285Y-101585714D01*
X170411904Y-101490476D01*
X170507142Y-101395238D01*
X170650000Y-101347619D01*
X170888095Y-101347619D01*
X169935714Y-102252380D02*
X169888095Y-102300000D01*
X169792857Y-102347619D01*
X169554761Y-102347619D01*
X169459523Y-102300000D01*
X169411904Y-102252380D01*
X169364285Y-102157142D01*
X169364285Y-102061904D01*
X169411904Y-101919047D01*
X169983333Y-101347619D01*
X169364285Y-101347619D01*
X110888095Y-101347619D02*
X110888095Y-102347619D01*
X110650000Y-102347619D01*
X110507142Y-102300000D01*
X110411904Y-102204761D01*
X110364285Y-102109523D01*
X110316666Y-101919047D01*
X110316666Y-101776190D01*
X110364285Y-101585714D01*
X110411904Y-101490476D01*
X110507142Y-101395238D01*
X110650000Y-101347619D01*
X110888095Y-101347619D01*
X109935714Y-102252380D02*
X109888095Y-102300000D01*
X109792857Y-102347619D01*
X109554761Y-102347619D01*
X109459523Y-102300000D01*
X109411904Y-102252380D01*
X109364285Y-102157142D01*
X109364285Y-102061904D01*
X109411904Y-101919047D01*
X109983333Y-101347619D01*
X109364285Y-101347619D01*
X170888095Y-91347619D02*
X170888095Y-92347619D01*
X170650000Y-92347619D01*
X170507142Y-92300000D01*
X170411904Y-92204761D01*
X170364285Y-92109523D01*
X170316666Y-91919047D01*
X170316666Y-91776190D01*
X170364285Y-91585714D01*
X170411904Y-91490476D01*
X170507142Y-91395238D01*
X170650000Y-91347619D01*
X170888095Y-91347619D01*
X169935714Y-92252380D02*
X169888095Y-92300000D01*
X169792857Y-92347619D01*
X169554761Y-92347619D01*
X169459523Y-92300000D01*
X169411904Y-92252380D01*
X169364285Y-92157142D01*
X169364285Y-92061904D01*
X169411904Y-91919047D01*
X169983333Y-91347619D01*
X169364285Y-91347619D01*
X110888095Y-91347619D02*
X110888095Y-92347619D01*
X110650000Y-92347619D01*
X110507142Y-92300000D01*
X110411904Y-92204761D01*
X110364285Y-92109523D01*
X110316666Y-91919047D01*
X110316666Y-91776190D01*
X110364285Y-91585714D01*
X110411904Y-91490476D01*
X110507142Y-91395238D01*
X110650000Y-91347619D01*
X110888095Y-91347619D01*
X109935714Y-92252380D02*
X109888095Y-92300000D01*
X109792857Y-92347619D01*
X109554761Y-92347619D01*
X109459523Y-92300000D01*
X109411904Y-92252380D01*
X109364285Y-92157142D01*
X109364285Y-92061904D01*
X109411904Y-91919047D01*
X109983333Y-91347619D01*
X109364285Y-91347619D01*
X170888095Y-81347619D02*
X170888095Y-82347619D01*
X170650000Y-82347619D01*
X170507142Y-82300000D01*
X170411904Y-82204761D01*
X170364285Y-82109523D01*
X170316666Y-81919047D01*
X170316666Y-81776190D01*
X170364285Y-81585714D01*
X170411904Y-81490476D01*
X170507142Y-81395238D01*
X170650000Y-81347619D01*
X170888095Y-81347619D01*
X169935714Y-82252380D02*
X169888095Y-82300000D01*
X169792857Y-82347619D01*
X169554761Y-82347619D01*
X169459523Y-82300000D01*
X169411904Y-82252380D01*
X169364285Y-82157142D01*
X169364285Y-82061904D01*
X169411904Y-81919047D01*
X169983333Y-81347619D01*
X169364285Y-81347619D01*
X110888095Y-81347619D02*
X110888095Y-82347619D01*
X110650000Y-82347619D01*
X110507142Y-82300000D01*
X110411904Y-82204761D01*
X110364285Y-82109523D01*
X110316666Y-81919047D01*
X110316666Y-81776190D01*
X110364285Y-81585714D01*
X110411904Y-81490476D01*
X110507142Y-81395238D01*
X110650000Y-81347619D01*
X110888095Y-81347619D01*
X109935714Y-82252380D02*
X109888095Y-82300000D01*
X109792857Y-82347619D01*
X109554761Y-82347619D01*
X109459523Y-82300000D01*
X109411904Y-82252380D01*
X109364285Y-82157142D01*
X109364285Y-82061904D01*
X109411904Y-81919047D01*
X109983333Y-81347619D01*
X109364285Y-81347619D01*
X170888095Y-71347619D02*
X170888095Y-72347619D01*
X170650000Y-72347619D01*
X170507142Y-72300000D01*
X170411904Y-72204761D01*
X170364285Y-72109523D01*
X170316666Y-71919047D01*
X170316666Y-71776190D01*
X170364285Y-71585714D01*
X170411904Y-71490476D01*
X170507142Y-71395238D01*
X170650000Y-71347619D01*
X170888095Y-71347619D01*
X169935714Y-72252380D02*
X169888095Y-72300000D01*
X169792857Y-72347619D01*
X169554761Y-72347619D01*
X169459523Y-72300000D01*
X169411904Y-72252380D01*
X169364285Y-72157142D01*
X169364285Y-72061904D01*
X169411904Y-71919047D01*
X169983333Y-71347619D01*
X169364285Y-71347619D01*
X110888095Y-71347619D02*
X110888095Y-72347619D01*
X110650000Y-72347619D01*
X110507142Y-72300000D01*
X110411904Y-72204761D01*
X110364285Y-72109523D01*
X110316666Y-71919047D01*
X110316666Y-71776190D01*
X110364285Y-71585714D01*
X110411904Y-71490476D01*
X110507142Y-71395238D01*
X110650000Y-71347619D01*
X110888095Y-71347619D01*
X109935714Y-72252380D02*
X109888095Y-72300000D01*
X109792857Y-72347619D01*
X109554761Y-72347619D01*
X109459523Y-72300000D01*
X109411904Y-72252380D01*
X109364285Y-72157142D01*
X109364285Y-72061904D01*
X109411904Y-71919047D01*
X109983333Y-71347619D01*
X109364285Y-71347619D01*
X170888095Y-61347619D02*
X170888095Y-62347619D01*
X170650000Y-62347619D01*
X170507142Y-62300000D01*
X170411904Y-62204761D01*
X170364285Y-62109523D01*
X170316666Y-61919047D01*
X170316666Y-61776190D01*
X170364285Y-61585714D01*
X170411904Y-61490476D01*
X170507142Y-61395238D01*
X170650000Y-61347619D01*
X170888095Y-61347619D01*
X169935714Y-62252380D02*
X169888095Y-62300000D01*
X169792857Y-62347619D01*
X169554761Y-62347619D01*
X169459523Y-62300000D01*
X169411904Y-62252380D01*
X169364285Y-62157142D01*
X169364285Y-62061904D01*
X169411904Y-61919047D01*
X169983333Y-61347619D01*
X169364285Y-61347619D01*
X110888095Y-61347619D02*
X110888095Y-62347619D01*
X110650000Y-62347619D01*
X110507142Y-62300000D01*
X110411904Y-62204761D01*
X110364285Y-62109523D01*
X110316666Y-61919047D01*
X110316666Y-61776190D01*
X110364285Y-61585714D01*
X110411904Y-61490476D01*
X110507142Y-61395238D01*
X110650000Y-61347619D01*
X110888095Y-61347619D01*
X109935714Y-62252380D02*
X109888095Y-62300000D01*
X109792857Y-62347619D01*
X109554761Y-62347619D01*
X109459523Y-62300000D01*
X109411904Y-62252380D01*
X109364285Y-62157142D01*
X109364285Y-62061904D01*
X109411904Y-61919047D01*
X109983333Y-61347619D01*
X109364285Y-61347619D01*
X170888095Y-51347619D02*
X170888095Y-52347619D01*
X170650000Y-52347619D01*
X170507142Y-52300000D01*
X170411904Y-52204761D01*
X170364285Y-52109523D01*
X170316666Y-51919047D01*
X170316666Y-51776190D01*
X170364285Y-51585714D01*
X170411904Y-51490476D01*
X170507142Y-51395238D01*
X170650000Y-51347619D01*
X170888095Y-51347619D01*
X169935714Y-52252380D02*
X169888095Y-52300000D01*
X169792857Y-52347619D01*
X169554761Y-52347619D01*
X169459523Y-52300000D01*
X169411904Y-52252380D01*
X169364285Y-52157142D01*
X169364285Y-52061904D01*
X169411904Y-51919047D01*
X169983333Y-51347619D01*
X169364285Y-51347619D01*
G04 #@! TO.C,D3*
X183711904Y-138552380D02*
X183711904Y-137552380D01*
X183950000Y-137552380D01*
X184092857Y-137600000D01*
X184188095Y-137695238D01*
X184235714Y-137790476D01*
X184283333Y-137980952D01*
X184283333Y-138123809D01*
X184235714Y-138314285D01*
X184188095Y-138409523D01*
X184092857Y-138504761D01*
X183950000Y-138552380D01*
X183711904Y-138552380D01*
X184616666Y-137552380D02*
X185235714Y-137552380D01*
X184902380Y-137933333D01*
X185045238Y-137933333D01*
X185140476Y-137980952D01*
X185188095Y-138028571D01*
X185235714Y-138123809D01*
X185235714Y-138361904D01*
X185188095Y-138457142D01*
X185140476Y-138504761D01*
X185045238Y-138552380D01*
X184759523Y-138552380D01*
X184664285Y-138504761D01*
X184616666Y-138457142D01*
X123711904Y-138552380D02*
X123711904Y-137552380D01*
X123950000Y-137552380D01*
X124092857Y-137600000D01*
X124188095Y-137695238D01*
X124235714Y-137790476D01*
X124283333Y-137980952D01*
X124283333Y-138123809D01*
X124235714Y-138314285D01*
X124188095Y-138409523D01*
X124092857Y-138504761D01*
X123950000Y-138552380D01*
X123711904Y-138552380D01*
X124616666Y-137552380D02*
X125235714Y-137552380D01*
X124902380Y-137933333D01*
X125045238Y-137933333D01*
X125140476Y-137980952D01*
X125188095Y-138028571D01*
X125235714Y-138123809D01*
X125235714Y-138361904D01*
X125188095Y-138457142D01*
X125140476Y-138504761D01*
X125045238Y-138552380D01*
X124759523Y-138552380D01*
X124664285Y-138504761D01*
X124616666Y-138457142D01*
X183711904Y-128552380D02*
X183711904Y-127552380D01*
X183950000Y-127552380D01*
X184092857Y-127600000D01*
X184188095Y-127695238D01*
X184235714Y-127790476D01*
X184283333Y-127980952D01*
X184283333Y-128123809D01*
X184235714Y-128314285D01*
X184188095Y-128409523D01*
X184092857Y-128504761D01*
X183950000Y-128552380D01*
X183711904Y-128552380D01*
X184616666Y-127552380D02*
X185235714Y-127552380D01*
X184902380Y-127933333D01*
X185045238Y-127933333D01*
X185140476Y-127980952D01*
X185188095Y-128028571D01*
X185235714Y-128123809D01*
X185235714Y-128361904D01*
X185188095Y-128457142D01*
X185140476Y-128504761D01*
X185045238Y-128552380D01*
X184759523Y-128552380D01*
X184664285Y-128504761D01*
X184616666Y-128457142D01*
X123711904Y-128552380D02*
X123711904Y-127552380D01*
X123950000Y-127552380D01*
X124092857Y-127600000D01*
X124188095Y-127695238D01*
X124235714Y-127790476D01*
X124283333Y-127980952D01*
X124283333Y-128123809D01*
X124235714Y-128314285D01*
X124188095Y-128409523D01*
X124092857Y-128504761D01*
X123950000Y-128552380D01*
X123711904Y-128552380D01*
X124616666Y-127552380D02*
X125235714Y-127552380D01*
X124902380Y-127933333D01*
X125045238Y-127933333D01*
X125140476Y-127980952D01*
X125188095Y-128028571D01*
X125235714Y-128123809D01*
X125235714Y-128361904D01*
X125188095Y-128457142D01*
X125140476Y-128504761D01*
X125045238Y-128552380D01*
X124759523Y-128552380D01*
X124664285Y-128504761D01*
X124616666Y-128457142D01*
X183711904Y-118552380D02*
X183711904Y-117552380D01*
X183950000Y-117552380D01*
X184092857Y-117600000D01*
X184188095Y-117695238D01*
X184235714Y-117790476D01*
X184283333Y-117980952D01*
X184283333Y-118123809D01*
X184235714Y-118314285D01*
X184188095Y-118409523D01*
X184092857Y-118504761D01*
X183950000Y-118552380D01*
X183711904Y-118552380D01*
X184616666Y-117552380D02*
X185235714Y-117552380D01*
X184902380Y-117933333D01*
X185045238Y-117933333D01*
X185140476Y-117980952D01*
X185188095Y-118028571D01*
X185235714Y-118123809D01*
X185235714Y-118361904D01*
X185188095Y-118457142D01*
X185140476Y-118504761D01*
X185045238Y-118552380D01*
X184759523Y-118552380D01*
X184664285Y-118504761D01*
X184616666Y-118457142D01*
X123711904Y-118552380D02*
X123711904Y-117552380D01*
X123950000Y-117552380D01*
X124092857Y-117600000D01*
X124188095Y-117695238D01*
X124235714Y-117790476D01*
X124283333Y-117980952D01*
X124283333Y-118123809D01*
X124235714Y-118314285D01*
X124188095Y-118409523D01*
X124092857Y-118504761D01*
X123950000Y-118552380D01*
X123711904Y-118552380D01*
X124616666Y-117552380D02*
X125235714Y-117552380D01*
X124902380Y-117933333D01*
X125045238Y-117933333D01*
X125140476Y-117980952D01*
X125188095Y-118028571D01*
X125235714Y-118123809D01*
X125235714Y-118361904D01*
X125188095Y-118457142D01*
X125140476Y-118504761D01*
X125045238Y-118552380D01*
X124759523Y-118552380D01*
X124664285Y-118504761D01*
X124616666Y-118457142D01*
X183711904Y-108552380D02*
X183711904Y-107552380D01*
X183950000Y-107552380D01*
X184092857Y-107600000D01*
X184188095Y-107695238D01*
X184235714Y-107790476D01*
X184283333Y-107980952D01*
X184283333Y-108123809D01*
X184235714Y-108314285D01*
X184188095Y-108409523D01*
X184092857Y-108504761D01*
X183950000Y-108552380D01*
X183711904Y-108552380D01*
X184616666Y-107552380D02*
X185235714Y-107552380D01*
X184902380Y-107933333D01*
X185045238Y-107933333D01*
X185140476Y-107980952D01*
X185188095Y-108028571D01*
X185235714Y-108123809D01*
X185235714Y-108361904D01*
X185188095Y-108457142D01*
X185140476Y-108504761D01*
X185045238Y-108552380D01*
X184759523Y-108552380D01*
X184664285Y-108504761D01*
X184616666Y-108457142D01*
X123711904Y-108552380D02*
X123711904Y-107552380D01*
X123950000Y-107552380D01*
X124092857Y-107600000D01*
X124188095Y-107695238D01*
X124235714Y-107790476D01*
X124283333Y-107980952D01*
X124283333Y-108123809D01*
X124235714Y-108314285D01*
X124188095Y-108409523D01*
X124092857Y-108504761D01*
X123950000Y-108552380D01*
X123711904Y-108552380D01*
X124616666Y-107552380D02*
X125235714Y-107552380D01*
X124902380Y-107933333D01*
X125045238Y-107933333D01*
X125140476Y-107980952D01*
X125188095Y-108028571D01*
X125235714Y-108123809D01*
X125235714Y-108361904D01*
X125188095Y-108457142D01*
X125140476Y-108504761D01*
X125045238Y-108552380D01*
X124759523Y-108552380D01*
X124664285Y-108504761D01*
X124616666Y-108457142D01*
X183711904Y-98552380D02*
X183711904Y-97552380D01*
X183950000Y-97552380D01*
X184092857Y-97600000D01*
X184188095Y-97695238D01*
X184235714Y-97790476D01*
X184283333Y-97980952D01*
X184283333Y-98123809D01*
X184235714Y-98314285D01*
X184188095Y-98409523D01*
X184092857Y-98504761D01*
X183950000Y-98552380D01*
X183711904Y-98552380D01*
X184616666Y-97552380D02*
X185235714Y-97552380D01*
X184902380Y-97933333D01*
X185045238Y-97933333D01*
X185140476Y-97980952D01*
X185188095Y-98028571D01*
X185235714Y-98123809D01*
X185235714Y-98361904D01*
X185188095Y-98457142D01*
X185140476Y-98504761D01*
X185045238Y-98552380D01*
X184759523Y-98552380D01*
X184664285Y-98504761D01*
X184616666Y-98457142D01*
X123711904Y-98552380D02*
X123711904Y-97552380D01*
X123950000Y-97552380D01*
X124092857Y-97600000D01*
X124188095Y-97695238D01*
X124235714Y-97790476D01*
X124283333Y-97980952D01*
X124283333Y-98123809D01*
X124235714Y-98314285D01*
X124188095Y-98409523D01*
X124092857Y-98504761D01*
X123950000Y-98552380D01*
X123711904Y-98552380D01*
X124616666Y-97552380D02*
X125235714Y-97552380D01*
X124902380Y-97933333D01*
X125045238Y-97933333D01*
X125140476Y-97980952D01*
X125188095Y-98028571D01*
X125235714Y-98123809D01*
X125235714Y-98361904D01*
X125188095Y-98457142D01*
X125140476Y-98504761D01*
X125045238Y-98552380D01*
X124759523Y-98552380D01*
X124664285Y-98504761D01*
X124616666Y-98457142D01*
X183711904Y-88552380D02*
X183711904Y-87552380D01*
X183950000Y-87552380D01*
X184092857Y-87600000D01*
X184188095Y-87695238D01*
X184235714Y-87790476D01*
X184283333Y-87980952D01*
X184283333Y-88123809D01*
X184235714Y-88314285D01*
X184188095Y-88409523D01*
X184092857Y-88504761D01*
X183950000Y-88552380D01*
X183711904Y-88552380D01*
X184616666Y-87552380D02*
X185235714Y-87552380D01*
X184902380Y-87933333D01*
X185045238Y-87933333D01*
X185140476Y-87980952D01*
X185188095Y-88028571D01*
X185235714Y-88123809D01*
X185235714Y-88361904D01*
X185188095Y-88457142D01*
X185140476Y-88504761D01*
X185045238Y-88552380D01*
X184759523Y-88552380D01*
X184664285Y-88504761D01*
X184616666Y-88457142D01*
X123711904Y-88552380D02*
X123711904Y-87552380D01*
X123950000Y-87552380D01*
X124092857Y-87600000D01*
X124188095Y-87695238D01*
X124235714Y-87790476D01*
X124283333Y-87980952D01*
X124283333Y-88123809D01*
X124235714Y-88314285D01*
X124188095Y-88409523D01*
X124092857Y-88504761D01*
X123950000Y-88552380D01*
X123711904Y-88552380D01*
X124616666Y-87552380D02*
X125235714Y-87552380D01*
X124902380Y-87933333D01*
X125045238Y-87933333D01*
X125140476Y-87980952D01*
X125188095Y-88028571D01*
X125235714Y-88123809D01*
X125235714Y-88361904D01*
X125188095Y-88457142D01*
X125140476Y-88504761D01*
X125045238Y-88552380D01*
X124759523Y-88552380D01*
X124664285Y-88504761D01*
X124616666Y-88457142D01*
X183711904Y-78552380D02*
X183711904Y-77552380D01*
X183950000Y-77552380D01*
X184092857Y-77600000D01*
X184188095Y-77695238D01*
X184235714Y-77790476D01*
X184283333Y-77980952D01*
X184283333Y-78123809D01*
X184235714Y-78314285D01*
X184188095Y-78409523D01*
X184092857Y-78504761D01*
X183950000Y-78552380D01*
X183711904Y-78552380D01*
X184616666Y-77552380D02*
X185235714Y-77552380D01*
X184902380Y-77933333D01*
X185045238Y-77933333D01*
X185140476Y-77980952D01*
X185188095Y-78028571D01*
X185235714Y-78123809D01*
X185235714Y-78361904D01*
X185188095Y-78457142D01*
X185140476Y-78504761D01*
X185045238Y-78552380D01*
X184759523Y-78552380D01*
X184664285Y-78504761D01*
X184616666Y-78457142D01*
X123711904Y-78552380D02*
X123711904Y-77552380D01*
X123950000Y-77552380D01*
X124092857Y-77600000D01*
X124188095Y-77695238D01*
X124235714Y-77790476D01*
X124283333Y-77980952D01*
X124283333Y-78123809D01*
X124235714Y-78314285D01*
X124188095Y-78409523D01*
X124092857Y-78504761D01*
X123950000Y-78552380D01*
X123711904Y-78552380D01*
X124616666Y-77552380D02*
X125235714Y-77552380D01*
X124902380Y-77933333D01*
X125045238Y-77933333D01*
X125140476Y-77980952D01*
X125188095Y-78028571D01*
X125235714Y-78123809D01*
X125235714Y-78361904D01*
X125188095Y-78457142D01*
X125140476Y-78504761D01*
X125045238Y-78552380D01*
X124759523Y-78552380D01*
X124664285Y-78504761D01*
X124616666Y-78457142D01*
X183711904Y-68552380D02*
X183711904Y-67552380D01*
X183950000Y-67552380D01*
X184092857Y-67600000D01*
X184188095Y-67695238D01*
X184235714Y-67790476D01*
X184283333Y-67980952D01*
X184283333Y-68123809D01*
X184235714Y-68314285D01*
X184188095Y-68409523D01*
X184092857Y-68504761D01*
X183950000Y-68552380D01*
X183711904Y-68552380D01*
X184616666Y-67552380D02*
X185235714Y-67552380D01*
X184902380Y-67933333D01*
X185045238Y-67933333D01*
X185140476Y-67980952D01*
X185188095Y-68028571D01*
X185235714Y-68123809D01*
X185235714Y-68361904D01*
X185188095Y-68457142D01*
X185140476Y-68504761D01*
X185045238Y-68552380D01*
X184759523Y-68552380D01*
X184664285Y-68504761D01*
X184616666Y-68457142D01*
X123711904Y-68552380D02*
X123711904Y-67552380D01*
X123950000Y-67552380D01*
X124092857Y-67600000D01*
X124188095Y-67695238D01*
X124235714Y-67790476D01*
X124283333Y-67980952D01*
X124283333Y-68123809D01*
X124235714Y-68314285D01*
X124188095Y-68409523D01*
X124092857Y-68504761D01*
X123950000Y-68552380D01*
X123711904Y-68552380D01*
X124616666Y-67552380D02*
X125235714Y-67552380D01*
X124902380Y-67933333D01*
X125045238Y-67933333D01*
X125140476Y-67980952D01*
X125188095Y-68028571D01*
X125235714Y-68123809D01*
X125235714Y-68361904D01*
X125188095Y-68457142D01*
X125140476Y-68504761D01*
X125045238Y-68552380D01*
X124759523Y-68552380D01*
X124664285Y-68504761D01*
X124616666Y-68457142D01*
X183711904Y-58552380D02*
X183711904Y-57552380D01*
X183950000Y-57552380D01*
X184092857Y-57600000D01*
X184188095Y-57695238D01*
X184235714Y-57790476D01*
X184283333Y-57980952D01*
X184283333Y-58123809D01*
X184235714Y-58314285D01*
X184188095Y-58409523D01*
X184092857Y-58504761D01*
X183950000Y-58552380D01*
X183711904Y-58552380D01*
X184616666Y-57552380D02*
X185235714Y-57552380D01*
X184902380Y-57933333D01*
X185045238Y-57933333D01*
X185140476Y-57980952D01*
X185188095Y-58028571D01*
X185235714Y-58123809D01*
X185235714Y-58361904D01*
X185188095Y-58457142D01*
X185140476Y-58504761D01*
X185045238Y-58552380D01*
X184759523Y-58552380D01*
X184664285Y-58504761D01*
X184616666Y-58457142D01*
G04 #@! TO.C,D1*
X96411904Y-58552380D02*
X96411904Y-57552380D01*
X96650000Y-57552380D01*
X96792857Y-57600000D01*
X96888095Y-57695238D01*
X96935714Y-57790476D01*
X96983333Y-57980952D01*
X96983333Y-58123809D01*
X96935714Y-58314285D01*
X96888095Y-58409523D01*
X96792857Y-58504761D01*
X96650000Y-58552380D01*
X96411904Y-58552380D01*
X97935714Y-58552380D02*
X97364285Y-58552380D01*
X97650000Y-58552380D02*
X97650000Y-57552380D01*
X97554761Y-57695238D01*
X97459523Y-57790476D01*
X97364285Y-57838095D01*
G04 #@! TO.C,D2*
X110888095Y-51347619D02*
X110888095Y-52347619D01*
X110650000Y-52347619D01*
X110507142Y-52300000D01*
X110411904Y-52204761D01*
X110364285Y-52109523D01*
X110316666Y-51919047D01*
X110316666Y-51776190D01*
X110364285Y-51585714D01*
X110411904Y-51490476D01*
X110507142Y-51395238D01*
X110650000Y-51347619D01*
X110888095Y-51347619D01*
X109935714Y-52252380D02*
X109888095Y-52300000D01*
X109792857Y-52347619D01*
X109554761Y-52347619D01*
X109459523Y-52300000D01*
X109411904Y-52252380D01*
X109364285Y-52157142D01*
X109364285Y-52061904D01*
X109411904Y-51919047D01*
X109983333Y-51347619D01*
X109364285Y-51347619D01*
G04 #@! TO.C,D3*
X123711904Y-58552380D02*
X123711904Y-57552380D01*
X123950000Y-57552380D01*
X124092857Y-57600000D01*
X124188095Y-57695238D01*
X124235714Y-57790476D01*
X124283333Y-57980952D01*
X124283333Y-58123809D01*
X124235714Y-58314285D01*
X124188095Y-58409523D01*
X124092857Y-58504761D01*
X123950000Y-58552380D01*
X123711904Y-58552380D01*
X124616666Y-57552380D02*
X125235714Y-57552380D01*
X124902380Y-57933333D01*
X125045238Y-57933333D01*
X125140476Y-57980952D01*
X125188095Y-58028571D01*
X125235714Y-58123809D01*
X125235714Y-58361904D01*
X125188095Y-58457142D01*
X125140476Y-58504761D01*
X125045238Y-58552380D01*
X124759523Y-58552380D01*
X124664285Y-58504761D01*
X124616666Y-58457142D01*
G04 #@! TO.C,R1*
X98916666Y-59061904D02*
X98650000Y-58680952D01*
X98459523Y-59061904D02*
X98459523Y-58261904D01*
X98764285Y-58261904D01*
X98840476Y-58300000D01*
X98878571Y-58338095D01*
X98916666Y-58414285D01*
X98916666Y-58528571D01*
X98878571Y-58604761D01*
X98840476Y-58642857D01*
X98764285Y-58680952D01*
X98459523Y-58680952D01*
X99678571Y-59061904D02*
X99221428Y-59061904D01*
X99450000Y-59061904D02*
X99450000Y-58261904D01*
X99373809Y-58376190D01*
X99297619Y-58452380D01*
X99221428Y-58490476D01*
G04 #@! TO.C,R2*
X106816666Y-51161904D02*
X106550000Y-50780952D01*
X106359523Y-51161904D02*
X106359523Y-50361904D01*
X106664285Y-50361904D01*
X106740476Y-50400000D01*
X106778571Y-50438095D01*
X106816666Y-50514285D01*
X106816666Y-50628571D01*
X106778571Y-50704761D01*
X106740476Y-50742857D01*
X106664285Y-50780952D01*
X106359523Y-50780952D01*
X107121428Y-50438095D02*
X107159523Y-50400000D01*
X107235714Y-50361904D01*
X107426190Y-50361904D01*
X107502380Y-50400000D01*
X107540476Y-50438095D01*
X107578571Y-50514285D01*
X107578571Y-50590476D01*
X107540476Y-50704761D01*
X107083333Y-51161904D01*
X107578571Y-51161904D01*
G04 #@! TO.C,R3*
X108116666Y-58761904D02*
X107850000Y-58380952D01*
X107659523Y-58761904D02*
X107659523Y-57961904D01*
X107964285Y-57961904D01*
X108040476Y-58000000D01*
X108078571Y-58038095D01*
X108116666Y-58114285D01*
X108116666Y-58228571D01*
X108078571Y-58304761D01*
X108040476Y-58342857D01*
X107964285Y-58380952D01*
X107659523Y-58380952D01*
X108383333Y-57961904D02*
X108878571Y-57961904D01*
X108611904Y-58266666D01*
X108726190Y-58266666D01*
X108802380Y-58304761D01*
X108840476Y-58342857D01*
X108878571Y-58419047D01*
X108878571Y-58609523D01*
X108840476Y-58685714D01*
X108802380Y-58723809D01*
X108726190Y-58761904D01*
X108497619Y-58761904D01*
X108421428Y-58723809D01*
X108383333Y-58685714D01*
G04 #@! TO.C,R4*
X98916666Y-51161904D02*
X98650000Y-50780952D01*
X98459523Y-51161904D02*
X98459523Y-50361904D01*
X98764285Y-50361904D01*
X98840476Y-50400000D01*
X98878571Y-50438095D01*
X98916666Y-50514285D01*
X98916666Y-50628571D01*
X98878571Y-50704761D01*
X98840476Y-50742857D01*
X98764285Y-50780952D01*
X98459523Y-50780952D01*
X99602380Y-50628571D02*
X99602380Y-51161904D01*
X99411904Y-50323809D02*
X99221428Y-50895238D01*
X99716666Y-50895238D01*
G04 #@! TO.C,U1*
X102188095Y-54302380D02*
X102188095Y-55111904D01*
X102235714Y-55207142D01*
X102283333Y-55254761D01*
X102378571Y-55302380D01*
X102569047Y-55302380D01*
X102664285Y-55254761D01*
X102711904Y-55207142D01*
X102759523Y-55111904D01*
X102759523Y-54302380D01*
X103759523Y-55302380D02*
X103188095Y-55302380D01*
X103473809Y-55302380D02*
X103473809Y-54302380D01*
X103378571Y-54445238D01*
X103283333Y-54540476D01*
X103188095Y-54588095D01*
G04 #@! TO.C,C1*
X113083333Y-57557142D02*
X113035714Y-57604761D01*
X112892857Y-57652380D01*
X112797619Y-57652380D01*
X112654761Y-57604761D01*
X112559523Y-57509523D01*
X112511904Y-57414285D01*
X112464285Y-57223809D01*
X112464285Y-57080952D01*
X112511904Y-56890476D01*
X112559523Y-56795238D01*
X112654761Y-56700000D01*
X112797619Y-56652380D01*
X112892857Y-56652380D01*
X113035714Y-56700000D01*
X113083333Y-56747619D01*
X114035714Y-57652380D02*
X113464285Y-57652380D01*
X113750000Y-57652380D02*
X113750000Y-56652380D01*
X113654761Y-56795238D01*
X113559523Y-56890476D01*
X113464285Y-56938095D01*
G04 #@! TO.C,C2*
X119316666Y-58585714D02*
X119278571Y-58623809D01*
X119164285Y-58661904D01*
X119088095Y-58661904D01*
X118973809Y-58623809D01*
X118897619Y-58547619D01*
X118859523Y-58471428D01*
X118821428Y-58319047D01*
X118821428Y-58204761D01*
X118859523Y-58052380D01*
X118897619Y-57976190D01*
X118973809Y-57900000D01*
X119088095Y-57861904D01*
X119164285Y-57861904D01*
X119278571Y-57900000D01*
X119316666Y-57938095D01*
X119621428Y-57938095D02*
X119659523Y-57900000D01*
X119735714Y-57861904D01*
X119926190Y-57861904D01*
X120002380Y-57900000D01*
X120040476Y-57938095D01*
X120078571Y-58014285D01*
X120078571Y-58090476D01*
X120040476Y-58204761D01*
X119583333Y-58661904D01*
X120078571Y-58661904D01*
G04 #@! TO.C,REF\002A\002A*
X91166666Y-45452380D02*
X90833333Y-44976190D01*
X90595238Y-45452380D02*
X90595238Y-44452380D01*
X90976190Y-44452380D01*
X91071428Y-44500000D01*
X91119047Y-44547619D01*
X91166666Y-44642857D01*
X91166666Y-44785714D01*
X91119047Y-44880952D01*
X91071428Y-44928571D01*
X90976190Y-44976190D01*
X90595238Y-44976190D01*
X91595238Y-44928571D02*
X91928571Y-44928571D01*
X92071428Y-45452380D02*
X91595238Y-45452380D01*
X91595238Y-44452380D01*
X92071428Y-44452380D01*
X92833333Y-44928571D02*
X92500000Y-44928571D01*
X92500000Y-45452380D02*
X92500000Y-44452380D01*
X92976190Y-44452380D01*
X93500000Y-44452380D02*
X93500000Y-44690476D01*
X93261904Y-44595238D02*
X93500000Y-44690476D01*
X93738095Y-44595238D01*
X93357142Y-44880952D02*
X93500000Y-44690476D01*
X93642857Y-44880952D01*
X94261904Y-44452380D02*
X94261904Y-44690476D01*
X94023809Y-44595238D02*
X94261904Y-44690476D01*
X94500000Y-44595238D01*
X94119047Y-44880952D02*
X94261904Y-44690476D01*
X94404761Y-44880952D01*
X183666666Y-45452380D02*
X183333333Y-44976190D01*
X183095238Y-45452380D02*
X183095238Y-44452380D01*
X183476190Y-44452380D01*
X183571428Y-44500000D01*
X183619047Y-44547619D01*
X183666666Y-44642857D01*
X183666666Y-44785714D01*
X183619047Y-44880952D01*
X183571428Y-44928571D01*
X183476190Y-44976190D01*
X183095238Y-44976190D01*
X184095238Y-44928571D02*
X184428571Y-44928571D01*
X184571428Y-45452380D02*
X184095238Y-45452380D01*
X184095238Y-44452380D01*
X184571428Y-44452380D01*
X185333333Y-44928571D02*
X185000000Y-44928571D01*
X185000000Y-45452380D02*
X185000000Y-44452380D01*
X185476190Y-44452380D01*
X186000000Y-44452380D02*
X186000000Y-44690476D01*
X185761904Y-44595238D02*
X186000000Y-44690476D01*
X186238095Y-44595238D01*
X185857142Y-44880952D02*
X186000000Y-44690476D01*
X186142857Y-44880952D01*
X186761904Y-44452380D02*
X186761904Y-44690476D01*
X186523809Y-44595238D02*
X186761904Y-44690476D01*
X187000000Y-44595238D01*
X186619047Y-44880952D02*
X186761904Y-44690476D01*
X186904761Y-44880952D01*
X93666666Y-140452380D02*
X93333333Y-139976190D01*
X93095238Y-140452380D02*
X93095238Y-139452380D01*
X93476190Y-139452380D01*
X93571428Y-139500000D01*
X93619047Y-139547619D01*
X93666666Y-139642857D01*
X93666666Y-139785714D01*
X93619047Y-139880952D01*
X93571428Y-139928571D01*
X93476190Y-139976190D01*
X93095238Y-139976190D01*
X94095238Y-139928571D02*
X94428571Y-139928571D01*
X94571428Y-140452380D02*
X94095238Y-140452380D01*
X94095238Y-139452380D01*
X94571428Y-139452380D01*
X95333333Y-139928571D02*
X95000000Y-139928571D01*
X95000000Y-140452380D02*
X95000000Y-139452380D01*
X95476190Y-139452380D01*
X96000000Y-139452380D02*
X96000000Y-139690476D01*
X95761904Y-139595238D02*
X96000000Y-139690476D01*
X96238095Y-139595238D01*
X95857142Y-139880952D02*
X96000000Y-139690476D01*
X96142857Y-139880952D01*
X96761904Y-139452380D02*
X96761904Y-139690476D01*
X96523809Y-139595238D02*
X96761904Y-139690476D01*
X97000000Y-139595238D01*
X96619047Y-139880952D02*
X96761904Y-139690476D01*
X96904761Y-139880952D01*
G04 #@! TD*
M02*
